<?xml version="1.0" encoding="UTF-8"?>
<!DOCTYPE svg PUBLIC "-//W3C//DTD SVG 1.1//EN" "http://www.w3.org/Graphics/SVG/1.1/DTD/svg11.dtd">
<!-- Creator: CorelDRAW 2021 (64-Bit) -->
<svg xmlns="http://www.w3.org/2000/svg" xml:space="preserve" width="33.644mm" height="11.266mm" version="1.1" style="shape-rendering:geometricPrecision; text-rendering:geometricPrecision; image-rendering:optimizeQuality; fill-rule:evenodd; clip-rule:evenodd"
viewBox="0 0 207.04 69.33"
 xmlns:xlink="http://www.w3.org/1999/xlink"
 xmlns:xodm="http://www.corel.com/coreldraw/odm/2003">
 <defs>
  <style type="text/css">
   <![CDATA[
    .fil0 {fill:white;fill-rule:nonzero}
   ]]>
  </style>
 </defs>
 <g id="Capa_x0020_1">
  <metadata id="CorelCorpID_0Corel-Layer"/>
  <g id="_2936955680080">
   <path class="fil0" d="M130.24 34.14c-0.09,0 -0.16,-0.03 -0.21,-0.08 -0.05,-0.06 -0.08,-0.11 -0.1,-0.15l-1.16 -2.14 0 4.05c0,0.08 -0.03,0.13 -0.08,0.17 -0.05,0.04 -0.1,0.06 -0.16,0.06l-1.74 0c-0.06,0 -0.11,-0.02 -0.16,-0.06 -0.05,-0.04 -0.08,-0.1 -0.08,-0.17l0 -8.36c0,-0.08 0.03,-0.13 0.08,-0.17 0.05,-0.04 0.11,-0.06 0.16,-0.06l1.7 0c0.12,0 0.21,0.08 0.28,0.24l2 4.12 2 -4.12c0.07,-0.16 0.16,-0.24 0.28,-0.24l1.7 0c0.06,0 0.11,0.02 0.16,0.06 0.05,0.04 0.08,0.1 0.08,0.17l0 8.36c0,0.08 -0.03,0.13 -0.08,0.17 -0.05,0.04 -0.11,0.06 -0.16,0.06l-1.74 0c-0.05,0 -0.11,-0.02 -0.16,-0.06 -0.05,-0.04 -0.08,-0.1 -0.08,-0.17l0 -4.05 -1.16 2.14c-0.02,0.05 -0.05,0.1 -0.1,0.15 -0.05,0.06 -0.12,0.08 -0.21,0.08l-1.07 0z"/>
   <path class="fil0" d="M136.5 27.46c0,-0.07 0.03,-0.13 0.08,-0.17 0.05,-0.04 0.1,-0.06 0.16,-0.06l5.16 0c0.08,0 0.13,0.03 0.18,0.08 0.04,0.05 0.06,0.1 0.06,0.16l0 1.43c0,0.06 -0.02,0.11 -0.06,0.16 -0.04,0.05 -0.1,0.08 -0.18,0.08l-3.18 0 0 1.61 2.56 0c0.07,0 0.13,0.03 0.18,0.08 0.04,0.05 0.06,0.1 0.06,0.16l0 1.39c0,0.06 -0.02,0.11 -0.06,0.16 -0.04,0.05 -0.1,0.08 -0.18,0.08l-2.56 0 0 1.53 3.18 0c0.08,0 0.13,0.03 0.18,0.08 0.04,0.05 0.06,0.1 0.06,0.16l0 1.43c0,0.06 -0.02,0.11 -0.06,0.16 -0.04,0.05 -0.1,0.08 -0.18,0.08l-5.16 0c-0.06,0 -0.11,-0.02 -0.16,-0.06 -0.05,-0.04 -0.08,-0.1 -0.08,-0.17l0 -8.34z"/>
   <path class="fil0" d="M149.41 27.23c0.07,0 0.13,0.03 0.17,0.08 0.04,0.05 0.06,0.1 0.06,0.16l0 1.43c0,0.06 -0.02,0.11 -0.06,0.16 -0.04,0.05 -0.1,0.08 -0.17,0.08l-1.86 0 0 6.67c0,0.08 -0.03,0.13 -0.08,0.17 -0.05,0.04 -0.11,0.06 -0.16,0.06l-1.74 0c-0.06,0 -0.11,-0.02 -0.16,-0.06 -0.05,-0.04 -0.08,-0.1 -0.08,-0.17l0 -6.67 -1.86 0c-0.07,0 -0.13,-0.02 -0.17,-0.08 -0.04,-0.05 -0.06,-0.1 -0.06,-0.16l0 -1.43c0,-0.06 0.02,-0.11 0.06,-0.16 0.04,-0.05 0.1,-0.08 0.17,-0.08l5.94 0z"/>
   <path class="fil0" d="M152.08 32.88l1.7 0 -0.84 -2.86 -0.85 2.86zm1.91 -5.66c0.06,0 0.11,0.02 0.17,0.06 0.06,0.04 0.09,0.1 0.11,0.17l2.54 8.35c0,0.08 -0.03,0.13 -0.08,0.17 -0.05,0.04 -0.11,0.06 -0.16,0.06l-1.64 0c-0.14,0 -0.23,-0.08 -0.27,-0.22l-0.29 -0.97 -2.87 0 -0.28 0.97c-0.04,0.15 -0.13,0.22 -0.27,0.22l-1.64 0c-0.06,0 -0.11,-0.02 -0.16,-0.06 -0.05,-0.04 -0.08,-0.1 -0.08,-0.17l2.54 -8.35c0.02,-0.08 0.06,-0.13 0.11,-0.17 0.06,-0.04 0.11,-0.06 0.17,-0.06l2.1 0z"/>
   <path class="fil0" d="M158.2 36.05c-0.06,0 -0.11,-0.02 -0.16,-0.06 -0.05,-0.04 -0.08,-0.1 -0.08,-0.17l0 -8.34c0,-0.07 0.03,-0.13 0.08,-0.17 0.05,-0.04 0.11,-0.06 0.16,-0.06l1.74 0c0.06,0 0.11,0.02 0.16,0.06 0.05,0.04 0.08,0.1 0.08,0.17l0 6.67 3.18 0c0.07,0 0.13,0.03 0.17,0.08 0.04,0.05 0.06,0.1 0.06,0.16l0 1.43c0,0.06 -0.02,0.11 -0.06,0.16 -0.04,0.05 -0.1,0.08 -0.17,0.08l-5.16 0 0 0z"/>
   <path class="fil0" d="M168.24 36.16c-0.42,0 -0.79,-0.04 -1.11,-0.13 -0.32,-0.08 -0.6,-0.19 -0.84,-0.33 -0.24,-0.13 -0.44,-0.29 -0.6,-0.46 -0.16,-0.17 -0.3,-0.35 -0.4,-0.54 -0.26,-0.42 -0.41,-0.9 -0.45,-1.44l0 -5.8c0,-0.08 0.03,-0.13 0.08,-0.17 0.05,-0.04 0.11,-0.06 0.16,-0.06l1.74 0c0.06,0 0.11,0.02 0.16,0.06 0.05,0.04 0.08,0.1 0.08,0.17l0 5.48c0,0.26 0.05,0.47 0.14,0.62 0.09,0.15 0.2,0.27 0.33,0.34 0.13,0.08 0.26,0.12 0.39,0.15 0.14,0.02 0.25,0.04 0.33,0.04 0.08,0 0.19,-0.01 0.33,-0.04 0.14,-0.02 0.27,-0.07 0.39,-0.15 0.13,-0.08 0.24,-0.19 0.33,-0.34 0.09,-0.16 0.14,-0.36 0.14,-0.62l0 -5.48c0,-0.08 0.03,-0.13 0.08,-0.17 0.05,-0.04 0.11,-0.06 0.16,-0.06l1.74 0c0.06,0 0.11,0.02 0.16,0.06 0.05,0.04 0.08,0.1 0.08,0.17l0 5.8c-0.04,0.54 -0.18,1.02 -0.43,1.44 -0.13,0.26 -0.28,0.47 -0.44,0.62 -0.16,0.15 -0.36,0.29 -0.59,0.41 -0.23,0.13 -0.51,0.23 -0.83,0.31 -0.32,0.08 -0.69,0.12 -1.11,0.12z"/>
   <path class="fil0" d="M176.08 32.15c0.08,0 0.19,-0.01 0.32,-0.03 0.13,-0.02 0.26,-0.07 0.39,-0.15 0.13,-0.08 0.23,-0.2 0.32,-0.35 0.09,-0.15 0.13,-0.36 0.13,-0.62l0 -0.67c0,-0.26 -0.04,-0.47 -0.13,-0.62 -0.09,-0.15 -0.2,-0.26 -0.32,-0.34 -0.13,-0.08 -0.26,-0.13 -0.39,-0.15 -0.13,-0.02 -0.24,-0.03 -0.32,-0.03l-0.7 0 0 2.96 0.7 0zm3.42 3.66c0,0.08 -0.03,0.13 -0.08,0.17 -0.05,0.04 -0.11,0.06 -0.16,0.06l-1.63 0c-0.11,0 -0.21,-0.07 -0.28,-0.22l-0.83 -1.72c-0.08,0.01 -0.15,0.02 -0.22,0.02 -0.08,0 -0.15,0.01 -0.22,0.01l-0.7 0 0 1.68c0,0.08 -0.03,0.13 -0.08,0.17 -0.05,0.04 -0.11,0.06 -0.16,0.06l-1.74 0c-0.06,0 -0.11,-0.02 -0.16,-0.06 -0.05,-0.04 -0.08,-0.1 -0.08,-0.17l0 -8.36c0,-0.07 0.03,-0.13 0.08,-0.18 0.05,-0.04 0.1,-0.06 0.16,-0.06l2.68 0c0.42,0 0.79,0.04 1.12,0.13 0.32,0.08 0.6,0.19 0.84,0.33 0.24,0.14 0.44,0.29 0.6,0.46 0.16,0.17 0.3,0.35 0.4,0.54 0.25,0.43 0.4,0.92 0.44,1.46l0 1.08c-0.01,0.26 -0.06,0.52 -0.14,0.79 -0.07,0.24 -0.18,0.49 -0.33,0.74 -0.14,0.25 -0.36,0.49 -0.64,0.7l1.14 2.37 0 0z"/>
   <path class="fil0" d="M185.08 32.47l-0.76 0c-0.07,0 -0.13,-0.03 -0.17,-0.08 -0.04,-0.05 -0.06,-0.1 -0.06,-0.16l0 -1.35c0,-0.06 0.02,-0.11 0.06,-0.16 0.04,-0.05 0.1,-0.08 0.17,-0.08l2.29 0c0.06,0 0.11,0.02 0.16,0.06 0.05,0.04 0.08,0.1 0.08,0.18l0 4.53c0,0.06 -0.02,0.1 -0.06,0.14 -0.04,0.04 -0.09,0.07 -0.13,0.08 -0.35,0.16 -0.75,0.29 -1.22,0.38 -0.47,0.09 -0.91,0.14 -1.33,0.14 -0.56,0 -1.04,-0.06 -1.44,-0.18 -0.4,-0.12 -0.73,-0.28 -1,-0.46 -0.27,-0.19 -0.49,-0.39 -0.64,-0.62 -0.16,-0.23 -0.28,-0.45 -0.36,-0.67 -0.08,-0.21 -0.14,-0.41 -0.16,-0.58 -0.02,-0.17 -0.03,-0.3 -0.03,-0.39l0 -3.25c0.04,-0.54 0.18,-1.03 0.43,-1.46 0.13,-0.25 0.27,-0.45 0.43,-0.6 0.15,-0.15 0.35,-0.29 0.59,-0.41 0.24,-0.13 0.52,-0.23 0.83,-0.31 0.32,-0.08 0.69,-0.12 1.11,-0.12 0.39,0 0.81,0.03 1.27,0.08 0.45,0.05 0.84,0.16 1.17,0.32 0.09,0.05 0.14,0.11 0.14,0.18 0,0.01 -0,0.04 -0.01,0.08 -0,0.04 -0.02,0.12 -0.03,0.25 -0.02,0.12 -0.05,0.29 -0.08,0.49 -0.04,0.21 -0.09,0.48 -0.15,0.81 -0.04,0.08 -0.1,0.13 -0.2,0.13 -0.27,-0.06 -0.55,-0.11 -0.83,-0.17 -0.28,-0.06 -0.55,-0.08 -0.81,-0.08 -0.18,0 -0.36,0.02 -0.55,0.06 -0.19,0.04 -0.37,0.11 -0.53,0.22 -0.16,0.1 -0.29,0.24 -0.39,0.41 -0.1,0.17 -0.15,0.38 -0.15,0.64l0 2.16c0,0.25 0.04,0.47 0.11,0.65 0.07,0.18 0.17,0.33 0.3,0.44 0.13,0.11 0.27,0.19 0.44,0.24 0.17,0.05 0.34,0.08 0.52,0.08 0.35,0 0.69,-0.05 1.02,-0.15l0 -1.46z"/>
   <path class="fil0" d="M188.36 27.45c0,-0.08 0.03,-0.13 0.08,-0.18 0.05,-0.04 0.1,-0.06 0.16,-0.06l1.74 0c0.06,0 0.11,0.02 0.16,0.06 0.05,0.04 0.08,0.1 0.08,0.18l0 8.36c0,0.08 -0.03,0.13 -0.08,0.17 -0.05,0.04 -0.1,0.06 -0.16,0.06l-1.74 0c-0.06,0 -0.11,-0.02 -0.16,-0.06 -0.05,-0.04 -0.08,-0.1 -0.08,-0.17l0 -8.36z"/>
   <path class="fil0" d="M197.85 35.74c-0.33,0.15 -0.71,0.26 -1.15,0.32 -0.44,0.07 -0.84,0.1 -1.19,0.1 -0.42,0 -0.79,-0.04 -1.12,-0.13 -0.32,-0.08 -0.6,-0.19 -0.85,-0.33 -0.24,-0.14 -0.45,-0.29 -0.62,-0.46 -0.17,-0.17 -0.31,-0.35 -0.42,-0.54 -0.27,-0.42 -0.44,-0.9 -0.49,-1.44l0 -3.25c0.06,-0.54 0.22,-1.03 0.49,-1.46 0.14,-0.25 0.29,-0.45 0.45,-0.6 0.16,-0.15 0.36,-0.29 0.6,-0.41 0.24,-0.13 0.52,-0.23 0.84,-0.31 0.32,-0.08 0.69,-0.12 1.12,-0.12 0.39,0 0.8,0.03 1.22,0.09 0.42,0.06 0.79,0.17 1.12,0.33 0.09,0.05 0.14,0.11 0.14,0.18 0,0.01 -0,0.04 -0.01,0.08 -0,0.04 -0.02,0.12 -0.03,0.24 -0.02,0.12 -0.05,0.29 -0.08,0.49 -0.04,0.21 -0.09,0.48 -0.16,0.81 -0.04,0.08 -0.1,0.13 -0.2,0.13 -0.27,-0.06 -0.53,-0.12 -0.78,-0.18 -0.25,-0.07 -0.5,-0.1 -0.76,-0.1 -0.18,0 -0.37,0.02 -0.57,0.06 -0.2,0.04 -0.39,0.11 -0.56,0.22 -0.17,0.1 -0.32,0.24 -0.44,0.41 -0.12,0.17 -0.18,0.38 -0.18,0.64l0 2.24c0,0.26 0.06,0.48 0.18,0.64 0.12,0.17 0.26,0.3 0.44,0.41 0.17,0.1 0.36,0.17 0.56,0.22 0.2,0.04 0.39,0.06 0.57,0.06 0.19,0 0.41,-0.03 0.66,-0.08 0.25,-0.05 0.55,-0.12 0.88,-0.2 0.09,0 0.16,0.04 0.2,0.13 0.07,0.34 0.12,0.61 0.16,0.81 0.04,0.21 0.06,0.37 0.08,0.49 0.02,0.12 0.03,0.2 0.03,0.25 0,0.04 0.01,0.07 0.01,0.08 0,0.08 -0.05,0.13 -0.14,0.18l-0 0z"/>
   <path class="fil0" d="M201.95 32.88l1.7 0 -0.84 -2.86 -0.86 2.86 0 0zm1.91 -5.66c0.06,0 0.11,0.02 0.17,0.06 0.06,0.04 0.09,0.1 0.11,0.17l2.54 8.35c0,0.08 -0.03,0.13 -0.08,0.17 -0.05,0.04 -0.11,0.06 -0.16,0.06l-1.64 0c-0.14,0 -0.23,-0.08 -0.27,-0.22l-0.29 -0.97 -2.87 0 -0.28 0.97c-0.04,0.15 -0.13,0.22 -0.27,0.22l-1.64 0c-0.06,0 -0.11,-0.02 -0.16,-0.06 -0.05,-0.04 -0.08,-0.1 -0.08,-0.17l2.54 -8.35c0.02,-0.08 0.06,-0.13 0.11,-0.17 0.06,-0.04 0.11,-0.06 0.17,-0.06l2.1 0z"/>
   <path class="fil0" d="M73.85 58.67l5.51 0 -2.73 -9.3 -2.78 9.3zm6.2 -18.41c0.18,0 0.37,0.07 0.55,0.2 0.18,0.14 0.3,0.33 0.37,0.57l8.25 27.16c0,0.24 -0.08,0.43 -0.25,0.57 -0.17,0.14 -0.34,0.2 -0.52,0.2l-5.33 0c-0.46,0 -0.74,-0.24 -0.87,-0.73l-0.96 -3.14 -9.34 0 -0.91 3.14c-0.12,0.49 -0.41,0.73 -0.87,0.73l-5.33 0c-0.18,0 -0.36,-0.07 -0.52,-0.2 -0.17,-0.14 -0.25,-0.33 -0.25,-0.57l8.25 -27.16c0.06,-0.24 0.18,-0.43 0.36,-0.57 0.18,-0.14 0.36,-0.2 0.55,-0.2l6.84 0z"/>
   <path class="fil0" d="M92.87 68.97c-0.18,0 -0.36,-0.07 -0.52,-0.2 -0.17,-0.14 -0.25,-0.32 -0.25,-0.57l0 -27.12c0,-0.24 0.08,-0.43 0.25,-0.57 0.17,-0.14 0.34,-0.21 0.52,-0.21l5.65 0c0.18,0 0.36,0.07 0.52,0.21 0.17,0.14 0.25,0.33 0.25,0.57l0 21.69 10.35 0c0.24,0 0.43,0.08 0.57,0.25 0.14,0.17 0.21,0.34 0.21,0.52l0 4.66c0,0.18 -0.07,0.36 -0.21,0.52 -0.14,0.17 -0.33,0.25 -0.57,0.25l-16.77 0 -0 -0z"/>
   <path class="fil0" d="M122.52 62.77c0.3,0 0.68,-0.01 1.15,-0.05 0.47,-0.03 0.93,-0.14 1.38,-0.32 0.45,-0.18 0.83,-0.46 1.15,-0.83 0.32,-0.37 0.48,-0.87 0.48,-1.52 0,-0.64 -0.16,-1.14 -0.48,-1.49 -0.32,-0.35 -0.7,-0.62 -1.15,-0.8 -0.45,-0.18 -0.91,-0.3 -1.38,-0.34 -0.47,-0.05 -0.85,-0.07 -1.15,-0.07l-2.45 0 0 5.42 2.45 0 0 -0zm-0.4 -10.94c0.3,0 0.66,-0.02 1.08,-0.07 0.42,-0.05 0.81,-0.16 1.18,-0.34 0.37,-0.18 0.68,-0.46 0.95,-0.84 0.27,-0.38 0.4,-0.89 0.4,-1.53 0,-0.64 -0.13,-1.14 -0.4,-1.5 -0.27,-0.36 -0.58,-0.63 -0.95,-0.8 -0.37,-0.17 -0.76,-0.27 -1.18,-0.32 -0.42,-0.04 -0.78,-0.07 -1.08,-0.07l-2.05 0 0 5.47 2.05 0 0 0zm-9.11 17.14c-0.2,0 -0.39,-0.07 -0.58,-0.2 -0.18,-0.14 -0.28,-0.33 -0.28,-0.57l0 -27.16c0,-0.24 0.09,-0.43 0.28,-0.57 0.18,-0.14 0.38,-0.21 0.58,-0.21l9.56 0c1.37,0 2.72,0.12 4.06,0.36 1.33,0.24 2.52,0.66 3.55,1.25 1.03,0.59 1.87,1.41 2.5,2.44 0.63,1.03 0.95,2.32 0.95,3.87 0,0.55 -0.04,1.16 -0.13,1.82 -0.08,0.67 -0.29,1.32 -0.6,1.96 -0.32,0.64 -0.79,1.21 -1.4,1.71 -0.62,0.5 -1.48,0.84 -2.58,1.03 1.4,0.18 2.48,0.56 3.23,1.14 0.75,0.58 1.31,1.19 1.68,1.85 0.37,0.65 0.58,1.28 0.65,1.87 0.07,0.59 0.1,1 0.1,1.21 0,0.55 -0.06,1.28 -0.18,2.21 -0.12,0.93 -0.54,1.84 -1.28,2.73 -0.73,0.9 -1.88,1.66 -3.43,2.3 -1.55,0.64 -3.76,0.96 -6.63,0.96l-10.06 0 0 0z"/>
   <path class="fil0" d="M145.95 58.67l5.51 0 -2.73 -9.3 -2.78 9.3zm6.2 -18.41c0.18,0 0.36,0.07 0.55,0.2 0.18,0.14 0.3,0.33 0.36,0.57l8.25 27.16c0,0.24 -0.08,0.43 -0.25,0.57 -0.17,0.14 -0.34,0.2 -0.52,0.2l-5.33 0c-0.45,0 -0.74,-0.24 -0.87,-0.73l-0.96 -3.14 -9.34 0 -0.91 3.14c-0.12,0.49 -0.41,0.73 -0.87,0.73l-5.33 0c-0.18,0 -0.36,-0.07 -0.52,-0.2 -0.17,-0.14 -0.25,-0.33 -0.25,-0.57l8.25 -27.16c0.06,-0.24 0.18,-0.43 0.36,-0.57 0.18,-0.14 0.36,-0.2 0.55,-0.2l6.84 0z"/>
   <path class="fil0" d="M183.77 67.96c-1.14,0.49 -2.47,0.84 -4,1.05 -1.53,0.21 -2.91,0.32 -4.14,0.32 -1.46,0 -2.75,-0.14 -3.87,-0.41 -1.12,-0.27 -2.1,-0.63 -2.95,-1.07 -0.85,-0.44 -1.56,-0.94 -2.14,-1.5 -0.58,-0.56 -1.07,-1.15 -1.46,-1.76 -0.94,-1.37 -1.51,-2.93 -1.71,-4.69l0 -10.57c0.2,-1.76 0.76,-3.34 1.71,-4.74 0.49,-0.82 1.01,-1.47 1.56,-1.96 0.55,-0.49 1.24,-0.93 2.07,-1.34 0.83,-0.41 1.8,-0.74 2.92,-1 1.12,-0.26 2.41,-0.39 3.87,-0.39 1.36,0 2.78,0.1 4.24,0.3 1.46,0.2 2.76,0.55 3.9,1.07 0.32,0.15 0.49,0.35 0.49,0.59 0,0.03 -0.01,0.11 -0.02,0.25 -0.02,0.14 -0.06,0.4 -0.12,0.8 -0.07,0.4 -0.16,0.93 -0.29,1.6 -0.13,0.67 -0.31,1.55 -0.54,2.64 -0.13,0.27 -0.36,0.41 -0.68,0.41 -0.94,-0.18 -1.84,-0.38 -2.7,-0.59 -0.86,-0.21 -1.75,-0.32 -2.66,-0.32 -0.62,0 -1.28,0.07 -1.97,0.21 -0.7,0.14 -1.35,0.37 -1.95,0.71 -0.6,0.34 -1.1,0.78 -1.51,1.32 -0.41,0.55 -0.61,1.25 -0.61,2.1l0 7.29c0,0.85 0.2,1.55 0.61,2.1 0.41,0.55 0.91,0.99 1.51,1.32 0.6,0.33 1.25,0.57 1.95,0.71 0.7,0.14 1.36,0.2 1.97,0.2 0.65,0 1.41,-0.08 2.29,-0.25 0.88,-0.17 1.9,-0.39 3.07,-0.66 0.32,0 0.55,0.14 0.68,0.41 0.23,1.09 0.41,1.98 0.54,2.64 0.13,0.67 0.23,1.2 0.29,1.6 0.07,0.39 0.1,0.66 0.12,0.8 0.02,0.14 0.02,0.22 0.02,0.25 0,0.24 -0.16,0.44 -0.49,0.59l0 -0z"/>
   <path class="fil0" d="M188.05 41.07c0,-0.24 0.09,-0.43 0.26,-0.57 0.17,-0.14 0.36,-0.21 0.54,-0.21l17.39 0c0.25,0 0.45,0.08 0.59,0.25 0.14,0.17 0.21,0.34 0.21,0.52l0 4.66c0,0.18 -0.07,0.35 -0.21,0.52 -0.14,0.17 -0.34,0.25 -0.59,0.25l-10.72 0 0 5.24 8.65 0c0.25,0 0.45,0.08 0.59,0.25 0.14,0.17 0.21,0.34 0.21,0.52l0 4.51c0,0.18 -0.07,0.36 -0.21,0.52 -0.14,0.17 -0.34,0.25 -0.59,0.25l-8.65 0 0 4.97 10.72 0c0.25,0 0.45,0.08 0.59,0.25 0.14,0.17 0.21,0.34 0.21,0.52l0 4.66c0,0.18 -0.07,0.36 -0.21,0.52 -0.14,0.17 -0.34,0.25 -0.59,0.25l-17.39 0c-0.19,0 -0.37,-0.07 -0.54,-0.2 -0.17,-0.14 -0.26,-0.33 -0.26,-0.57l0 -27.12 0 -0z"/>
   <polygon class="fil0" points="66.03,34.84 33.12,1.92 15.11,19.64 29.58,34.04 33.03,30.41 51.65,49.14 "/>
   <polygon class="fil0" points="-0,33.28 33.09,66.43 51.01,48.52 36.68,34.04 33.18,37.71 14.34,18.89 "/>
   <polygon class="fil0" points="50.04,49.5 36.72,34.04 51.1,48.48 "/>
   <polygon class="fil0" points="16.12,18.67 29.53,34.08 15.06,19.69 "/>
   <path class="fil0" d="M93.75 28.58c-0.18,-0.62 -0.65,-1.26 -0.95,-1.84 -0.32,-0.63 -0.62,-1.27 -0.91,-1.92 -0.16,-0.35 -0.31,-0.71 -0.3,-1.09 0.03,-0.9 0.97,-1.52 1.51,-2.14 1.27,-1.44 2.55,-2.88 3.82,-4.33 0.02,-0.02 0.03,-0.04 0.05,-0.06 0.45,-0.51 0.88,-1.05 1.35,-1.52 -0.39,0.75 -0.36,1.9 -0.36,2.73 0.01,0.99 0.15,1.98 0.4,2.93 0.52,1.91 1.51,3.7 2.92,5.09 2.77,2.75 7.03,3.91 10.81,2.93 3.78,-0.98 6.95,-4.05 8.04,-7.8 1.09,-3.75 0.07,-8.04 -2.6,-10.89 -2.48,-2.65 -6.32,-3.99 -9.88,-3.29 -4.72,0.93 -7.63,4.82 -10.65,8.18 -0.72,0.81 -1.45,1.62 -2.18,2.42l-4.59 5.11c-1.22,1.36 -2.45,2.73 -3.67,4.09 -0.4,0.44 -0.85,0.88 -1.2,1.35 1.4,-0.05 2.8,-0.04 4.21,-0.02 0.7,0.01 1.41,0.03 2.11,0.04 0.64,0.01 1.43,0.15 2.05,0l0 0zm3.06 8.19c-2.62,0 -5.25,-0.05 -7.87,-0.06 -3.81,-0 -7.61,-0.05 -11.42,-0.06 -1.4,-0 -2.8,-0 -4.21,-0 -0.39,-0 -0.85,0.07 -1.23,-0 -0.43,-0.08 -0.4,-0.15 -0.43,-0.68 -0.06,-0.91 -0.08,-1.83 0.05,-2.74 0.36,-2.47 2.35,-4.04 3.96,-5.77 1.03,-1.11 2.07,-2.22 3.1,-3.32 1.07,-1.07 2.07,-2.23 3.09,-3.35 4.1,-4.44 8.41,-8.7 12.37,-13.28 0.95,-1.09 1.8,-2.17 2.94,-3.11 1.14,-0.93 2.39,-1.74 3.71,-2.4 2.61,-1.3 5.52,-2.02 8.44,-2 3.39,0.02 6.75,1.02 9.64,2.77 5.22,3.15 8.54,8.65 8.83,14.77 0.14,2.94 -0.4,5.93 -1.63,8.61 -2.38,5.2 -7.3,9.17 -12.89,10.4 -2.27,0.5 -4.63,0.54 -6.92,0.17 -2.94,-0.48 -5.76,-1.65 -8.15,-3.42 -0.13,-0.09 -0.75,-0.73 -0.88,-0.69 -0.18,0.05 -0.07,0.32 -0.08,0.46 -0.03,0.47 0.08,0.95 0.08,1.42l0 2.27 -0.52 0 -0 0z"/>
   <path class="fil0" d="M94.24 5.12c-0.01,0.06 -0.05,0.12 -0.12,0.21 -0.08,0.1 -0.18,0.19 -0.27,0.29 -0.27,0.29 -0.55,0.59 -0.82,0.88 -0.77,0.83 -1.54,1.66 -2.31,2.49 -0.89,0.95 -1.78,1.91 -2.66,2.86 -0.22,0.23 -0.44,0.47 -0.65,0.7 -0.19,0.2 -0.36,0.5 -0.47,0.16 -0.08,-0.23 0.06,-0.7 0.07,-0.95 0.01,-0.34 0,-0.68 -0.04,-1.02 -0.09,-0.75 -0.37,-1.49 -0.91,-2.02 -0.56,-0.54 -1.39,-0.82 -2.17,-0.79 -0.85,0.04 -1.56,0.03 -2.3,0.55 -0.64,0.45 -1.12,1.1 -1.53,1.77 -0.56,0.91 -0.95,2 -2.01,2.43 -0.99,0.4 -2.1,0.11 -3.11,-0.07 -1.18,-0.21 -2.35,-0.42 -3.53,-0.62 -0.12,-0.02 -0.23,-0.04 -0.35,-0.06 0,0 -0.14,-0.05 -0.14,-0.05 -0.14,-0.04 0.37,-1.96 0.42,-2.15 0.2,-0.76 0.47,-1.5 0.8,-2.21 0.72,-1.58 1.72,-3.07 3.04,-4.2 1.45,-1.24 3.27,-1.97 5.1,-2.41 3.01,-0.73 6.47,-0.7 9.35,0.55 1.69,0.73 3.21,1.85 4.41,3.25 0.16,0.18 0.25,0.28 0.22,0.4l0 -0z"/>
   <path class="fil0" d="M77.62 33.65l1.02 -0.01 -0.52 -1.72 -0.5 1.73zm1.13 -3.42c0.03,0 0.07,0.01 0.1,0.04 0.03,0.03 0.06,0.06 0.07,0.11l1.56 5.03c0,0.04 -0.01,0.08 -0.04,0.11 -0.03,0.03 -0.06,0.04 -0.1,0.04l-0.99 0.01c-0.08,0 -0.14,-0.04 -0.16,-0.13l-0.18 -0.58 -1.73 0.01 -0.16 0.58c-0.02,0.09 -0.08,0.14 -0.16,0.14l-0.99 0.01c-0.03,0 -0.07,-0.01 -0.1,-0.04 -0.03,-0.03 -0.05,-0.06 -0.05,-0.11l1.5 -5.05c0.01,-0.05 0.03,-0.08 0.07,-0.11 0.03,-0.03 0.07,-0.04 0.1,-0.04l1.27 -0.01 0 -0z"/>
   <path class="fil0" d="M83.54 29.81c-0.08,0 -0.15,-0.01 -0.23,-0.04 -0.07,-0.02 -0.14,-0.05 -0.22,-0.09 -0.08,-0.04 -0.16,-0.07 -0.24,-0.11 -0.08,-0.03 -0.17,-0.05 -0.26,-0.05 -0.04,0 -0.1,0.01 -0.17,0.03 -0.07,0.02 -0.14,0.04 -0.19,0.07 -0.01,0.01 -0.03,0.01 -0.06,0.01 -0.07,0 -0.12,-0.03 -0.14,-0.09 -0.05,-0.15 -0.08,-0.26 -0.1,-0.34 -0.02,-0.08 -0.04,-0.14 -0.05,-0.19 -0.01,-0.04 -0.02,-0.07 -0.02,-0.08 -0,-0.01 -0,-0.02 -0,-0.02 -0,-0.06 0.03,-0.11 0.09,-0.16 0.11,-0.07 0.21,-0.13 0.32,-0.17 0.11,-0.05 0.21,-0.07 0.32,-0.07 0.08,0 0.16,0.01 0.24,0.04 0.08,0.03 0.15,0.06 0.23,0.1 0.07,0.03 0.15,0.07 0.23,0.1 0.08,0.03 0.16,0.04 0.24,0.04 0.04,0 0.1,-0.01 0.17,-0.03 0.07,-0.02 0.13,-0.04 0.19,-0.07 0.01,-0.01 0.03,-0.01 0.06,-0.01 0.07,-0 0.12,0.03 0.14,0.09 0.05,0.15 0.08,0.26 0.1,0.34 0.02,0.08 0.04,0.14 0.05,0.19 0.01,0.04 0.02,0.07 0.02,0.08 0,0.01 0,0.02 0,0.02 0,0.06 -0.03,0.11 -0.09,0.16 -0.11,0.07 -0.21,0.13 -0.32,0.17 -0.11,0.05 -0.21,0.07 -0.32,0.07l-0 0zm-1.11 2.88l0.02 2.69c0,0.04 -0.01,0.08 -0.04,0.11 -0.03,0.03 -0.06,0.04 -0.1,0.04l-1.05 0.01c-0.03,0 -0.07,-0.01 -0.1,-0.04 -0.03,-0.03 -0.05,-0.06 -0.05,-0.11l-0.04 -5.04c-0,-0.04 0.01,-0.08 0.05,-0.11 0.03,-0.03 0.06,-0.04 0.1,-0.04l1.08 -0.01c0.08,0 0.14,0.05 0.19,0.14l1.5 2.68 -0.02 -2.69c-0,-0.04 0.01,-0.08 0.05,-0.11 0.03,-0.03 0.06,-0.04 0.1,-0.04l1.05 -0.01c0.03,0 0.07,0.01 0.1,0.04 0.03,0.03 0.05,0.06 0.05,0.11l0.03 5.04c0,0.05 -0.01,0.08 -0.04,0.11 -0.03,0.03 -0.06,0.04 -0.1,0.04l-1.08 0.01c-0.07,0 -0.14,-0.05 -0.19,-0.14l-1.5 -2.68 0 0z"/>
   <path class="fil0" d="M88.19 34.3c0.05,-0 0.12,-0.01 0.2,-0.02 0.08,-0.01 0.16,-0.04 0.23,-0.09 0.08,-0.05 0.14,-0.12 0.19,-0.21 0.05,-0.09 0.08,-0.22 0.08,-0.38l-0.01 -1.57c-0,-0.16 -0.03,-0.28 -0.08,-0.38 -0.05,-0.09 -0.12,-0.16 -0.2,-0.21 -0.08,-0.04 -0.15,-0.07 -0.23,-0.09 -0.08,-0.01 -0.14,-0.02 -0.2,-0.02 -0.05,0 -0.12,0.01 -0.19,0.02 -0.08,0.01 -0.16,0.04 -0.23,0.09 -0.08,0.05 -0.14,0.12 -0.19,0.21 -0.05,0.09 -0.08,0.22 -0.08,0.38l0.01 1.57c0,0.16 0.03,0.28 0.08,0.37 0.05,0.09 0.12,0.16 0.2,0.21 0.08,0.04 0.15,0.07 0.23,0.09 0.08,0.01 0.14,0.02 0.19,0.02l0 0zm-0.03 -4.21c0.25,-0 0.48,0.02 0.67,0.07 0.19,0.05 0.36,0.12 0.5,0.2 0.14,0.08 0.26,0.17 0.36,0.28 0.1,0.1 0.18,0.21 0.25,0.32 0.15,0.26 0.24,0.55 0.26,0.88l0.01 1.96c-0.02,0.33 -0.1,0.62 -0.25,0.87 -0.08,0.16 -0.16,0.28 -0.26,0.37 -0.1,0.09 -0.21,0.17 -0.35,0.25 -0.14,0.08 -0.31,0.14 -0.5,0.19 -0.19,0.05 -0.41,0.07 -0.67,0.08 -0.25,0 -0.48,-0.02 -0.67,-0.07 -0.19,-0.05 -0.36,-0.11 -0.5,-0.19 -0.14,-0.08 -0.26,-0.17 -0.36,-0.28 -0.1,-0.1 -0.18,-0.21 -0.24,-0.32 -0.15,-0.25 -0.24,-0.54 -0.27,-0.87l-0.01 -1.96c0.02,-0.33 0.11,-0.62 0.26,-0.88 0.07,-0.15 0.16,-0.28 0.25,-0.37 0.1,-0.09 0.21,-0.17 0.35,-0.25 0.14,-0.08 0.3,-0.14 0.5,-0.19 0.19,-0.05 0.41,-0.07 0.67,-0.08l-0 -0z"/>
   <path class="fil0" d="M94.39 30.39c0.04,0.02 0.07,0.05 0.07,0.11 0,0.02 -0,0.03 -0.01,0.05 -0,0.02 -0.01,0.04 -0.02,0.05l-0.31 0.78c-0.01,0.02 -0.03,0.04 -0.04,0.06 -0.02,0.01 -0.04,0.02 -0.07,0.02 -0.01,0 -0.03,-0 -0.05,-0.01 -0.02,-0 -0.04,-0.01 -0.05,-0.02 -0.13,-0.04 -0.28,-0.07 -0.46,-0.09 -0.17,-0.02 -0.35,-0.04 -0.53,-0.03 -0.2,0 -0.36,0.03 -0.48,0.08 -0.12,0.05 -0.18,0.14 -0.18,0.28 0,0.11 0.07,0.19 0.2,0.26 0.13,0.07 0.29,0.12 0.49,0.18 0.19,0.06 0.4,0.12 0.63,0.19 0.23,0.07 0.44,0.17 0.63,0.3 0.2,0.13 0.36,0.3 0.49,0.5 0.13,0.21 0.2,0.48 0.2,0.8 0,0.08 -0.02,0.21 -0.05,0.39 -0.03,0.18 -0.12,0.36 -0.25,0.54 -0.14,0.18 -0.34,0.35 -0.61,0.49 -0.27,0.14 -0.64,0.21 -1.12,0.22 -0.23,-0.01 -0.45,-0.04 -0.68,-0.08 -0.2,-0.04 -0.41,-0.1 -0.62,-0.17 -0.21,-0.08 -0.4,-0.19 -0.57,-0.33 -0.05,-0.04 -0.08,-0.09 -0.08,-0.13 0,-0.03 0.01,-0.06 0.03,-0.08l0.42 -0.8c0.03,-0.05 0.07,-0.08 0.14,-0.08 0.03,0 0.05,0.01 0.08,0.02 0.21,0.14 0.43,0.24 0.67,0.3 0.24,0.06 0.46,0.09 0.65,0.09 0.15,-0 0.27,-0.01 0.36,-0.04 0.09,-0.02 0.15,-0.05 0.2,-0.09 0.05,-0.03 0.08,-0.07 0.09,-0.11 0.01,-0.04 0.02,-0.08 0.02,-0.12 -0,-0.12 -0.07,-0.22 -0.2,-0.3 -0.13,-0.08 -0.29,-0.15 -0.49,-0.21 -0.2,-0.07 -0.41,-0.14 -0.63,-0.21 -0.23,-0.07 -0.44,-0.17 -0.63,-0.3 -0.19,-0.12 -0.36,-0.28 -0.49,-0.47 -0.13,-0.19 -0.2,-0.43 -0.2,-0.73 -0,-0.28 0.04,-0.53 0.14,-0.73 0.1,-0.21 0.23,-0.38 0.41,-0.51 0.17,-0.13 0.38,-0.23 0.61,-0.29 0.23,-0.06 0.48,-0.1 0.74,-0.1 0.16,-0 0.3,0 0.43,0.01 0.13,0.01 0.26,0.03 0.38,0.05 0.12,0.02 0.24,0.06 0.36,0.1 0.12,0.04 0.25,0.1 0.39,0.17l-0 -0z"/>
  </g>
 </g>
</svg>
