<?xml version="1.0" encoding="UTF-8"?>
<!DOCTYPE svg PUBLIC "-//W3C//DTD SVG 1.1//EN" "http://www.w3.org/Graphics/SVG/1.1/DTD/svg11.dtd">
<!-- Creator: CorelDRAW 2021 (64-Bit) -->
<svg xmlns="http://www.w3.org/2000/svg" xml:space="preserve" width="23.8282mm" height="9.6896mm" version="1.1" style="shape-rendering:geometricPrecision; text-rendering:geometricPrecision; image-rendering:optimizeQuality; fill-rule:evenodd; clip-rule:evenodd"
viewBox="0 0 140.63 57.18"
 xmlns:xlink="http://www.w3.org/1999/xlink"
 xmlns:xodm="http://www.corel.com/coreldraw/odm/2003">
 <defs>
  <style type="text/css">
   <![CDATA[
    .fil0 {fill:white}
   ]]>
  </style>
 </defs>
 <g id="Capa_x0020_1">
  <metadata id="CorelCorpID_0Corel-Layer"/>
  <g id="_2937082793616">
   <path class="fil0" d="M107.07 18.61c1.22,-0.32 2.67,-0.18 3.95,-0.12 5.68,0.27 5.08,7.48 -0.24,7.77 -0.95,0.05 -3.16,0.34 -3.68,-0.23 -0.44,-0.49 -0.29,-6.68 -0.03,-7.41zm-11.75 -7.35c0,3.85 -0.29,34.23 0.34,38.25 15.03,1.5 10.53,-5.6 11.34,-14.45 0.86,0.55 5.62,7.32 6.25,8.19 1.73,2.39 4.12,6.75 8.11,6.39 3.65,-0.32 6.8,-4.45 4.71,-8.37 -0.79,-1.48 -2.04,-3 -2.89,-4.26 -0.72,-1.07 -2.8,-3.3 -3.08,-4.34 1.77,-2.04 3.58,-2.88 4.6,-6.24 1.69,-5.57 -0.3,-12.46 -5.05,-15.44 -3.07,-1.92 -6.36,-1.66 -10.35,-1.67 -2.62,-0 -5.25,0.04 -7.88,0.05 -6.35,0.01 -6.09,-0.61 -6.09,1.88z"/>
   <path class="fil0" d="M13.97 14.42c-0.71,-0.85 -1.45,-1.33 -2.11,-2.41 -2.47,-1.7 -4.88,-2.84 -8.39,-0.95 -2.59,1.39 -3.78,4.08 -3.41,8.13 0.55,0.41 1.09,3.99 5.42,5.03 1.62,0.39 3.52,-0.53 4.87,0.09 0.94,0.43 1.84,2.11 1.91,3.37l0.05 2.18c3.76,0.53 5.78,1.22 7.11,4.29 0.66,1.53 0.69,3.32 0.25,4.93 -0.6,2.2 -1.39,2.26 -2.16,3.51 0.61,0.23 0.69,1.03 2.66,2.41 1.25,0.88 2.02,1.46 3.28,2.13 2.38,1.26 5.18,2.27 8.31,2.51 3.37,0.26 6.74,-0.29 9.41,-1.41 2.32,-0.97 3.94,-1.98 5.08,-4.22l0.57 -1.06c-0.31,-7.63 -6.03,-7.79 -8.69,-6.1 -1.69,1.07 -2.88,2.18 -6.12,1.5 -2.33,-0.49 -4.11,-1.2 -5.42,-2.72 -3.42,-3.98 -3.51,-10.47 0.48,-14.27 1.87,-1.78 6.32,-2.79 9.62,-1.46 3.38,1.36 6.06,2.56 8.81,-0.81 0.72,-0.88 1.17,-1.47 1.28,-2.92 0.61,-8.2 -14.2,-10.46 -22.41,-6.37 -5.7,2.84 -7.37,7.34 -10.39,4.64l0 -0z"/>
   <path class="fil0" d="M75.48 22.59c0,-4 -0.85,-4.55 3.47,-4.17 6.74,0.6 5.03,6.77 1.44,7.73 -0.65,0.17 -3.21,0.27 -3.88,0.18 -1.49,-0.21 -1.03,-1.45 -1.03,-3.74zm-11.36 26.73c3.47,0.45 8.5,0.41 10.25,-1.57 2.28,-2.58 0.13,-8.26 1.31,-11l2.09 -0.26c5.28,0.05 8.43,0.3 12.48,-3.88 6.86,-7.08 4.03,-22.43 -7.29,-22.82l-18.87 0.09c-0.37,1.95 -0.17,16.48 -0.15,19.6 0.04,6.44 -0.32,13.49 0.19,19.84l-0 0z"/>
   <path class="fil0" d="M140.23 9.86c-3.03,-0.71 -9.26,-0.45 -10.81,1.85 -1.5,2.22 -0.82,8.87 -0.84,12.11 -0.02,3.07 -0.63,24.81 0.43,25.54 0.61,0.42 5.07,0.19 6.13,0.16 7.02,-0.16 5.3,-8.1 5.3,-13.88 0,-4.35 0.04,-8.7 0.05,-13.05 0.01,-2.9 0.36,-10.52 -0.26,-12.73z"/>
   <path class="fil0" d="M49.92 22.34l0.08 26.94c2.42,0.46 8.19,0.31 9.71,-0.71 2.71,-1.81 2.08,-6.13 2.08,-10.24 0,-7.57 0.26,-21.22 -0.11,-28.47 -1.25,-0.38 -4.36,-0.2 -5.83,-0.18 -7.59,0.07 -5.94,5.52 -5.94,12.65l-0 0z"/>
   <path class="fil0" d="M8.62 31.23c-0.31,0.61 -1.1,1.47 -1.73,1.76 -0.48,2.19 -1.22,2.02 -0.99,5.23 0.6,1.23 0.94,3.6 3.83,5.14 3.35,1.79 7.28,-0.66 7.77,-0.77 0.78,-1.24 1.56,-1.31 2.16,-3.51 0.44,-1.62 0.41,-3.41 -0.25,-4.93 -1.33,-3.07 -3.35,-3.76 -7.11,-4.29 -0.65,0.24 -1.25,0.28 -2.02,0.58 -0.76,0.29 -0.88,0.51 -1.67,0.79l0 0z"/>
   <path class="fil0" d="M11.87 12.01c0.65,1.08 1.4,1.56 2.11,2.41 0.16,-1.29 1.76,-2.59 2.71,-3.44 3.24,-2.92 7.74,-5.53 12.39,-6.32 5.61,-0.96 10.97,-0.36 15.94,1.94 2.71,1.25 1.46,1.2 5.24,1.25 -1.01,-1.46 -0.67,-0.46 -0.49,-1.05 0.01,-0.04 0.06,-0.12 0.07,-0.16l0.19 -0.36c-1.31,-0.61 -2.77,-1.63 -4.26,-2.41 -9.36,-4.86 -22.38,-2.81 -30.46,4.75 -0.74,0.69 -2.67,3.2 -3.44,3.39l0 0z"/>
   <path class="fil0" d="M49.51 51.44l-2.17 1.28c-5.86,3.13 -12.66,4.17 -19.35,2.72 -5.5,-1.19 -14.22,-6.2 -15.74,-10.58l2.23 0.15 2.99 -1.3c2.63,1.95 2.55,2.56 6.47,4.66 8.84,4.74 22.51,1.87 22.88,-5.43l-0.57 1.06c-1.15,2.25 -2.76,3.25 -5.08,4.22 -2.67,1.12 -6.03,1.67 -9.41,1.41 -3.13,-0.24 -5.93,-1.24 -8.31,-2.51 -1.26,-0.67 -2.03,-1.25 -3.28,-2.13 -1.97,-1.39 -2.05,-2.18 -2.66,-2.41 -0.49,0.1 -4.42,2.55 -7.77,0.77 -2.89,-1.54 -3.23,-3.91 -3.83,-5.14 0.41,2.72 1.35,4.47 3.07,5.65 3.28,2.25 0.31,-1.1 4.54,4.07 1.03,1.25 3.24,3.14 4.53,4.08 5.67,4.13 12.92,5.93 20.16,4.85 6.46,-0.96 7.92,-2.64 12.24,-5.12l-0.95 -0.33 -0 0z"/>
   <path class="fil0" d="M49.51 51.44c0.55,-0.49 0.33,-0.22 0.69,-0.77 -2.9,-0.29 -3.07,0.06 -5.08,1.08 -4.32,2.19 -10.23,3.06 -15.21,2.2 -5.5,-0.95 -13.25,-4.92 -15.44,-8.93l-2.23 -0.15c1.52,4.38 10.24,9.39 15.74,10.58 6.69,1.45 13.5,0.41 19.35,-2.72l2.17 -1.28 0 0z"/>
   <path class="fil0" d="M6.89 32.99c0.63,-0.29 1.42,-1.15 1.73,-1.76 -0.05,-1.58 -0.71,-8.43 2.48,-5.48 0.78,0.72 0.67,1 1.15,1.94 -0.07,-1.26 -0.98,-2.94 -1.91,-3.37 -1.35,-0.62 -3.25,0.3 -4.87,-0.09 -4.32,-1.04 -4.87,-4.62 -5.42,-5.03 0.45,1.9 0.98,2.99 2.14,4.13 1.85,1.82 3.59,1.62 4.53,2.22 -0.14,2.47 -0.28,5.06 0.16,7.45l-0 0z"/>
   <path class="fil0" d="M57.5 2.26c1.14,0.15 1.34,-1.09 1.5,-2.26 -1.3,0.1 -1.81,0.86 -1.5,2.26z"/>
  </g>
 </g>
</svg>
