<?xml version="1.0" encoding="UTF-8"?>
<!DOCTYPE svg PUBLIC "-//W3C//DTD SVG 1.1//EN" "http://www.w3.org/Graphics/SVG/1.1/DTD/svg11.dtd">
<!-- Creator: CorelDRAW 2021 (64-Bit) -->
<svg xmlns="http://www.w3.org/2000/svg" xml:space="preserve" width="10.1111mm" height="14.5377mm" version="1.1" style="shape-rendering:geometricPrecision; text-rendering:geometricPrecision; image-rendering:optimizeQuality; fill-rule:evenodd; clip-rule:evenodd"
viewBox="0 0 16.25 23.36"
 xmlns:xlink="http://www.w3.org/1999/xlink"
 xmlns:xodm="http://www.corel.com/coreldraw/odm/2003">
 <defs>
  <style type="text/css">
   <![CDATA[
    .fil0 {fill:white}
   ]]>
  </style>
 </defs>
 <g id="Capa_x0020_1">
  <metadata id="CorelCorpID_0Corel-Layer"/>
  <g id="_2937085200000">
   <path class="fil0" d="M5.53 11.46l0.64 0.01c-0.06,0.29 -0.43,0.26 -0.64,0.16l0 -0.18 -0 0zm7.51 -0.72l0.18 0.64 -0.21 -0.02 0.02 -0.62zm-0.43 0.56c-0.02,-0.2 0.11,-0.49 0.23,-0.63 0.04,0.27 0.11,0.63 -0.23,0.63zm-1.19 -0.46c0.15,0.14 0.12,0.14 0.07,0.36l-0.21 -0.03 0.14 -0.33 -0 0zm-0.7 0l0.15 0.31 -0.3 -0.01 0.16 -0.3 -0 0zm1.42 0.42c-0.23,-0.18 0.03,-0.57 0.15,-0.78 0.04,0.25 0.1,0.67 -0.15,0.78zm-3.29 -0.28c-0.25,-0.01 -0.19,0.06 -0.15,-0.25l0.15 0.25zm-0.8 -0.29c0.12,0.12 0.16,0.17 0.11,0.3 -0.19,-0.08 -0.15,0.03 -0.11,-0.3zm-2.71 0.14c0.01,-0.2 0.55,-0.97 0.72,-1.05l0 1.09 -0.72 -0.03 0 -0zm4.06 0.18c-0.15,-0.18 -0.17,-0.36 -0.11,-0.59 0.2,0.14 0.15,0.34 0.11,0.59zm1.77 -0.68l0.18 0.25 -0.21 0.29 0.03 -0.54 0 0zm-1.52 0.14c0.18,0.19 0.16,0.39 0.02,0.57 -0.19,-0.22 -0.06,-0.1 -0.05,-0.3 0.01,-0.17 -0.09,-0.05 0.03,-0.27l0 0zm-2.04 -0.51c0.23,0.31 0.31,0.65 0.01,0.95l-0.01 -0.95zm-0.22 0.21l-0 0.74c-0.13,-0.05 -0.2,-0.18 -0.31,-0.35l0.31 -0.4 0 0zm5.11 -0.02l0.25 0.04c0.04,0.26 -0.12,0.58 -0.26,0.79l0.01 -0.83 -0 -0zm-6.18 0.7c-0.08,-0.22 -0.06,-0.85 -0.03,-1.11 0.15,0.1 0.38,0.5 0.44,0.67 -0.11,0.18 -0.23,0.38 -0.4,0.44l-0 0zm5.12 -0.4c-0.21,-0.05 -0.12,-0.03 -0.16,-0.16 0.21,0.02 0.15,-0.05 0.16,0.16zm-2.95 0.52c-0.34,-0.19 -0.52,-0.87 -0.43,-1.23 0.41,0.05 0.49,0.88 0.43,1.23zm3.44 -0.17c-0.11,-0.22 -0.07,-0.54 -0.05,-0.8l0.39 0.12c-0.04,0.21 -0.18,0.61 -0.33,0.69l-0 0zm-2.01 -0.32l-0.19 -0.42 0.36 0.03c0.01,0.2 -0.04,0.24 -0.17,0.39zm1.41 -0.59l0.07 0.01c0.25,0.03 0.14,-0.03 0.29,0.1 -0.12,0.24 -0.39,0.18 -0.58,0.07l0.06 -0.26 0.15 0.08zm-2.51 -0.02l0.23 0.02 -0.05 0.38 -0.19 -0.39 0 0zm1.98 0.12l-0.29 -0.03c-0.13,-0.17 -0.1,-0.09 -0.1,-0.31l0.45 0.12 -0.07 0.22 0 0zm-3.92 0.17c-0.17,-0.18 -0.34,-0.42 -0.32,-0.68l0.69 0.13 -0.37 0.55zm1.82 -0.84c0.36,0 0.36,-0 0.33,0.34l-0.32 -0.05 -0.01 -0.29zm0.7 0.12c0.15,-0 0.3,0.03 0.45,0.07 0.27,0.07 0.23,0.04 0.21,0.33l-0.46 -0.04 -0.2 -0.37 0 0zm-1.1 -0.23c0.24,0.03 0.26,0.17 0.14,0.35 -0.22,-0.06 -0.19,-0.15 -0.14,-0.35zm1.59 -0.2c0.23,0.21 0.04,0.11 0.29,0.23 -0.36,0.08 -0.55,0.02 -0.91,-0.13l0.62 -0.09 0 0zm-3.23 -0.39l1.04 -0.17 0.15 0.33 -0.46 0.56c-0.28,0.04 -0.74,-0.03 -0.99,-0.15l0 -0.36 0.26 -0.21 -0 0zm0 0c-0.16,-0.07 -0.08,0.04 -0.13,-0.13 0.17,0.05 0.07,-0.05 0.13,0.13zm-2.81 4.31c0.84,0.03 2.92,0.2 3.62,0.05l-0.19 -1.16 -0.51 -0.1 -0.17 -0.23 5.08 0.11 -0.17 0.1 -0.08 0.72c1.01,0.05 1.81,0.01 2.8,-0.02 0.22,-0.22 0.87,-1.15 0.68,-1.4 -0.18,0.03 0.11,0.05 -0.29,0.14 -1.12,0.23 -0.75,0.01 -1.23,0.04 -0.11,-0.25 -0.39,-1.04 -0.41,-1.24 -0.27,0.01 -0.15,0.08 -0.44,0.03 -0.14,-0.02 -0.27,-0.07 -0.38,-0.13l0.41 -0.13 -0.12 -0.05 -0.58 0.05 -0.23 0.02c-0.23,-0.06 -0.4,-0.08 -0.56,-0.23l0.24 -0.01 0.06 -0.19 -1.06 0.1c-0.2,-0.31 -0,-0.48 -0.51,-0.58l-0.04 0.14c-0.13,-0.2 -0.1,-0.15 -0.41,-0.08 -0.28,0.06 -1.25,0.26 -1.23,-0.19l-0.22 0.04 0.13 -0.18 -0.14 -0.25c-0.08,0 -0.09,-0.02 -0.15,0.1 -0.07,-0.24 0.04,0.21 -0.01,-0.09 -0.02,-0.12 0.05,0.06 -0.03,-0.1 -0.28,0.02 -0.9,0.15 -1.17,0.24 -0.48,0.17 -0.25,0.51 -0.52,0.81 -0.42,0.46 -0.74,1.15 -1.15,1.57 -0.77,-0.06 -4.02,-0.34 -4.55,-0.24l0.01 0.8c1,0.18 3.85,-0.14 4.19,0.24 -0.24,0.26 -0.33,0.06 -0.62,0.27l-0.05 1.06 -0.01 -0z"/>
   <path class="fil0" d="M0.2 12.48c0.97,0.18 2.53,1.29 3.44,1.81 0.6,0.34 1.12,0.62 1.73,0.93 0.63,0.33 1.26,0.5 1.89,0.76l0.72 0.17c0.63,0.13 1.28,0.2 1.86,-0.11 0.75,0.14 1.81,0.72 2.48,1.12 0.38,0.22 0.72,0.47 1.1,0.69 0.42,0.23 0.81,0.37 1.21,0.57l0.26 -0.65c-1.18,-0.38 -2,-1.09 -3.06,-1.63 -0.57,-0.29 -1.02,-0.47 -1.62,-0.69 -0.44,-0.16 0.07,-0.1 -0.66,-0.49 -0.27,-0.15 -0.55,-0.26 -0.82,-0.4 0.59,-0.3 2.78,0.65 3.39,1 0.64,0.36 1.51,0.92 2.17,1.23 0.25,0.12 0.59,0.21 0.8,0.37 0.12,-0.18 0.18,-0.43 0.23,-0.67 -1.4,-0.32 -2.86,-1.95 -5.48,-2.53 -0.32,-0.07 -0.88,-0.17 -1.19,-0.08 -0.3,0.09 -0.44,0.65 -0.42,0.93 0.19,0.54 0.83,0.5 1.2,0.82 -0.48,0.03 -0.97,-0.03 -1.43,-0.16 -1.33,-0.29 -2.88,-1.04 -4.03,-1.75 -0.95,-0.59 -2.78,-1.77 -3.81,-1.97l0.03 0.73 0 0z"/>
   <path class="fil0" d="M16.07 11.89c0.02,0.74 -0.44,3.96 -0.74,4.56l-0.01 0.05c-0.05,0.23 -0.11,0.48 -0.23,0.67l-0.2 0.61 -0.26 0.65 -0.05 0.12c-0.59,1.38 -1.88,3.07 -3.19,3.79 -1.72,0.95 -3.8,1.21 -5.65,0.42 -3.38,-1.44 -4.9,-5.14 -5.36,-8.6l0 -0.1 -0.11 -0.83 -0.06 -0.74 -0.03 -0.73 0.01 -0.16c0.1,-2.94 0.29,-5.22 1.88,-7.88 1.31,-2.19 3.69,-3.65 6.28,-3.55 5.14,0.19 7.34,4.93 7.73,9.38 0.07,0.82 -0.01,1.56 0.01,2.34l-0 -0zm-8.77 -11.84c-5.79,0.66 -7.65,7.55 -7.25,12.46 0.23,2.79 0.72,5.22 2.28,7.59 1.49,2.27 3.93,3.54 6.66,3.21 5.57,-0.67 7.28,-7.85 7.25,-12.5 -0.02,-2.74 -0.55,-5.44 -2.18,-7.7 -1.58,-2.19 -4.07,-3.37 -6.77,-3.06l0 0z"/>
   <path class="fil0" d="M6.44 5.36l1.47 0.03c-0.39,0.22 -1.09,-0.04 -1.43,0.21 0.19,0.24 0.74,0.04 1,0.23l-0.86 0.13 0.1 0.26c0.27,0.03 0.44,-0.03 0.65,0.09l-0.45 0.1c0.17,0.42 1.2,0.72 1.57,0.53l-0.64 -0.16c0.44,-0.27 1.18,0.21 1.42,-0.25 -0.25,-0.13 -0.7,-0.11 -0.88,-0.34 0.39,-0.07 0.75,0.1 1.15,0.07l0.16 -0.27c-0.35,-0.08 -0.78,-0.01 -1.07,-0.19l0.62 -0.11 -0.29 -0.17c0.3,-0.11 0.69,-0.05 0.94,-0.2 -0.01,-1.03 -0.68,-1.85 -1.75,-1.86 -0.95,-0.01 -1.94,0.95 -1.72,1.89l0 -0z"/>
   <path class="fil0" d="M12.57 14.81c0.05,0.2 2.05,1.29 2.4,1.43 0.21,0.08 0.31,0.04 0.35,0.22 0.31,-0.61 0.77,-3.82 0.74,-4.56l-0.11 -0.98c-0.33,0.43 -0.23,0.93 -1.32,2.35 -0.39,0.51 -1.42,1.31 -2.07,1.55l-0 -0z"/>
   <path class="fil0" d="M0.37 14.06l0.06 -0.07c0.31,0.21 0.77,0.39 1.13,0.6 1.14,0.65 1.99,1.23 3.23,1.86 1.13,0.57 2.7,1.24 4.01,1.11 0.71,-0.07 0.71,-0.12 0.86,-0.78 -0.54,0.18 -1.17,0.28 -1.73,0.1 -0.23,-0.01 -0.23,0.03 -0.38,-0.03 -0.12,-0.04 -0.21,-0.08 -0.32,-0.14 -0.94,-0.18 -2.74,-1.14 -3.59,-1.66 -1.15,-0.7 -2.12,-1.34 -3.38,-1.82l0.11 0.83 -0 0z"/>
   <path class="fil0" d="M0.37 14.06l0 0.1c1.9,0.74 4.57,3.13 7.45,3.52 0.46,0.06 1.2,0.08 1.63,-0.1 0.39,-0.16 0.28,-0.97 0.58,-1.26 0.87,-0.07 3.4,1.99 4.54,2.23l0.05 -0.12c-0.41,-0.2 -0.79,-0.34 -1.21,-0.57 -0.39,-0.21 -0.73,-0.46 -1.1,-0.69 -0.67,-0.4 -1.73,-0.98 -2.48,-1.12l-0.17 0.72c-0.15,0.66 -0.15,0.71 -0.86,0.78 -1.31,0.13 -2.88,-0.54 -4.01,-1.11 -1.23,-0.63 -2.09,-1.2 -3.23,-1.86 -0.36,-0.21 -0.82,-0.39 -1.13,-0.6l-0.06 0.07 0 0z"/>
   <path class="fil0" d="M7.57 18.47c0.1,-0.06 0.01,0.01 0.12,-0.05 0.01,-0.01 0.03,-0.01 0.04,-0.02 0.25,-0.14 0.05,-0.11 0.38,-0.11 0.4,-0.01 0.56,0.12 0.77,0.4l0.32 0.56c0.14,0.26 -0.06,1.28 -0.38,1.51 -0.2,0.15 -0.13,0.06 -0.3,0.28 -0.24,-0.01 -0.22,-0.08 -0.41,-0.07 -0.16,0.01 -0.13,0.06 -0.35,0.07 -0.13,-0.12 -0.22,-0.2 -0.34,-0.3 -0.37,-0.32 -0.35,-0.76 -0.36,-0.81 -0.17,-0.83 -0,-0.57 0.1,-0.93 0.02,-0.08 0.18,-0.28 0.24,-0.36 0.01,-0.02 0.15,-0.17 0.17,-0.18l-0 -0zm0.23 -0.35c-1.58,0.54 -0.93,3.6 0.65,3.08 1.59,-0.52 0.92,-3.61 -0.65,-3.08z"/>
   <path class="fil0" d="M8.4 18.9c-0.17,0.14 -0.17,0.05 -0.1,0.31 -0.19,-0.09 -0.16,-0.09 -0.36,0.01 0.03,-0.24 0.06,-0.14 -0.11,-0.31 0.26,-0.05 0.18,0.03 0.28,-0.19 0.12,0.17 0.06,0.15 0.29,0.19l0 -0zm-1.07 0.56c0.25,-0.03 0.66,-0.18 0.83,-0.18 0.07,0 0.66,0.24 0.7,0.26l0.09 0.01c-0.2,-0.35 -0.2,-1.02 -0.8,-1.07 -0.55,-0.04 -0.69,0.62 -0.82,0.98l0 -0z"/>
   <path class="fil0" d="M7.36 19.82c-0.1,0.29 0.05,0.09 0.05,0.52 0.23,0.11 0.18,0.08 0.31,0.32l0.12 -0.1c-0.09,-0.26 -0.12,-0.64 0.3,-0.63 0.09,0 0.24,0.08 0.3,0.18 0.1,0.16 0.01,0.27 -0.02,0.45l0.13 0.1c0.08,-0.26 0.09,-0.23 0.29,-0.34 -0,-0.34 0.07,-0.22 0.06,-0.48 -0.13,-0.03 -0.27,-0.1 -0.35,-0.11 -0.14,-0.02 -0.28,0.06 -0.41,0.07 -0.39,0.03 -0.14,-0.21 -0.78,0.01l0 0z"/>
   <path class="fil0" d="M2.36 5.37c-0.04,0.2 0.33,0.41 0.48,0.57 -0.23,0.01 -0.54,-0.07 -0.73,0.03 -0,0.25 0.13,0.23 0.36,0.37 0.47,0.3 0.32,0.29 0.51,0.21 0.01,-0.2 -0.27,-0.25 -0.43,-0.41l0.63 0c0,-0.24 -0.27,-0.4 -0.43,-0.56 0.26,0.02 0.42,0.15 0.62,0.03 -0.05,-0.13 0.15,-0.07 -0.43,-0.2l-0.43 -0.09c-0.14,0.01 -0.04,-0.01 -0.14,0.04l0 0z"/>
   <path class="fil0" d="M5.74 22.06c0.15,-0.05 0.05,0.07 0.17,-0.17 0.05,-0.09 0.06,-0.16 0.12,-0.25 0.11,0.22 0.02,0.45 0.2,0.63 0.18,-0.03 0.32,-0.53 0.39,-0.73 0.04,0.07 0.1,0.13 0.15,0.19 -0.06,0.24 -0.24,0.54 -0.06,0.67 0.14,-0.15 0.15,-0.41 0.22,-0.62 0.21,-0.09 0.07,0.06 0.2,-0.12 -0.17,-0.14 -0.43,-0.15 -0.63,-0.2l-0.23 0.45c-0.08,-0.28 -0.04,-0.54 -0.26,-0.66 -0.12,0.16 -0.38,0.64 -0.29,0.81l-0 -0z"/>
   <path class="fil0" d="M2.12 6.82c0.4,-0.21 0.7,0.36 0.31,0.57 -0.36,0.2 -0.77,-0.32 -0.31,-0.57zm-0.08 -0.19c-0.62,0.32 -0.21,1.24 0.48,0.95 0.6,-0.25 0.19,-1.29 -0.48,-0.95z"/>
   <path class="fil0" d="M3.58 3.4c-0.04,0.19 0.08,0.16 0.42,0.46 -0.25,0.02 -0.65,-0.11 -0.83,0.05 0.02,0.17 0.26,0.29 0.4,0.4 0.23,0.18 0.29,0.35 0.47,0.14l-0.45 -0.38c0.31,-0.04 0.61,0.09 0.82,-0.08 -0.07,-0.17 -0.37,-0.37 -0.57,-0.53 -0.2,-0.15 -0.11,-0.12 -0.26,-0.07l-0 0z"/>
   <path class="fil0" d="M12.46 4.18c0.45,-0.27 0.64,0.37 0.35,0.54 -0.35,0.22 -0.83,-0.26 -0.35,-0.54zm-0.09 -0.2c-0.62,0.35 -0.17,1.23 0.47,0.94 0.63,-0.28 0.17,-1.3 -0.47,-0.94z"/>
   <path class="fil0" d="M10.98 2.47c0.42,-0.17 0.63,0.51 0.22,0.64 -0.49,0.14 -0.61,-0.48 -0.22,-0.64zm-0.1 -0.16c-0.67,0.34 -0.21,1.23 0.43,0.97 0.6,-0.24 0.23,-1.3 -0.43,-0.97z"/>
   <path class="fil0" d="M7.84 20.57c0.07,0.23 0.1,0.27 0.32,0.31 0.15,-0.09 0.18,-0.14 0.26,-0.3 0.03,-0.18 0.12,-0.29 0.02,-0.45 -0.06,-0.1 -0.21,-0.18 -0.3,-0.18 -0.43,-0.01 -0.39,0.37 -0.3,0.63l0 0z"/>
   <path class="fil0" d="M5.85 2.58c-0.12,-0.14 -0.25,-0.38 -0.26,-0.59l0.33 -0.03c0.27,0.23 0.3,0.49 -0.07,0.63l0 -0zm-0.52 -0.66l0.39 0.92c0.38,-0.1 0.74,-0.3 0.55,-0.75 -0.2,-0.46 -0.58,-0.35 -0.94,-0.16l-0 -0z"/>
   <path class="fil0" d="M13.23 5.72c0.03,0.25 0.06,0.08 -0.04,0.26 -0.33,-0.07 -0.27,-0.23 0.04,-0.26zm0.37 -0.04c-0.15,0.09 -0.04,0.17 -0.22,-0.04 0.2,-0.25 0.19,-0.02 0.22,0.04zm-0.87 0.02c0.22,0.93 0.71,0.25 0.71,0.25 0.18,-0.11 0.49,0.06 0.23,-0.63 -0.25,0 -0.71,0.23 -0.95,0.37l0 -0z"/>
   <path class="fil0" d="M9.41 1.74c-0.19,0.15 -0.09,0.09 -0.23,0.01 0.05,-0.07 0.08,-0.36 0.23,-0.01zm-0.51 0.64c0.25,-0.05 0.1,-0.03 0.23,-0.31 0.15,0.28 0.02,0.4 0.32,0.41l-0.1 -0.44c0.48,-0.32 0.24,-0.65 -0.28,-0.64 -0.1,0.23 -0.28,0.77 -0.18,0.98l-0 0z"/>
   <path class="fil0" d="M10.33 2.03c-0.14,0.14 -0.07,0.15 -0.25,0.02 0.11,-0.17 0.07,-0.24 0.25,-0.02zm-0.62 0.58c0.24,-0.04 0.12,-0.07 0.27,-0.32 0.08,0.3 -0.04,0.41 0.23,0.53l-0 -0.44c0.16,-0.1 0.37,-0.15 0.29,-0.43 -0.05,-0.18 -0.27,-0.24 -0.43,-0.29 -0.14,0.17 -0.45,0.76 -0.36,0.96l0 -0z"/>
   <path class="fil0" d="M8 15.48c0.46,0.13 0.95,0.19 1.43,0.16 -0.37,-0.32 -1.01,-0.29 -1.2,-0.82 -0.14,0.15 -0.2,0.43 -0.23,0.66z"/>
   <path class="fil0" d="M8.25 1.6l0.06 0.3 -0.24 -0.05 0.17 -0.25 0 -0zm-0.53 0.65c0.31,0.05 0.1,0.02 0.32,-0.18l0.36 0.02c0.12,0.22 0,0.21 0.26,0.2 -0.03,-0.25 -0.23,-0.94 -0.44,-1.03 -0.19,0.08 -0.44,0.75 -0.5,0.98l0 0z"/>
   <path class="fil0" d="M14.17 7.71c-0.17,-0.11 -0.26,-0.12 -0.01,-0.24 0.18,0.22 0.08,0.12 0.01,0.24zm-0.78 -0.17c0.13,0.18 0.14,0.05 0.42,0.05 -0.18,0.15 -0.34,0.25 -0.3,0.47l0.38 -0.26c0.54,0.24 0.62,-0.05 0.47,-0.54 -0.21,0 -0.91,0.1 -0.98,0.29z"/>
   <path class="fil0" d="M4.58 3.27c-0.15,-0.12 -0.11,-0.08 -0.15,-0.31l0.27 0.16 -0.12 0.15 -0 -0zm-0.43 -0.45l0.38 0.99c0.23,-0.18 0.1,-0.09 0.12,-0.37 0.5,-0.42 0.26,-0.01 0.6,-0.28l-0.95 -0.48 -0.14 0.14 0 0z"/>
   <path class="fil0" d="M13.62 6.84l-0.09 -0.23 0.33 0.01 -0.24 0.22zm-0.28 -0.22l0.09 0.34c-0.15,0.24 -0.16,0.03 -0.11,0.32 0.02,-0.01 0.89,-0.49 0.81,-0.81l-1.09 -0.09c0.07,0.27 0.04,0.15 0.3,0.24z"/>
   <path class="fil0" d="M14.66 8.68c-0.21,-0.21 -0.5,0.1 -0.87,-0.03 -0.03,-0.37 0.28,-0.24 0.6,-0.32 0.29,-0.07 0.14,-0.01 0.19,-0.18 -0.25,-0.11 -1.06,0.02 -0.99,0.46 0.06,0.39 0.49,0.28 0.84,0.21 0.26,-0.05 0.18,0.01 0.24,-0.14l0 0z"/>
   <path class="fil0" d="M2.86 4.41c0.13,0.24 0.6,0.26 0.67,0.56 -0.28,0.3 -0.5,-0.24 -0.88,-0.2 -0.02,0.18 -0.07,0.09 0.13,0.23 0.27,0.18 0.79,0.49 0.93,0.07 0.14,-0.42 -0.69,-0.86 -0.84,-0.66l-0 0z"/>
   <path class="fil0" d="M2.39 7.86c-0.25,0.18 0,0.1 -0.07,0.45 -0.08,0.38 -0.68,0.31 -0.67,-0.1 0.01,-0.31 0.18,-0.14 0.14,-0.45 -0.45,0.03 -0.45,0.84 0.03,0.97 0.53,0.15 0.97,-0.49 0.57,-0.87l0 0z"/>
   <path class="fil0" d="M6.44 1.47l0.2 0.98c0.2,-0.01 0.45,-0.03 0.53,-0.18 -0.15,-0.25 -0.1,0.07 -0.4,-0.11 -0.01,-0.45 0.13,-0 0.3,-0.36 -0.29,-0.17 -0.16,0.11 -0.41,-0.1 0.15,-0.25 0.19,0.02 0.32,-0.23 -0.11,-0.18 -0.34,-0.04 -0.55,0.01l-0 0z"/>
   <path class="fil0" d="M9.86 21.93c-0.1,-0.38 0.05,-0.51 0.42,-0.42 0.25,0.37 -0.08,0.73 -0.42,0.42zm0.04 -0.56c-0.55,0.27 -0.13,1.06 0.41,0.78 0.49,-0.25 0.15,-1.06 -0.41,-0.78z"/>
   <path class="fil0" d="M7.51 21.94c-0.2,0.04 -0.05,0.06 -0.2,-0.03 0.06,-0.03 0.11,-0.26 0.2,0.03zm-0.39 0.53c0.22,-0.07 0.1,0.02 0.18,-0.29 0.14,0.2 0.03,0.23 0.23,0.36 0.06,-0.1 0.15,0.13 -0.04,-0.37 0.16,-0.18 0.18,-0.12 0.16,-0.4 -0.17,-0.15 -0.25,-0.15 -0.47,-0.14 -0.03,0.25 -0.15,0.63 -0.07,0.84l0 -0z"/>
   <path class="fil0" d="M8.88 21.81c0.31,0.01 0.21,0.07 0,0.18l-0 -0.18zm0.03 0.72c0.08,-0.16 0.03,-0.14 0.02,-0.34 0.18,0.17 0.1,0.26 0.37,0.26 -0.02,-0.22 -0.07,-0.14 -0.2,-0.35 0.31,-0.35 -0.05,-0.5 -0.42,-0.42 -0.02,0.23 0.03,0.76 0.23,0.84l0 0z"/>
   <path class="fil0" d="M11.53 3.92c0.23,0.02 0.24,-0.14 0.46,-0.25 0.21,-0.1 0.36,-0.05 0.55,-0.19 -0.18,-0.19 -0.19,-0.08 -0.47,-0.06 0.04,-0.28 0.16,-0.25 0,-0.47 -0.16,0.17 -0.14,0.29 -0.24,0.51 -0.14,0.3 -0.34,0.18 -0.3,0.46z"/>
   <path class="fil0" d="M7.84 22.56l0.43 -0c-0.11,-0.39 -0.09,0.05 -0.3,-0.25 0.12,-0.26 0.17,0.01 0.31,-0.24l-0.32 -0.08c0.22,-0.34 0.2,0.13 0.31,-0.26l-0.43 -0.04c-0.06,0.25 -0.07,0.64 0,0.87z"/>
   <path class="fil0" d="M5.11 21.72l0.45 0.11c-0.19,-0.25 -0.2,-0 -0.2,-0.26 0.21,-0.2 0.08,-0.02 0.35,0.01 0.05,-0.32 -0.16,-0.03 -0.17,-0.34l0.35 0.08c-0.01,-0.2 -0.19,-0.28 -0.37,-0.34 -0.15,0.2 -0.35,0.5 -0.41,0.74l-0 0z"/>
   <path class="fil0" d="M10.49 21.31c0.23,0.24 0.38,0.07 0.53,0.27 -0.23,0.24 -0.06,-0.08 -0.29,0.17 0.18,0.18 0.31,0.08 0.45,-0.08l-0.01 -0.23c-0.23,-0.2 -0.31,-0.08 -0.53,-0.24 0.22,-0.14 0.14,0.02 0.23,-0.17 -0.23,-0.16 -0.39,0.01 -0.37,0.27l0 0z"/>
   <path class="fil0" d="M12.97 9.94c-0.03,-0.34 -0.24,-0.44 -0.53,-0.29l0.12 0.05 -0.41 0.13c0.11,0.07 0.25,0.11 0.38,0.14 0.29,0.05 0.17,-0.02 0.44,-0.03l0 0z"/>
   <path class="fil0" d="M9.61 22.38c0.07,-0.18 0.02,-0.23 -0.04,-0.45 -0.06,-0.24 -0.02,-0.31 -0.2,-0.39 -0.06,0.14 0.02,0.73 0.24,0.85l0 0z"/>
   <path class="fil0" d="M11.31 9.49c0.25,-0.01 0.24,0.01 0.32,0.24l0.23 -0.02c-0.08,-0.34 -0.12,-0.44 -0.49,-0.41l-0.06 0.19z"/>
   <path class="fil0" d="M5.53 11.64c0.21,0.1 0.58,0.12 0.64,-0.16l-0.64 -0.01 -0 0.18 0 -0z"/>
   <path class="fil0" d="M14.98 8.57c-0.03,-0.22 -0.02,-0.2 -0.29,-0.25 0.06,0.18 0.1,0.2 0.29,0.25z"/>
   <path class="fil0" d="M9.27 21.48c0.15,-0.05 0.17,-0.09 0.21,-0.26 -0.21,0.04 -0.18,0.03 -0.21,0.26z"/>
   <path class="fil0" d="M7.31 21.91c0.15,0.09 0,0.07 0.2,0.03 -0.09,-0.3 -0.14,-0.06 -0.2,-0.03z"/>
   <polygon class="fil0" points="8.13,8.7 8.04,8.56 7.91,8.74 "/>
   <path class="fil0" d="M6.66 8.63c-0.06,-0.18 0.05,-0.08 -0.13,-0.13 0.05,0.17 -0.03,0.06 0.13,0.13z"/>
  </g>
 </g>
</svg>
