<?xml version="1.0" encoding="UTF-8"?>
<!DOCTYPE svg PUBLIC "-//W3C//DTD SVG 1.1//EN" "http://www.w3.org/Graphics/SVG/1.1/DTD/svg11.dtd">
<!-- Creator: CorelDRAW 2021 (64-Bit) -->
<svg xmlns="http://www.w3.org/2000/svg" xml:space="preserve" width="31.7667mm" height="15.2066mm" version="1.1" style="shape-rendering:geometricPrecision; text-rendering:geometricPrecision; image-rendering:optimizeQuality; fill-rule:evenodd; clip-rule:evenodd"
viewBox="0 0 179.72 86.03"
 xmlns:xlink="http://www.w3.org/1999/xlink"
 xmlns:xodm="http://www.corel.com/coreldraw/odm/2003">
 <defs>
  <style type="text/css">
   <![CDATA[
    .fil0 {fill:white}
   ]]>
  </style>
 </defs>
 <g id="Capa_x0020_1">
  <metadata id="CorelCorpID_0Corel-Layer"/>
  <g id="_2936947945472">
   <path class="fil0" d="M86 65.98c-0.38,4.84 -7.12,4.02 -10.1,4.02 -2.37,0 -4.74,-0 -7.11,-0.01 -1.68,-0 -3.3,0.91 -3.77,2.5 -0.23,0.78 -0.08,0.48 0.09,0.72 0.83,0.37 11.88,0.12 13.81,0.12 5.31,-0.01 8.27,0.61 10.37,-3.61 1.51,-3.03 0.96,-9.15 0.96,-13.03 0,-1.1 0.13,-6.19 -0.06,-6.85 -0.23,-0.76 -2.82,-3.09 -4.12,-2.9l-0.05 15.43c-2.78,0.23 -6.37,0.04 -9.24,0.04 -10.34,0 -8.6,0.16 -8.59,-10.35 0,-1.91 0.19,-2.64 -0.94,-3.63 -0.64,-0.55 -2.02,-1.63 -3.22,-1.47 -0.36,2.37 -0.07,7.42 -0.07,10.07 0,3.99 -0.34,5.97 2.69,7.64 3.96,2.19 14.09,0.9 19.34,1.28l-0 0z"/>
   <path class="fil0" d="M21.03 44.56c0.15,4.56 0.02,9.33 0.02,13.92 0,2.46 -0.02,4.03 1.26,5.59 1.01,1.23 2.52,2.43 4.89,2.29l0 -21.76c5.19,-0.47 9.91,1.69 11.19,-5.85l-28.43 -0.02c0,7.05 7.52,5.8 11.07,5.84l0 0z"/>
   <path class="fil0" d="M38.32 65.83c2.94,0.33 16.47,0.2 18.82,-0.51 2.79,-0.85 4.02,-2.49 3.88,-5.97 -0.12,-3.04 -2.18,-4.34 -5.04,-4.77 -4.21,-0.63 -11.31,0.31 -13.88,-0.72 -1.61,-0.64 -1.25,-2.68 -0.25,-3.13 2.41,-1.09 12.4,0.23 14.07,-0.68 0.7,-0.38 1.96,-1.71 1.76,-3.07 -1.09,-0.38 -8.03,-0.15 -9.7,-0.13 -2.98,0.03 -6.25,-0.05 -8.69,1.15 -2.98,1.46 -2.93,4.93 -1.99,6.76 3.19,6.24 18.98,0.59 19.38,4.96 0.16,1.75 -0.85,2.32 -2.42,2.54 -2.48,0.35 -6.95,0.09 -9.65,0.09 -1.21,0 -3.87,-0.3 -4.7,0.3 -0.61,0.44 -1.87,2.02 -1.59,3.17l0 0z"/>
   <path class="fil0" d="M157.34 65.63l0.09 -15.17c3.1,-0.04 6.2,-0.01 9.28,-0.01 10.18,0 8.68,-0.17 8.68,10.16 -0,1.83 -0.36,3.01 0.78,3.87 4.43,3.32 3.45,-0.45 3.45,-3.69 0,-1.72 0,-3.44 0,-5.15 0,-3.89 -0,-6 -2.8,-7.44 -3.85,-1.99 -14.28,-1.09 -19.38,-1.24l-0.04 -5.06c-1.21,-0.22 -2.08,0.31 -2.85,0.87 -1.07,0.78 -1.36,0.97 -1.34,2.73l0 16c-0,2.02 -0.3,2.19 1.03,3.05 0.89,0.58 1.73,1.2 3.09,1.08l0 0z"/>
   <path class="fil0" d="M150.13 62.44c-3.29,-0.6 -16.84,0.6 -20.21,-0.59 -1.25,-0.44 -1.71,-0.91 -1.72,-2.48 -0.01,-1.73 -0.41,-7.17 0.47,-8.02 2.27,-2.22 17.98,-0.18 19.66,-1.32 0.1,-0.07 3.69,-3.23 0.64,-3.24 -5.57,-0.01 -18.66,-0.53 -22.01,1.06 -2.1,0.99 -2.96,2.58 -2.96,5.47 -0.02,10.55 -1.34,12.55 12.87,12.55 2.78,0 5.57,-0 8.35,0 1.45,0 2.78,0.26 3.67,-0.53 0.58,-0.51 1.66,-1.69 1.25,-2.9l0 0z"/>
   <path class="fil0" d="M98.3 65.59c0.49,-1.83 0.04,-10.3 0.11,-12.99 0.06,-2.24 2.16,-2.21 4.31,-2.24 15.06,-0.17 13.29,-0.61 13.29,6.34 0,1.91 -0.17,4.79 0,6.58 0.15,1.49 2.45,2.66 4.15,2.32 0.32,-1.49 0.1,-6.44 0.1,-8.37 0,-2.41 0.42,-5.92 -0.79,-7.7 -2.23,-3.27 -9.46,-2.73 -14.27,-2.73 -12.69,0 -11.01,3.17 -11.02,14.51 -0,1.72 -0.32,2.42 0.9,3.36 0.78,0.6 2.01,1.22 3.21,0.91l0 0z"/>
   <path class="fil0" d="M64.73 33.37l0.13 -0.1c-0.25,-0.27 -1.32,-1.45 -1.39,-1.84 -0.13,-0.66 0.41,-2.09 0.68,-2.66 2.09,-4.41 9.63,-6.19 11.73,-8.15 -0.6,-0.14 -0.02,0.07 -0.12,-0.35 -0,-0.02 -0.01,-0.07 -0.02,-0.09l-0.08 -0.19c-0.02,-0.04 -0.09,-0.16 -0.11,-0.21 -0.22,-0.6 -0.13,-2.82 0,-3.48 0.27,-1.41 -0.15,-0.13 -0.04,-1.03 0.96,-0.07 2.24,-0.05 2.93,-0.52 -1.03,-2.08 -3.98,-5.21 -5.47,-6.66 -10.14,-9.87 -18.38,-6.63 -16.78,6.13l0.37 1.31c-0.01,-2.89 -0.07,-5.39 1.49,-7.25 4.93,-5.86 15.18,5.6 15.6,7.06l-5.07 0.47c1.22,0.78 3.32,0.77 4.45,1.61 -0.7,0.51 -6.71,2.81 -10.32,5.48 -1.93,1.42 -2.17,2.97 -1.09,5.6 0.5,1.22 2.39,4.37 3.11,4.87l0 0z"/>
   <path class="fil0" d="M7.29 66.46c0.23,-1.33 0.07,-14.52 0.07,-17.05 0,-2.51 0.41,-5.87 -0.68,-7.92 -0.93,-1.74 -2.7,-3.2 -5.46,-3.16 -0.02,5.71 -0,11.41 -0,17.12 0,4.72 -1.01,10.2 6.07,11.01l0 0z"/>
   <path class="fil0" d="M78.56 37.72l0.28 0.32c0.7,0.57 -0.02,0.19 0.49,0.8l0.89 0.9c0.45,0.42 -0.18,-0.15 0.2,0.16 0.19,0.16 0.11,0.07 0.29,0.24 0.03,0.02 0.06,0.06 0.09,0.09l1.05 0.9c0.48,0.36 0.27,0.31 0.81,0.52 2.35,-1.46 2.65,-6.51 2.44,-9.3 -0.18,-2.39 -0.81,-4.87 -1.56,-7.13l-0.61 -1.7c-0.02,-0.03 -0.05,-0.08 -0.07,-0.11 -0.14,-0.22 -0.12,-0.18 -0.24,-0.3 -0.67,0.67 -1.42,1.97 -2,2.8 -1.09,1.57 -1.28,1.27 -0.92,3.46 0.64,3.81 0.15,5.53 -1.17,8.35l0 -0z"/>
   <path class="fil0" d="M75.87 20.61l0.94 -0.27 1.36 3.14c0.57,-0.36 2.74,-4.05 2.88,-4.46 -0.69,-0.16 -0.4,-0.15 -0.34,-0.76 0.07,-0.62 0.3,-3.07 0,-3.54 -0.75,0.04 -1.74,0.24 -2.29,0.02 -0.69,0.47 -1.97,0.45 -2.93,0.52 -0.11,0.9 0.31,-0.38 0.04,1.03 -0.13,0.66 -0.22,2.89 0,3.48 0.02,0.05 0.09,0.17 0.11,0.21l0.08 0.19c0.01,0.02 0.01,0.07 0.02,0.09 0.1,0.42 -0.48,0.21 0.12,0.35l0 -0z"/>
   <path class="fil0" d="M74.35 39.37l2.89 2.83c0.35,0.28 0.18,0.18 0.48,0.41l-0.57 0.16c1.09,0.85 4.42,0.1 5.52,-1.13 -0.54,-0.21 -0.34,-0.15 -0.81,-0.52l-1.05 -0.9c-0.03,-0.02 -0.06,-0.06 -0.09,-0.09 -0.18,-0.16 -0.1,-0.07 -0.29,-0.24 -0.37,-0.31 0.25,0.25 -0.2,-0.16l-0.89 -0.9c-0.51,-0.61 0.21,-0.23 -0.49,-0.8l-0.28 -0.32c-1.2,1.19 -1.98,1.63 -4.21,1.65l-0 0z"/>
   <path class="fil0" d="M77.16 42.77l0.57 -0.16c-0.3,-0.24 -0.14,-0.13 -0.48,-0.41l-2.89 -2.83c-3.97,-0.24 -7.79,-4.3 -9.5,-6.1l-0.13 0.1c0.5,0.91 1.72,2.16 2.41,2.94 0.84,0.95 1.78,1.83 2.81,2.7 1.1,0.92 5.14,3.93 7.21,3.76l0 -0z"/>
   <path class="fil0" d="M80.71 14.72c0.3,0.46 0.07,2.92 -0,3.54 -0.07,0.6 -0.35,0.6 0.34,0.76 0.4,-0.24 1.1,-1.56 1.46,-2.1 0.49,-0.75 1.13,-1.54 1.43,-2.46l-3.22 0.26 -0 0z"/>
   <polygon class="fil0" points="9.94,86.03 -0,0 "/>
   <polygon class="fil0" points="73.94,86.03 -0,0 "/>
   <polygon class="fil0" points="33.25,86.03 -0,0 "/>
   <polygon class="fil0" points="93.14,86.03 -0,0 "/>
   <path class="fil0" d="M73.94 86.03zm0 0zm0 0l-73.94 -86.03 73.94 86.03z"/>
  </g>
 </g>
</svg>
