<?xml version="1.0" encoding="UTF-8"?>
<!DOCTYPE svg PUBLIC "-//W3C//DTD SVG 1.1//EN" "http://www.w3.org/Graphics/SVG/1.1/DTD/svg11.dtd">
<!-- Creator: CorelDRAW 2021 (64-Bit) -->
<svg xmlns="http://www.w3.org/2000/svg" xml:space="preserve" width="32.8331mm" height="7.7851mm" version="1.1" style="shape-rendering:geometricPrecision; text-rendering:geometricPrecision; image-rendering:optimizeQuality; fill-rule:evenodd; clip-rule:evenodd"
viewBox="0 0 242.92 57.6"
 xmlns:xlink="http://www.w3.org/1999/xlink"
 xmlns:xodm="http://www.corel.com/coreldraw/odm/2003">
 <defs>
  <style type="text/css">
   <![CDATA[
    .fil0 {fill:white}
   ]]>
  </style>
 </defs>
 <g id="Capa_x0020_1">
  <metadata id="CorelCorpID_0Corel-Layer"/>
  <g id="_2936570739552">
   <path class="fil0" d="M135.73 29.92c-1.25,3.44 -1.93,5.38 -5.3,6.53 -4.5,1.54 -5.39,-1.98 -4.02,-5.81 3.59,-9.97 12.35,-9.09 9.32,-0.72zm-15.16 11.73c3.8,5.8 9.55,1.93 12.81,-1.51 0.75,0.87 4.53,7.45 10.57,3.3 1.53,-1.05 1.51,-1.8 2.99,-3.03 2.54,2.76 4.04,6.34 10.55,5.4 4.15,-0.6 7.51,-3.94 5.98,-8.83 -1.38,-4.4 -5.54,-4.65 -7.47,-8.49 -2.11,-4.18 2,-9.18 5.81,-7.58 0.7,0.67 0.82,5.37 -2.86,5.04 -0.25,-0.02 -1.07,-0.24 -1.07,-0.24 -1.16,-0.1 -0.06,-0.47 -1.05,0.08 -1.28,4.43 6.97,6.13 9.9,-0.28 5.87,-12.83 -21.2,-13.21 -17.05,1.09 1.62,5.59 8.8,7.47 8.13,11.13 -0.57,0.34 -0.34,0.41 -1.5,0.49 -5.31,0.33 -4.69,-6.46 -6.42,-8.08 -3.19,0.82 -3.31,6.99 -8.57,8.21 -0.05,-9.65 11.8,-18.57 0.35,-19.49l-2.66 3.83c-0.92,-2.53 -0.81,-4.23 -3.87,-4.76 -3.16,-0.55 -5.41,0.96 -7.2,2.4 -7.94,6.35 -6.4,13.14 -9.78,17.33 -1.82,2.25 -2.49,2.91 -4.74,4.71 -3.03,2.42 -7.82,5.88 -13.01,5.7 -18.58,-0.63 2.94,-48.75 16.1,-42.57 1.37,2.14 1.05,4.76 -0.01,7.51 -1.58,4.12 -2.69,2.21 -5.35,3.31 0.62,7.03 10.13,2.78 11.97,-3.17 4.82,-15.61 -19.77,-21.61 -33.68,6.41 -5.12,10.31 -8.82,26.58 1.6,33.24 5.54,3.54 11.86,3.23 17.43,-0.06 3.92,-2.31 6.57,-4.75 9.13,-7.98l2.99 -3.13z"/>
   <path class="fil0" d="M227.14 23.47c1.75,3.15 1.87,4.47 0.16,8.4 -0.94,2.14 -3.76,5.56 -7.1,4.89 -4.83,-0.96 -0.38,-14.27 6.94,-13.29zm-47.16 7.62c-4.28,9.89 -11.08,5.63 -6.59,-3.61 1.8,-3.72 3.44,-3.28 3.31,-8.35 -4.77,1.17 -7.23,4.4 -9.07,8.49 -5.71,12.69 2.93,21.75 11.94,14.29 1.41,-1.17 2.88,-3.08 3.94,-4.92 2.56,-4.46 0.8,-4.55 3.52,-5.34 1.95,2.8 -3.96,13.19 6.56,11.76 1.01,-3.15 3.45,-14.9 9.68,-17.12 -0.37,1.42 -8.12,18.22 2.62,18.49 3.57,0.09 4.97,-1.53 6.49,-3.12 5.31,4.83 8.75,3.05 13.53,-1.68 2.37,6.11 8.45,5.54 11.32,2.41 1.87,-2.04 7.57,-8.88 5.07,-12.28 -3.43,0.52 -3.26,7.49 -8.68,8.1 -0.09,-7.95 5.39,-11.81 5.79,-16.6 -1.66,-1.77 -2.08,-2.29 -4.63,-1.76 -0.61,-1.98 0.03,1.42 0.05,-0.53 0.01,-1.58 1.11,1.33 -0.05,-0.46 -2.05,0.9 -2.21,1.61 -2.94,3.62 -0.1,-0.12 -0.23,-0.48 -0.27,-0.39 -0.02,0.06 -3.92,-10.41 -14.12,1.09 -4.16,4.7 -4.62,13.84 -9.9,15.16 0.35,-6.88 6.03,-14.25 4.14,-18.36 -5.54,-2.58 -12.44,4.99 -14.71,6.96 0.83,-2.6 1.71,-2.18 2.11,-5.28 -0.02,-0.1 -3.63,-8.36 -8.01,1.09 -2.85,6.15 -0.53,4.47 -3.46,5.1 -0.89,-1.28 -0.69,-3 -0.69,-4.44 0.01,-9.83 -10.17,-7.26 -10.09,0.61 0.05,4.51 1.93,4.58 3.14,7.07z"/>
   <path class="fil0" d="M7.63 39.71c4.07,-1.37 6.39,0.59 7.79,3.18 -3.46,1.8 -9.37,2.73 -7.79,-3.18zm23.88 -34.05c3.83,6.04 -9.37,30.28 -12.5,33.29 -2.92,-1.89 -6.01,-5.57 -11.1,-5.27 -11,0.64 -10.16,14.99 0.12,17.79 6.06,1.65 9.72,-1.24 13.33,-3.02 15.53,11.64 35.9,13.04 33.73,-0.85 -6.62,1.28 -8.25,2.93 -16.44,1.48 -3.85,-0.69 -10.72,-2.57 -12.95,-5.01 7.27,-9.38 22.22,-42.9 3.91,-43.65 -10.04,-0.41 -18.2,11.01 -14.26,16.61 1.12,1.6 3.89,2.62 6.4,1.52 2.68,-1.18 -1.59,-4.34 4.12,-11.22 2.12,-2.56 3.73,-2.89 5.61,-1.67z"/>
   <path class="fil0" d="M51.11 23.32c3.78,5.84 -1.74,14.87 -7.1,13.37 -4.53,-1.26 -0.4,-13.53 7.1,-13.37zm-1.44 16.82c1.5,1.75 1.87,3.64 4.97,4.31 5.53,1.2 8.22,-3.44 10.58,-7.83 1.23,-2.28 2.93,-4.61 0.96,-6.46 -2.04,0.5 -2.3,2.33 -3.71,4.3 -1.3,1.81 -2.37,3.32 -4.87,3.9 -0.08,-7.91 4.5,-10.79 5.83,-16.11 -1.23,-2.08 -2.63,-3.17 -5.46,-3.36l-2.65 3.82c-0.93,-2.48 -0.73,-3.77 -3.23,-4.64 -6.02,-2.1 -11.89,5.84 -14.13,10.75 -5.8,12.71 1.72,21.55 11.71,11.32z"/>
  </g>
 </g>
</svg>
