<?xml version="1.0" encoding="UTF-8"?>
<!DOCTYPE svg PUBLIC "-//W3C//DTD SVG 1.1//EN" "http://www.w3.org/Graphics/SVG/1.1/DTD/svg11.dtd">
<!-- Creator: CorelDRAW 2021 (64-Bit) -->
<svg xmlns="http://www.w3.org/2000/svg" xml:space="preserve" width="25.5341mm" height="17.4544mm" version="1.1" style="shape-rendering:geometricPrecision; text-rendering:geometricPrecision; image-rendering:optimizeQuality; fill-rule:evenodd; clip-rule:evenodd"
viewBox="0 0 187.1 127.9"
 xmlns:xlink="http://www.w3.org/1999/xlink"
 xmlns:xodm="http://www.corel.com/coreldraw/odm/2003">
 <defs>
  <style type="text/css">
   <![CDATA[
    .fil0 {fill:white}
   ]]>
  </style>
 </defs>
 <g id="Capa_x0020_1">
  <metadata id="CorelCorpID_0Corel-Layer"/>
  <g id="_2937099648976">
   <path class="fil0" d="M62.18 63.84l-1.25 0.66c-1.75,0.72 -11.66,5.58 -12.19,6.46 6.36,0.38 24.16,0.04 31.76,0.04 6.04,-0 5.56,0.43 12.01,-3.7 4.03,-2.59 17.57,-8.18 22.38,-9.45 4.47,-1.18 8.22,-2.32 13.11,-3.07 4.84,-0.75 8.42,-1.77 13.96,-1.85 5.26,-0.07 10.96,0.18 16.14,-0.05 -0.39,-0.33 -0.02,-0.11 -0.59,-0.32l-2.38 -0.46c-1.03,-0.21 -1.79,-0.26 -3.06,-0.43 -1.73,-0.23 -4.16,-0.86 -5.84,-1.01 -15.28,-1.37 -31.28,-1.54 -46.29,1.41 -1.96,0.38 -3.95,0.93 -5.85,1.18 -4.08,0.55 -14.65,3.94 -19.34,5.49 -2.32,0.76 -10.67,4.06 -12.54,5.1z"/>
   <path class="fil0" d="M155.53 58.54c0.36,-0.66 1.02,-0.33 1.98,-0.42 0.7,-0.07 1.37,-0.26 2.25,-0.31 1.76,-0.09 2.91,0.03 4.57,-0.19 3.11,-0.42 6.24,0.5 9.2,0.07 -0.9,-0.55 -2.77,-0.52 -3.41,-1.06 -1.68,0.04 -3.6,-0.38 -5.12,-0.77 -1.7,-0.44 -9.09,-0.82 -11.26,-0.84 -5.5,-0.03 -11.93,-0.41 -17.1,0.5 -7.78,1.38 -12.04,1.52 -19.93,4.13l-9.06 2.98c-2.63,0.9 -5.58,2.34 -8.42,3.64 -1.41,0.64 -2.78,1.38 -3.95,2.04l-2.97 1.56c-0.11,0.07 -0.37,0.26 -0.45,0.34 -0.42,0.43 -0.19,0.13 -0.49,0.7l28.75 0.03c2.43,-0.02 3.75,-1.62 6.58,-3.05 5.61,-2.82 7.13,-3.51 13.22,-5.8 2.4,-0.91 13.69,-3.77 15.58,-3.57z"/>
   <path class="fil0" d="M83.81 38.86c0.05,0.7 0.33,1.24 -0.34,1.24 -0.39,0.6 -0.18,0.5 -0.96,0.64 -0.34,-0.6 -0.23,-0.25 -0.26,-1.17l-0.12 -0.88c-0.38,-1.06 -1.86,-0.84 -3.16,-0.76 -0.85,0.72 -1.09,0.25 -1.21,1.68l-0.05 1.15 -12.98 -0.06 0.06 6.64 0.53 -0.12c0.67,-0.51 26.28,-0.21 26.98,-0.21 9.2,0 18.4,0.03 27.6,-0 0.47,0.15 0.27,-0 0.5,0.34 0.48,-0.26 0.26,-5.5 0.34,-6.43 -2.13,0.09 -11.7,0.37 -12.89,-0.12 -0.82,-0.64 0.02,-0.94 -0.49,-2.33 -1.71,-0.24 -1.99,-0.36 -3.74,-0.1 -0.21,0.11 -0.08,-0.24 -0.5,0.45l0.11 0.68c-0.01,0.07 -0.07,0.68 -0.07,0.71 -0.14,0.55 -0.05,0.21 -0.31,0.55 -0.9,-0.21 -0.61,-0.08 -0.89,-0.85 -0.51,-0.27 -0.23,-0.12 -0.37,-1.07l-0.74 -1.05 -7.9 -0.01 -0.49 0.02 -7.85 0.03 -0.78 1.04z"/>
   <path class="fil0" d="M155.2 68.95c0.24,-0.27 0.13,-0.2 0.52,-0.45 0.05,-0.04 0.2,0.02 0.24,-0.09 0.05,-0.12 0.17,-0.05 0.26,-0.08 0.44,-0.3 1.05,-0.44 1.58,-0.66 0.56,-0.23 1.14,-0.57 1.73,-0.84 0.59,-0.27 3.05,-1.14 3.8,-1.31 0.96,-0.87 3.28,-1.32 4.8,-1.53 0.41,-0 8.48,-1.31 12.71,-1.31 1.33,0 3.46,0.15 4.64,0.04l1.61 0.01c-1.36,-0.53 -0.19,0.02 -0.81,-0.55 -10.9,-2.45 -21.81,-3.28 -33.16,-1.17 -6.07,1.12 -8.65,2.02 -14.6,3.9 -2.2,0.69 -11.74,4.94 -12.33,6.08 7.33,0.21 15.71,-0.02 23.28,0.03 3.19,0.02 3.49,-1.35 5.71,-2.06z"/>
   <path class="fil0" d="M43.51 105.88l2.58 0.05c0.17,-0.83 0.04,-0.81 0.59,-1.45l5.47 -24.31c1.18,1.52 5.03,21.9 6.63,25.93l1.97 -0.07 5.62 -25.74c0.32,-1.43 0.55,-3.07 1.03,-4.21 0.31,-0.74 0.48,-1.01 1.28,-1.24l-4.99 -0.17c1.01,0.12 1.97,-0.22 2.55,0.67 0.89,1.36 -4.17,22.79 -4.92,25.75 -1.22,-3.92 -6.07,-25.35 -6.91,-26.69l-1.54 -0.02 -6.4 28c-0.93,-4.57 -1.81,-9.04 -2.62,-13.47 -0.47,-2.56 -2.78,-11.55 -2.11,-13.68 0.54,-0.7 2.15,-0.24 2.97,-0.97l-10.44 0.03c0.44,0.37 0,0.08 0.61,0.32 0.22,0.08 0.39,0.1 0.63,0.16 0.45,0.11 0.45,0 0.91,0.3 0.54,0.35 0.73,1.02 0.88,1.59 0.36,1.36 0.61,2.93 0.89,4.23l5.34 25.01z"/>
   <path class="fil0" d="M-0 62.31c0.05,0.04 0.14,0.01 0.17,0.08 0.03,0.07 0.13,0.06 0.18,0.07 0.04,0.01 0.13,0.04 0.19,0.05 0.78,0.11 1.92,-0.21 2.94,-0.24 10.69,-0.32 15.1,0.38 25.58,3.87 7.51,2.5 4.73,4.25 12.31,4.25 4.32,0 3.39,0.15 6.57,-1.75 1.6,-0.96 3.77,-2.06 5.38,-2.98 -6.89,-3.22 -16.61,-5.37 -25.21,-6.13 -5.14,-0.46 -10.02,-0.08 -15.11,0.14l-6.66 0.98c-1.49,0.34 -5.43,1.11 -6.34,1.66z"/>
   <path class="fil0" d="M49 12.65c0.05,-0.05 0.12,-0.12 0.17,-0.15 0.05,-0.03 0.15,-0.1 0.2,-0.13l0.52 -0.14c1.28,-0.94 4.74,-2.41 6.31,-3.07 19.23,-8.05 37.41,-9.67 58.02,-5.47 13.95,2.84 28.65,10.4 39.15,19.12l10.18 9.4c0.91,-1.26 0.93,-0.92 -1.85,-3.69 -7.93,-7.93 -16.39,-14.16 -26.95,-19.21 -12.61,-6.03 -27.39,-9.72 -43.71,-9.27 -21.46,0.59 -42.7,8.77 -57.71,21.37 -2.52,2.11 -12.21,10.64 -13.24,13.3l0.7 0.74c0.73,-0.3 2.54,-2.51 3.1,-3.17 1.1,-1.27 1.97,-2.18 3.15,-3.37 2.12,-2.12 4.28,-3.99 6.74,-6.05 4.12,-3.43 9.48,-7.19 15.22,-10.22z"/>
   <path class="fil0" d="M12.59 57.37c0.64,0.23 6.67,-0.18 7.75,-0.3 1.88,-0.2 6.4,0.22 8.27,0.45 2.87,0.34 5.39,0.28 7.99,0.85 2.41,0.53 4.64,1.02 7.12,1.6 1.51,0.35 2.06,0.7 3.23,1.07 1.26,0.39 2.32,0.64 3.47,1.07 7.65,2.88 3.92,2.62 12.49,-1.04 1.19,-0.51 1.94,-0.89 3.03,-1.31 0.73,-0.28 2.61,-0.77 2.99,-1.45 -1.05,-0.69 -10.97,-2.53 -13.02,-2.77 -4.75,-0.56 -9.55,-1 -14.53,-1.2 -5.61,-0.22 -16.29,0.59 -21.92,1.79 -2.25,0.48 -4.89,0.55 -6.86,1.25z"/>
   <path class="fil0" d="M110.17 105.36c-0.31,0.36 0.25,0.37 -0.57,0.44l6.98 0.01c-1.07,0.09 -0.28,-0.09 -0.58,-0.4 -1.51,-1.15 -0.92,-6.28 -0.93,-8.48 -0.01,-2.2 -0.27,-2.58 0.74,-4.06 0.63,-0.91 1.01,-2.03 2.18,-2.61 0.51,1.49 1.83,3.56 2.59,4.98 4.53,8.41 4.27,10.86 11.52,10.86 -0.14,-1.14 -0.61,0.14 -2.52,-2.82 -1.41,-2.2 -4.74,-8.7 -5.78,-9.87l-0.44 -0.88 -3.35 -5.91 -0.17 0.02c-0.43,0.17 -1.8,2.33 -2.24,2.98 -0.41,0.6 -0.69,0.97 -1.13,1.62 -0.59,0.85 -0.58,1.09 -1.38,1.5 -0.07,-3.61 -0.01,-7.26 -0.01,-10.87 0,-2.36 -0.53,-6.44 1.01,-7.04 0.41,-0.16 1.77,-0.15 2.1,-0.6l-10.38 0.05c1.04,0.89 2.45,-0.25 3.05,1.58 0.5,1.51 0.25,18.95 0.25,21.82 0,2.1 0.69,6.57 -0.94,7.68z"/>
   <path class="fil0" d="M40.37 50.34c-0.41,0.59 0.42,0.17 -0.76,0.6 -0.36,0.13 -2.87,0.11 -4.8,0.83 2.89,0.18 14.21,-0.3 15.84,1.03 3.38,0.46 6.8,0.37 10.01,1.27 2.11,0.59 5.73,1.06 9.43,2.11 4.64,1.32 3.72,0.2 9,-1.31 2.84,-0.81 6.22,-1.99 9.07,-2.54 0.5,-0.47 -0.47,-0.02 0.63,-0.56l-2.54 -0.49c-0.4,-0.15 -0.36,-0.2 -0.56,-0.34 -0.83,0.03 -3.95,-0.54 -5.18,-0.67 -13.1,-1.34 -15.98,-1.12 -29.12,-1.02 -1.48,0.01 -7.85,1.19 -11.01,1.09z"/>
   <path class="fil0" d="M90.28 31.86c-5.34,0 -4.48,-0.12 -4.36,-5.17 0.06,-2.67 0.02,-5.98 0.98,-8.16l11.66 0.06c0.84,2.24 0.79,3.87 0.89,6.35 0.33,7.87 1.76,6.92 -9.17,6.92zm-4.57 -16.21l-0.95 1.56c-3.47,0.18 -3.82,-0.34 -4.05,1.03l3.95 0.57c0.37,1.59 0.15,5.78 0.09,7.63 -0.23,7.15 0.01,4.01 -2.23,5.52 0.83,2.95 5.1,1.98 10.03,1.98 2.01,-0 4.01,0.06 6.02,0.05 2.59,-0.01 3.69,0.1 4.32,-2.03l-1.78 -0.55c-0.42,-1.01 -1.06,-11.64 -0.23,-12.45 0.75,-0.72 3.03,0.03 3.81,-1.05 -0.35,-0.55 0,-0.25 -0.64,-0.45 -0.16,-0.05 -1,-0.11 -1.21,-0.12 -0.76,-0.03 -1.51,-0.03 -2.27,-0.07 -0.34,-0.52 -0.08,-0.31 -0.33,-0.77l-0.57 -0.84c0.48,-0.68 1.39,-1.96 1.36,-2.93l-16.68 -0.01c0.02,0.64 0.92,2.25 1.37,2.94z"/>
   <path class="fil0" d="M32.67 126.68c0.33,-0.66 2.59,-0.4 3.42,-0.41 1.25,-0.02 2.51,-0.02 3.76,-0.02l116.37 0.03 -0.01 -1.23 -108.34 0.06c-1.75,0 -14.22,0.47 -15.26,-0.44 -0.46,0.25 -0.79,-0.1 -0.65,1.11 0.17,1.43 -0.26,0.55 0.69,0.91z"/>
   <path class="fil0" d="M104.08 99.94c-1.1,2.37 -0.74,4.24 -3.47,5.59 -2.28,1.13 -5.41,0.21 -6.79,-1.1 -4.58,-4.34 -4.72,-23.81 -0.41,-28.45 1.37,-1.48 4.31,-2.59 6.57,-1.05 1.69,1.15 2.01,4.1 2.06,6.77 6.37,0.32 2.8,-10.86 -8.06,-7.36 -5.2,1.68 -7.44,7.72 -7.7,14.3 -0.28,6.94 1.31,13.4 5.71,16.37 2.36,1.59 6.1,1.98 9.14,0.98 1.33,-0.44 2.51,-1.38 3.18,-2.33 0.76,-1.08 1.46,-3.21 -0.21,-3.73z"/>
   <path class="fil0" d="M140.19 105.31c-0.29,0.39 0.15,0.56 -0.7,0.44l7.22 0.04c-1.09,0.06 -0.24,-0.05 -0.58,-0.41 -1.37,-0.97 -0.93,-4.54 -0.93,-6.69 0,-2.45 0.26,-5.15 -0.08,-7.53 -1.28,-0 -0.22,0.08 -0.56,-0.41 -0.08,-1.07 -2.58,-6.29 -3.2,-7.76 -0.61,-1.44 -3.25,-6.53 -2.67,-7.84 0.68,-0.46 0.5,-0.31 1.31,-0.43 1.11,-0.16 1.03,-0.03 1.53,-0.47l-9.73 0.02c0.74,0.64 1.18,0.4 1.85,1.12 0.69,0.75 5.16,10.9 5.78,12.25 1.84,4 1.79,3.36 1.79,8.53 0,2.57 0.75,7.91 -1.03,9.14z"/>
   <path class="fil0" d="M74.53 74.87c1.64,0.55 1.14,4.58 1.14,7.01 0,2.76 0,5.52 0,8.28 0,3.02 0.75,13.9 -0.81,15.25 -0.29,0.32 0.48,0.54 -0.58,0.36l6.69 0.05c-1.07,0.05 -0.24,-0.07 -0.57,-0.42 -1.36,-1.14 -0.84,-5.02 -0.84,-7.21l0 -16.56c0,-2.05 -0.6,-6.15 1.17,-6.74 0.73,-0.69 1.21,-0.25 1.99,-0.51l-10.17 0.05c0.28,0.04 0.66,0 0.92,0.04 0.45,0.06 0.3,0.03 0.7,0.16 0.05,0.02 0.15,0.17 0.19,0.12 0.04,-0.06 0.12,0.09 0.17,0.13z"/>
   <path class="fil0" d="M32.63 124.66c1.03,0.91 13.51,0.44 15.26,0.44l108.34 -0.06 0.01 1.23 -116.37 -0.03c-1.25,-0 -2.51,-0 -3.76,0.02 -0.84,0.01 -3.1,-0.25 -3.42,0.41 1.55,0.21 5.87,-0.23 7.94,-0.19 17.87,0.32 36.5,0.01 54.44,-0.02 17.89,-0.04 36.6,0.36 54.44,0.16 1.56,-0.02 6.08,-0.37 7.39,0.42l-0.1 -3.01c-0.36,0.35 -0.29,-0.2 -0.51,0.54 -2.2,-0.11 -5.42,0.15 -7.78,0.17 -28.07,0.25 -56.91,0.03 -85.05,0.03 -8.45,0 -18.71,-0.19 -27.09,0.11 -1.25,0.04 -2.57,-0.33 -3.72,-0.23z"/>
   <path class="fil0" d="M107.83 40.81l-0 -1.3 12.49 -0.03 0.03 1c-1.48,0.71 -9.98,-0.18 -12.51,0.33zm0.04 -3.77l12.47 0.08 -0.13 1.73 -12.33 -0.02 -0 -1.79zm-30.12 2.58c0.12,-1.43 0.35,-0.96 1.21,-1.68 -1.3,0.06 -0.53,0.18 -1.01,-0.22 0.18,-0.87 -0.02,-0.68 1.26,-0.72l13.2 0.06 0.02 0.73 0.49 -0.02 0.12 -0.7c1.86,-0.15 13.32,-0.28 14.32,0.14 -0.11,1.28 -0.06,0.72 -1.78,0.6 -1.43,-0.09 -1.57,0.05 -1.98,0.55 1.75,-0.26 2.03,-0.14 3.74,0.1 0.5,1.39 -0.34,1.69 0.49,2.33 1.2,0.49 10.77,0.21 12.89,0.12 -0.14,-1.07 0.26,-4.35 -0.38,-4.84l-0.03 -0.12c-0.34,0.41 0.38,0.36 -0.93,0.43 -9.11,-0.03 -18.23,0.01 -27.34,-0l-26.36 0c-1.05,0.17 -0.46,0.01 -0.99,0.32l1.49 0.34c0.5,0.02 1.23,-0.03 1.77,-0.03 2.26,-0.01 8.38,-0.28 9.63,0.2l0 1.51c-2.26,0.67 -11.4,-0.51 -12.88,0.5 0.31,0.15 0.14,0.12 0.73,0.21 0.1,0.01 0.64,0.05 0.76,0.05 2.83,0.05 9.64,-0.3 11.56,0.13z"/>
   <path class="fil0" d="M32.33 42.46c4.25,-2.2 4.18,-9.36 1,-11.39 -1.67,0.68 -3.23,2.86 -3.45,5.16 -0.29,2.99 0.89,4.92 2.45,6.22z"/>
   <path class="fil0" d="M36.46 46.48c0.55,0.11 0.23,-0.01 0.76,0.17 0.4,0.14 0.37,0.21 0.53,0.32 4.08,0.35 4.66,-0.27 7.14,-2.19 -0.79,-1.63 -2.96,-3.25 -5.29,-3.45 -2.69,-0.23 -5.35,0.85 -6.25,2.41 0.82,1.21 1.64,2.07 3.1,2.74z"/>
   <path class="fil0" d="M149.51 31.19c-0.16,0.6 -0.98,1.47 -1.34,2.43 -1.25,3.34 0.04,6.81 2.82,8.69 1.63,-0.76 2.78,-3.47 2.53,-6.08 -0.28,-2.9 -1.65,-3.86 -3.21,-5.21l-0.8 0.18z"/>
   <path class="fil0" d="M138.54 44.56c4.43,4.56 10.1,2.13 11.63,-1.05 -1.65,-1.31 -3.07,-2.48 -6.21,-2.22 -2.87,0.23 -4.09,1.89 -5.41,3.27z"/>
   <path class="fil0" d="M133.61 40.48c0.58,0.61 1.51,1.44 2.51,1.86 3.84,1.63 0.59,-1.61 9.36,-2.6 -3.55,-4.34 -10.46,-2.99 -11.87,0.73z"/>
   <path class="fil0" d="M141.4 34.37c0.13,-3.3 -0.71,-3.89 1.12,-6.9 0.77,-1.26 0.49,-1.69 -0.37,-2.99 -0.59,-0.9 -1.3,-1.48 -2.19,-2.03 -1.53,0.91 -2.77,3.85 -2.31,6.62 0.49,2.97 2.29,4.05 3.75,5.3z"/>
   <path class="fil0" d="M136.28 29.98c0.02,-3.8 -0.4,-3.99 1.28,-6.96 1.06,-1.88 -1.71,-4.27 -2.87,-4.84 -1.26,1.7 -2.57,3.21 -2.15,6.44 0.34,2.59 1.96,4.53 3.74,5.37z"/>
   <path class="fil0" d="M41.98 34.12c4.06,-1.43 5.28,-8.78 1.39,-11.63 -5.09,3.13 -2.08,5.24 -1.5,7.47 0.36,1.36 0.21,2.71 0.11,4.16z"/>
   <path class="fil0" d="M38.04 39.8c8.26,0.64 5.48,4.3 9.36,2.48 1.04,-0.49 1.68,-1.02 2.43,-1.8 -1.2,-3.85 -9.06,-4.83 -11.78,-0.68z"/>
   <path class="fil0" d="M146.52 38.51c-0.19,-3.04 -0.51,-4.19 1.01,-6.75 1.21,-2.02 -0.7,-4.1 -2.56,-5.06 -4.15,3.05 -2.24,10.05 1.55,11.81z"/>
   <path class="fil0" d="M47.95 31.35c6.38,0.34 6.34,2.57 7.46,2.89 1.96,-0.08 3.88,-1.17 4.52,-2.53 -3.2,-3.99 -8.5,-4.41 -11.98,-0.35z"/>
   <path class="fil0" d="M123.41 31.95c0.84,1.18 2.43,2.2 4.5,2.38 2.47,-1.77 3.02,-2.93 7.35,-2.94 -2.02,-3.64 -9.74,-3.81 -11.85,0.56z"/>
   <path class="fil0" d="M42.93 35.64c8.26,0.2 5.52,4.28 9.53,2.37 0.92,-0.43 1.77,-1.16 2.44,-1.8 -1.32,-3.42 -8.39,-5.22 -11.97,-0.57z"/>
   <path class="fil0" d="M128.49 36.22c0.88,1.14 2.42,2.14 4.44,2.36 1.08,-0.67 1.76,-1.57 3.14,-2.2 1.3,-0.59 2.83,-0.58 4.48,-0.81 -0.94,-0.48 -2.25,-2.81 -6.12,-2.72 -2.65,0.06 -5.01,1.51 -5.94,3.38z"/>
   <path class="fil0" d="M36.95 38.39c4.15,-1.57 4.91,-8.74 1.4,-11.64 -1.25,0.49 -3.61,3.04 -2.82,4.71 1.55,3.24 1.63,2.64 1.42,6.93z"/>
   <path class="fil0" d="M47.25 28.91l-0.04 0.8 0.46 -0.2c3.57,-1.62 4.11,-8.87 0.72,-11.29 -5.03,3 -2.08,5.51 -1.59,7.05 0.45,1.43 0.27,2.24 0.45,3.64z"/>
   <path class="fil0" d="M131.78 27.34c-0.23,-1.15 -0.57,-1.73 -0.69,-2.96 -0.15,-1.49 -0.25,-1.72 -1.25,-2.4 -0.01,-0 -6.51,-3.58 -5.82,0.29 0.08,0.47 0.23,0.96 0.39,1.41 0.3,0.84 0.8,1.65 1.25,2.24 1.55,1.99 3.06,1.24 6.12,1.42z"/>
   <path class="fil0" d="M51.9 26.1l-0.24 1.18 1.06 -0.19c3.05,0.21 3.5,0.47 4.97,-1.4 0.98,-1.25 1.74,-2.98 1.54,-5.04 -2.17,-0.13 -3.72,0.03 -5.36,0.99 -2.1,1.24 -1.6,1.88 -1.97,4.46z"/>
   <path class="fil0" d="M144.57 90.75c0.34,0.49 -0.72,0.41 0.56,0.41l0.72 -1.1c0.19,-0.42 0.26,-0.61 0.47,-1.07 0.39,-0.85 0.63,-1.46 0.98,-2.26l3.94 -9.1c0.28,-0.62 0.82,-1.84 1.09,-2.19 0.97,-1.23 1.59,-0.14 2.18,-1.09 -0.87,-0.32 -6.4,-0.32 -7.28,0 0.36,0.32 -0.5,0.24 1,0.38 1.1,0.1 1.82,-0.33 2.88,0.45 0.19,1.77 -3.35,9.27 -4.45,11.87 -0.28,0.66 -0.55,1.24 -0.84,1.96 -0.35,0.87 -0.4,1.63 -1.24,1.74z"/>
   <path class="fil0" d="M119.85 86.64l0.17 -0.02c0.34,-0.23 0.19,-0.09 0.47,-0.37l2.09 -2.93c1.07,-1.51 4.91,-7.34 6.17,-8.12 0.65,-0.4 0.44,-0.19 1.1,-0.4 0.9,-0.29 0.36,0.01 0.78,-0.45 -0.75,-0.27 -6.62,-0.32 -7.36,0 0.38,0.91 1.23,-0.02 3.37,0.75 0.66,2.15 -5.63,8.69 -6.81,11.54z"/>
   <path class="fil0" d="M98.95 115.85c-0.35,-0.92 -0.21,-2.06 -0.21,-3.08 1.9,-0.01 3.39,-0.38 3.31,1.72 -0.07,1.71 -1.56,1.36 -3.1,1.36zm1.96 0.55c3.32,-0.74 2.29,-5.32 -2.74,-4.06 -0.15,1.96 -0.31,5.33 0.14,7.14 0.64,-0.33 0.43,0.01 0.45,-1.2 0.01,-0.59 -0.02,-1.24 -0.02,-1.84 1.61,0.01 1.56,0.43 2.22,1.44 0.3,0.46 0.49,0.84 0.65,1.08 0.49,0.73 -0.08,0.49 1.02,0.49l-1.72 -3.05z"/>
   <path class="fil0" d="M37.56 115.82l-0.18 -3.02 1.22 -0.07c1.52,-0.06 2.61,0.44 2.04,2.22 -0.36,1.12 -1.9,0.98 -3.08,0.87zm1.99 0.61c2.55,-0.61 3.48,-5.06 -2.64,-4.13 -0.18,0.91 -0.46,6.36 0.2,7.18 0.29,-0.37 0.17,0.14 0.31,-0.72 0.01,-0.05 0.02,-0.66 0.02,-0.74 0,-0.5 -0.02,-1.02 -0.02,-1.52 1.95,-0.19 1.42,0.3 2.84,2.34 0.54,0.78 0.15,0.44 1.06,0.64l-1.77 -3.04z"/>
   <path class="fil0" d="M154.79 112.87c3.89,-0.46 2.69,5.74 1.33,6.19 -1.84,0.6 -2.36,-0.72 -2.47,-2.29 -0.14,-1.94 -0.06,-2.82 1.14,-3.89zm2.94 5.14c0.69,-2.14 0.47,-6.6 -3.12,-5.68 -2.63,0.68 -2.44,8.86 1.73,7.32 0.77,-0.28 1.14,-0.87 1.39,-1.64z"/>
   <path class="fil0" d="M29.82 52.06c-0.29,0.37 0.16,0.47 -0.37,0.29l0.49 0.22c1.69,0.05 3.16,-0.34 4.9,-0.35 1.76,-0.01 3.51,-0.02 5.27,-0.02 3.58,0 7.09,0.19 10.54,0.61 -1.63,-1.33 -12.95,-0.85 -15.84,-1.03 1.93,-0.71 4.43,-0.69 4.8,-0.83 1.18,-0.43 0.35,-0.01 0.76,-0.6l-10.55 1.72z"/>
   <path class="fil0" d="M128.92 112.3c-0.86,1.61 -0.01,5.51 0.29,7.16 1.79,0.39 3.54,0.8 3.9,-1.5 0.19,-1.22 0.4,-4.86 -0.17,-5.68 -0.99,0.57 -0.32,4.92 -0.57,6.11 -0.63,0.77 -1.05,0.8 -2.13,0.64 -1.92,-1.35 -0.06,-6.12 -1.32,-6.74z"/>
   <path class="fil0" d="M155.53 58.54c3.6,0 7.33,-0.57 11.02,-0.55 1.49,0.01 9.83,0.7 10.45,0.05 -0.82,-0.49 -0.69,-0.12 -1.6,-0.3 -0.44,-0.09 -1.13,-0.37 -1.61,-0.51 -1.17,-0.33 -2.47,-0.8 -3.66,-0.6 0.64,0.54 2.51,0.51 3.41,1.06 -2.97,0.42 -6.1,-0.49 -9.2,-0.07 -1.67,0.22 -2.81,0.1 -4.57,0.19 -0.89,0.05 -1.56,0.24 -2.25,0.31 -0.96,0.1 -1.62,-0.24 -1.98,0.42z"/>
   <path class="fil0" d="M144.55 115.55c-0.91,0.49 -1.65,0.33 -2.93,0.29l0 -3.08c1.11,-0.04 2.79,-0.27 3.21,0.61 0.14,0.3 0.18,0.76 0.15,1.12 -0.02,0.28 -0.04,0.4 -0.14,0.65 -0.02,0.05 -0.07,0.12 -0.09,0.16l-0.21 0.25zm-0.78 0.92c1.77,-0.54 1.94,-1.11 1.76,-3.13 -0.63,-1.42 -2.87,-1.13 -4.33,-1.09 -0.25,1.07 -0.18,4.35 -0.17,5.77 0.01,1.7 0.18,1.18 0.55,1.44l0.04 -3.01c1.55,-0.06 1.55,0.27 2.26,1.37 1.42,2.17 0.49,1.52 1.63,1.6l-1.75 -2.94z"/>
   <path class="fil0" d="M68.91 112.8c2.11,-0.15 2.47,0.63 2.57,2.68 0.25,4.91 -3.57,4.92 -3.7,1.02 -0.07,-1.95 -0.02,-2.66 1.13,-3.7zm2.96 5.2c0.6,-1.59 0.27,-4.25 -0.74,-5.21 -3.05,-2.88 -5.58,3.78 -3.08,6.34 1.4,1.43 3.25,0.35 3.81,-1.14z"/>
   <path class="fil0" d="M74.04 114.77c-0.24,-3.34 2.52,-1.6 3.89,-1.29 -0.17,-0.6 -0.08,-0.6 -0.73,-0.94 -3.16,-1.67 -5.45,2.37 -2.64,3.4 0.97,0.35 2.24,0.17 2.76,0.99 0.81,1.27 -0.09,2.2 -1.35,2.26 -1.79,0.09 -1.46,-0.67 -2.67,-0.85 0.6,1.92 4.46,2.03 4.83,-0.17 0.47,-2.8 -2.55,-2.18 -4.1,-3.4z"/>
   <path class="fil0" d="M111.22 115.84c-0.34,-0.92 -0.2,-2.05 -0.2,-3.06 2.61,-0.11 3.91,-0.2 3.11,2.74 -1.05,0.46 -1.66,0.36 -2.91,0.32zm-0.2 0.62c2.16,-0.11 4.29,0.31 4,-2.48 -0.21,-2.03 -2.8,-2.11 -4.52,-1.61 -0.18,1.28 -0.33,6.17 0.11,7.1 0.75,-0.4 0.41,-0.42 0.41,-3.01z"/>
   <path class="fil0" d="M104.5 117.25c-0.77,-5.29 3.14,-5.85 3.65,-2.53 0.84,5.45 -3.19,5.66 -3.65,2.53zm-0.59 -0.25c0.39,4.05 5.56,4.01 4.87,-2.02 -0.21,-1.85 -1.42,-3.43 -3.49,-2.52 -1.41,0.62 -1.55,2.84 -1.38,4.54z"/>
   <path class="fil0" d="M87 116.62c0,-0.88 0.64,-2.64 1.02,-3.3 0.48,0.71 1.04,2.41 1.03,3.3l-2.05 -0zm-1.49 2.81c0.99,-0.29 0.35,-0.02 1.19,-2.23l2.65 -0c0.94,2.31 0.18,1.9 1.18,2.24 0.18,-0.58 -0.78,-2.92 -1.02,-3.69 -0.3,-0.96 -0.57,-2.98 -1.49,-3.49 -0.93,0.54 -2.56,6.97 -2.51,7.17z"/>
   <path class="fil0" d="M117.11 112.77c1.13,-0.07 2.91,0.21 3.72,-0.29 -0.89,-0.55 -3,-0.3 -4.27,-0.19l-0.01 7.23c1.01,0.06 3.72,0.46 4.29,-0.37l-3.75 -0.1 0.16 -2.93 2.86 -0.08c0.59,-0.14 0.25,-0.07 0.52,-0.3 -0.91,-0.38 -2.39,-0.15 -3.51,-0.23l-0.02 -2.74z"/>
   <path class="fil0" d="M159.2 118.26c0.41,1.56 2.7,1.95 3.95,1.12 1.31,-0.87 0.97,-2.88 -0.28,-3.45 -1.16,-0.53 -3.67,-0.17 -2.96,-2.34 0.6,-1.82 3.85,-0.13 3.85,-0.12 -0.63,-2.38 -6.13,-1.22 -4.21,1.76 0.85,1.33 2.19,0.65 3.2,1.29 0.4,0.26 0.75,0.74 0.65,1.42 -0.38,2.61 -4.14,0.34 -4.2,0.32z"/>
   <path class="fil0" d="M29.02 116.74c-1.89,-1.89 -3.92,-0.64 -4.05,-2.51 -0.19,-2.7 3.57,-0.85 3.97,-0.85 -0.47,-1.83 -4.87,-1.61 -4.56,1.04 0.37,3.11 4.69,0.25 4.06,4.02 -1.68,1.74 -2.76,0.28 -4.15,-0.16 0.49,1.93 5.41,2.67 4.73,-1.54z"/>
   <path class="fil0" d="M28.59 125.78c1.16,1.27 0.72,2.53 0.92,1.86 0.01,-0.04 0.04,0.13 0.09,0.25l2.01 -0.67 0.03 -3.04 -2.06 -0.66c-0.03,0.05 -0.06,0.14 -0.07,0.18l-0.91 2.08z"/>
   <path class="fil0" d="M156.78 124.03l0.1 3.01c0.55,0.5 1.02,0.66 1.89,0.76 0.2,-0.53 0.19,-0.74 0.45,-1.29 0.3,-0.63 0.28,-0.32 0.51,-0.98 -0.62,-0.7 -0.51,-0.65 -0.77,-1.46l-0.2 -0.57 -1.99 0.53z"/>
   <path class="fil0" d="M44.99 119.5l-0.26 -0.7 0.69 0.19c0.5,-0.63 2.31,-6.02 1.96,-6.68 -0.8,0.5 -1.68,4.48 -2.32,6.11 -0.52,-0.77 -1.34,-3.78 -1.66,-4.92 -0.05,-0.19 -0.17,-0.59 -0.25,-0.73 -0.38,-0.63 -0.2,-0.29 -0.54,-0.47 -0.33,0.82 0.99,3.93 1.44,5.47 0.63,2.16 0.47,1.42 0.93,1.74z"/>
   <path class="fil0" d="M59.62 118.19c-0.37,0.06 -3.39,2.61 -3.96,-0.94 -0.41,-2.52 -0.13,-4.61 2.56,-4.41 0.64,0.53 0.63,0.86 1.33,1.02 -0.13,-2.12 -4.65,-3.03 -4.65,2.13 0.01,4.69 3.87,4.61 4.71,2.2z"/>
   <path class="fil0" d="M127.06 118.06c-0.05,0.03 -3.53,3.24 -4.03,-1.05 -0.31,-2.64 -0.02,-4.41 2.66,-4.19l1.22 1.08c0.06,-0.86 -0.3,-1.17 -0.92,-1.45 -4.83,-2.18 -4.88,9.1 -0.04,7.13 0.81,-0.33 0.9,-0.74 1.12,-1.52z"/>
   <path class="fil0" d="M147.17 112.48c0.72,0.38 0.67,0.21 1.78,0.3l-0.09 6.22c-1.03,0.07 -1.09,-0.2 -1.82,0.43l3.72 0.17c1.29,-0.22 0.33,-0.04 0.65,-0.41l-1.86 -0.23 -0 -6.14 1.85 -0.34c-0.51,-0.34 -2.63,-0.34 -3.42,-0.26 -0.93,0.1 0.47,-0.11 -0.44,0.08l-0.37 0.18z"/>
   <path class="fil0" d="M137.15 113.18l1.06 3.4 -2.23 0.06c0.1,-1.22 0.67,-2.75 1.17,-3.46zm-2.11 4.81l-0.08 0.55c0.03,-1.44 -0.19,0.09 0.43,-0.54l0.3 -0.8c1,-0.03 1.77,-0.13 2.67,0.16 0.72,-0.21 0.66,0.72 0.54,-0.69 -0.38,-0.87 -0.64,-1.73 -0.88,-2.49 -0.28,-0.89 -0.2,-1.57 -1.07,-1.91 -0.62,0.62 -1.93,4.8 -1.91,5.72z"/>
   <path class="fil0" d="M61.26 112.6l1.88 0.24 -0.01 6.17 -1.87 0.24c0.2,0.19 -0.07,0.14 0.44,0.29 0.73,0.21 3.27,0.06 3.93,-0.13 -0.76,-0.62 -0.82,-0.31 -1.92,-0.41l-0.01 -6.25 1.62 -0.19c0.03,-0.07 0.12,-0.06 0.17,-0.09 -0.4,-0.21 0.33,-0.06 -0.57,-0.23 -0.79,-0.15 -3.12,-0.12 -3.67,0.35z"/>
   <path class="fil0" d="M49.11 112.48l0.33 0.16c0.69,0.18 -0.33,-0.01 0.43,0.08 0.2,0.02 0.81,0.01 1.06,0.01l-0.01 6.34 -1.82 0.17c0.62,0.51 1.03,0.36 2.05,0.35 0.84,-0.01 1.46,0 2.31,-0.09 -0.36,-0.34 0.02,-0.19 -0.58,-0.41l-1.36 -0.1 -0.04 -6.17 1.87 -0.35c-0.63,-0.39 -1.31,-0.25 -2.21,-0.25 -1.28,-0 -1.34,-0.14 -2.03,0.25z"/>
   <path class="fil0" d="M95.05 119.48l-0.13 -0.36c-2.75,0.16 -2.85,-1.87 -2.54,-4.35 0.5,-3.86 3.79,-0.91 3.82,-0.9 -0.1,-2.1 -3.88,-2.68 -4.46,0.86 -0.4,2.46 0.84,6.48 3.3,4.75z"/>
   <path class="fil0" d="M121.78 38.83c-0.04,0.46 0,6.29 -0.27,5.56 -0.01,-0.03 -0.08,0.12 -0.12,0.17 -0.48,-1.37 -0.18,-3.52 -0.17,-5.09 0.16,-0.8 -0.26,-0.21 0.57,-0.64zm-1.06 2.09c-0.08,0.93 0.14,6.17 -0.34,6.43 0.24,0.45 -0.44,0.55 0.39,0.32 0.46,-4.54 0.68,-2.21 1.2,-3.18 0.01,-0.02 0.35,-4.63 -0.19,-5.66 -1.07,-0.31 -0.84,0 -0.91,-3.02 -1.07,-0.21 -0.16,-0.08 -0.53,0.27 0.63,0.5 0.23,3.77 0.38,4.84z"/>
   <path class="fil0" d="M146.14 105.38c0.34,0.36 -0.51,0.47 0.58,0.41l-7.22 -0.04c0.85,0.12 0.41,-0.04 0.7,-0.44 -2.67,0.64 -2.18,-0.31 -2.74,0.65 0.78,0.38 10.74,0.4 11.48,0 -0.45,-0.88 -0.07,-0.13 -2.8,-0.58z"/>
   <path class="fil0" d="M34.81 119.53c0.24,-0.32 0.53,0.39 0.15,-0.41l-3.68 -0.11 0.2 -2.81 2.85 -0.1c0.64,-0.17 0.2,-0.06 0.51,-0.36 -0.89,-0.43 -2.39,-0.17 -3.52,-0.28l-0.02 -2.86c-0.32,0.31 -0.3,0.06 -0.45,0.85l0.14 1.78c0.24,2 -0.59,2.22 0.14,4.04l3.68 0.24z"/>
   <path class="fil0" d="M80.4 105.39c0.33,0.35 -0.5,0.47 0.57,0.42l-6.69 -0.05c1.06,0.19 0.29,-0.03 0.58,-0.36 -1.05,0.14 -2.24,-0.12 -2.59,0.55 0.77,0.41 9.95,0.38 10.73,0 -0.33,-0.55 0.19,-0.34 -0.97,-0.43 -0.65,-0.05 -0.94,-0.03 -1.64,-0.14z"/>
   <path class="fil0" d="M116 105.41c0.3,0.31 -0.49,0.49 0.58,0.4l-6.98 -0.01c0.81,-0.07 0.25,-0.09 0.57,-0.44 -1.03,0.2 -2.18,-0.06 -2.43,0.6 0.61,0.37 9.93,0.36 10.53,0 -0.28,-0.67 -1.27,-0.42 -2.26,-0.55z"/>
   <path class="fil0" d="M74.53 74.87c-0.06,-0.04 -0.14,-0.19 -0.17,-0.13 -0.04,0.06 -0.13,-0.1 -0.19,-0.12 -0.4,-0.13 -0.25,-0.1 -0.7,-0.16 -0.26,-0.03 -0.64,-0 -0.92,-0.04l10.17 -0.05c-0.78,0.26 -1.27,-0.18 -1.99,0.51 2.49,-0.12 1.89,0.16 2.38,-0.53 -0.93,-0.45 -10.01,-0.48 -10.91,0 0.46,0.75 1.28,0.48 2.34,0.52z"/>
   <path class="fil0" d="M63.57 44.54c1.3,0.2 0.35,0.2 0.73,-0.49l0.02 -7.26c-0.45,-0.71 0.06,-0.24 -0.75,-0.44l0.01 8.18z"/>
   <path class="fil0" d="M34.81 119.53l-3.68 -0.24c-0.73,-1.83 0.1,-2.04 -0.14,-4.04l-0.14 -1.78c0.15,-0.8 0.13,-0.54 0.45,-0.85 1.02,0.12 2.9,0.32 3.68,-0.12 -0.9,-0.53 -2.95,-0.23 -4.23,-0.19l0 7.25 4.06 -0.01z"/>
   <path class="fil0" d="M94.92 119.12l0.13 0.36c1.27,-0.37 0.23,-0.01 1.42,-0.08l-0.07 -3.02c-0.77,-0.31 -1.34,-0.47 -2.18,0.12l0.81 0.29c0.02,0 0.71,0.03 0.78,0.03 -0.01,1.53 -0.03,1.57 -0.9,2.3z"/>
   <path class="fil0" d="M121.78 38.83c-0.83,0.44 -0.4,-0.16 -0.57,0.64 -0,1.56 -0.31,3.72 0.17,5.09 0.04,-0.06 0.11,-0.21 0.12,-0.17 0.27,0.73 0.23,-5.1 0.27,-5.56z"/>
   <path class="fil0" d="M88.15 52.33l1.63 -0.25c-0.22,-0.62 0.64,-0.53 -1.73,-0.86 -0.83,-0.11 -1.45,-0.25 -2.36,-0.28 0.2,0.14 0.16,0.19 0.56,0.34l2.54 0.49c-1.1,0.53 -0.13,0.08 -0.63,0.56z"/>
   <path class="fil0" d="M163.33 65.52c0.83,-0.15 1.54,-0.45 2.53,-0.67 1.29,-0.3 1.63,-0.18 2.28,-0.85 -1.53,0.21 -3.84,0.66 -4.8,1.53z"/>
   <path class="fil0" d="M82.25 39.58l1.01 -0.16c0.37,0.38 0.13,-0.01 0.21,0.69 0.66,0 0.39,-0.54 0.34,-1.24l-1.68 -0.16 0.12 0.88z"/>
   <path class="fil0" d="M138.36 117.37c0.54,0.98 0.32,1.63 1.1,2.15 0.13,-0.27 0.45,0.4 -0.11,-1.39 -0.16,-0.51 -0.3,-0.99 -0.44,-1.45 0.11,1.42 0.17,0.48 -0.54,0.69z"/>
   <path class="fil0" d="M29.94 52.56l-0.49 -0.22c0.54,0.19 0.08,0.08 0.37,-0.29l-2.3 0.45c0.28,0.34 -1.06,0.56 1.03,0.49l1.38 -0.44z"/>
   <path class="fil0" d="M101.93 39.92c0.29,0.77 -0.01,0.64 0.89,0.85 0.25,-0.33 0.16,-0 0.31,-0.55 0.01,-0.03 0.07,-0.65 0.07,-0.71l-1.23 -0.06 -0.05 0.48z"/>
   <path class="fil0" d="M83.47 40.11c-0.09,-0.69 0.16,-0.31 -0.21,-0.69l-1.01 0.16c0.03,0.92 -0.09,0.56 0.26,1.17 0.78,-0.14 0.57,-0.04 0.96,-0.64z"/>
   <path class="fil0" d="M101.93 39.92l0.05 -0.48 1.23 0.06 -0.11 -0.68 -1.54 0.02c0.15,0.95 -0.14,0.81 0.37,1.07z"/>
   <path class="fil0" d="M43.51 105.88c0.3,0.24 0.06,0.18 0.61,0.32l2.12 0 0.45 -1.72c-0.55,0.64 -0.42,0.62 -0.59,1.45l-2.58 -0.05z"/>
   <path class="fil0" d="M135.39 118c-0.62,0.62 -0.4,-0.9 -0.43,0.54l0.08 -0.55c-0.12,0.13 -0.41,0.01 -0.56,0.88 -0.26,1.41 -0.15,0.12 0.22,0.69 0.65,-0.53 0.54,-0.64 0.7,-1.56z"/>
   <path class="fil0" d="M52.71 27.09l-1.06 0.19 0.24 -1.18c-0.55,0.69 -0.43,0.6 -0.64,1.42 0.7,-0.04 0.71,0.14 1.45,-0.43z"/>
   <path class="fil0" d="M47.66 29.51l-0.46 0.2 0.04 -0.8c-0.33,0.42 -0.21,-0.55 -0.35,0.56 -0.17,1.45 -0.04,0.35 0.23,0.71 0.69,-0.49 0.22,-0.2 0.53,-0.67z"/>
   <path class="fil0" d="M44.99 119.5c0.61,-0.2 0.21,0.17 0.44,-0.52l-0.69 -0.19 0.26 0.7z"/>
   <path class="fil0" d="M37.75 46.97c-0.16,-0.11 -0.13,-0.18 -0.53,-0.32 -0.53,-0.18 -0.21,-0.07 -0.76,-0.17 0.24,0.17 -0.01,0.16 0.55,0.35 0.6,0.2 0.1,0.05 0.75,0.14z"/>
   <path class="fil0" d="M149.51 31.19l0.8 -0.18c0,-0.84 -0.6,-0.04 -0.8,0.18z"/>
   <path class="fil0" d="M60.93 64.5l1.25 -0.66c-0.82,0.19 -0.59,-0.07 -1.25,0.66z"/>
   <path class="fil0" d="M123.82 93.41c-0.16,-0.97 -0.12,-0.58 -0.44,-0.88l0.44 0.88z"/>
   <path class="fil0" d="M155.2 68.95l1.02 -0.62c-0.09,0.03 -0.22,-0.04 -0.26,0.08 -0.04,0.11 -0.19,0.06 -0.24,0.09 -0.39,0.25 -0.28,0.18 -0.52,0.45z"/>
   <path class="fil0" d="M49 12.65l0.89 -0.42 -0.52 0.14c-0.05,0.03 -0.15,0.09 -0.2,0.13 -0.05,0.03 -0.12,0.1 -0.17,0.15z"/>
  </g>
 </g>
</svg>
