<?xml version="1.0" encoding="UTF-8"?>
<!DOCTYPE svg PUBLIC "-//W3C//DTD SVG 1.1//EN" "http://www.w3.org/Graphics/SVG/1.1/DTD/svg11.dtd">
<!-- Creator: CorelDRAW 2021 (64-Bit) -->
<svg xmlns="http://www.w3.org/2000/svg" xml:space="preserve" width="15.7362mm" height="14.4037mm" version="1.1" style="shape-rendering:geometricPrecision; text-rendering:geometricPrecision; image-rendering:optimizeQuality; fill-rule:evenodd; clip-rule:evenodd"
viewBox="0 0 37.13 33.99"
 xmlns:xlink="http://www.w3.org/1999/xlink"
 xmlns:xodm="http://www.corel.com/coreldraw/odm/2003">
 <defs>
  <style type="text/css">
   <![CDATA[
    .fil0 {fill:white}
   ]]>
  </style>
 </defs>
 <g id="Capa_x0020_1">
  <metadata id="CorelCorpID_0Corel-Layer"/>
  <g id="_2936947835936">
   <path class="fil0" d="M24.65 3.02c0.22,-0.07 2.03,-0.05 2.37,-0.04 0.72,0.03 1.45,0.1 2.09,0.31 1.26,0.42 2.14,1.22 2.75,2.07 1.4,1.97 1.85,4.82 1.9,7.74 0.05,2.94 -0.51,5.82 -1.9,7.76 -0.58,0.82 -1.49,1.72 -2.71,2.12 -0.73,0.24 -1.27,0.3 -2.11,0.3 -0.79,-0 -1.6,0.01 -2.39,-0.01 -0.04,-0.18 -0.01,-1.02 -0.01,-1.27l0 -13.95c0,-0.36 -0.03,-4.83 0.01,-5.06l-0 0zm12.49 11.4l0 -1.41c-0.04,-0.11 -0.06,-1.24 -0.08,-1.49 -0.04,-0.47 -0.07,-0.93 -0.13,-1.4 -0.32,-2.49 -0.94,-4.95 -2.42,-6.84 -0.46,-0.58 -0.96,-1.04 -1.59,-1.5 -1.95,-1.42 -3.58,-1.69 -5.99,-1.75 -0.23,-0.01 -1.37,-0 -1.48,-0.04l-2.24 0c-0.11,0.04 -0.78,0.03 -0.95,0.03 -0.34,0.01 -0.63,0.04 -0.96,0.07 -0.04,0.19 -0.01,2.81 -0.01,3.24 0,7.61 -0.02,15.24 0,22.85 0.41,0.09 1.17,0.09 1.63,0.1 1.39,0.04 3.84,0.03 5.13,-0.07 3.87,-0.28 6.55,-2.44 7.97,-5.95 0.54,-1.34 0.83,-2.74 1.01,-4.22 0.03,-0.26 0.05,-0.53 0.07,-0.78 0.01,-0.15 0.02,-0.29 0.02,-0.44l0.03 -0.41 -0 0z"/>
   <path class="fil0" d="M3.41 13.79c-0.11,-2.19 0.2,-4.97 0.87,-6.83 0.67,-1.86 1.73,-3.57 3.77,-3.93 2.4,-0.43 3.81,1.54 4.52,3.09 1.79,3.92 1.75,10.69 -0.24,14.56 -0.66,1.28 -1.61,2.4 -3.12,2.65 -2.15,0.37 -3.77,-1.22 -4.57,-3.04 -0.82,-1.84 -1.12,-4.25 -1.23,-6.5l0 -0zm-3.41 -1.52l0 1.19c0.05,0.13 0.06,1.03 0.08,1.26 0.18,2.36 0.78,5.49 1.93,7.44 0.53,0.9 0.79,1.26 1.42,1.92 0.33,0.35 0.35,0.35 0.7,0.65 0.21,0.18 0.52,0.4 0.77,0.55 0.44,0.27 0.87,0.47 1.37,0.65 0.69,0.24 1.52,0.38 2.32,0.38 6.2,0.04 8.54,-6.64 8.62,-12.82 0.04,-2.72 -0.47,-6.59 -1.77,-8.94 -0.65,-1.18 -1.36,-2.14 -2.39,-2.97 -0.97,-0.78 -2.21,-1.41 -3.86,-1.51 -2.58,-0.16 -4.92,1.02 -6.4,2.91 -0.2,0.26 -0.37,0.5 -0.56,0.79 -2.26,3.41 -2.16,8.32 -2.23,8.5l0 0z"/>
   <path class="fil0" d="M28.42 33.82c0,-1.29 -0.11,-1.77 0.36,-2.89 0.19,-0.47 0.89,-1.89 0.9,-2.34l-0.62 0.01 -0.95 2.33c-0.38,-0.5 -0.62,-1.7 -0.95,-2.34l-1.4 0 -0.75 4.03 -0.87 -4.04 -0.77 0.02c-0.09,0.27 -0.17,0.76 -0.22,1.05l-0.52 2.69c-0.02,0.12 -0.09,0.41 -0.1,0.5l-0.76 -4.23 -0.63 -0.03c0,0.36 0.14,0.93 0.19,1.3 0.09,0.66 0.52,3.21 0.72,3.71 0.09,0.23 0.06,0.22 0.53,0.22 0.41,-0.01 0.36,0.03 0.43,-0.33l0.46 -2.51c0.07,-0.42 0.18,-0.81 0.27,-1.2l0.38 2.1c0.1,0.54 0.23,1.57 0.51,1.94l0.76 -0.01c0.08,-0.17 0.21,-1.02 0.27,-1.29 0.1,-0.42 0.17,-0.85 0.26,-1.27l0.46 -2.24c0.01,-0.05 0.02,-0.1 0.03,-0.15l0.06 -0.14c0.16,0.26 0.79,1.81 0.96,2.22 0.56,1.35 0.24,1.71 0.33,2.82l0.67 0.06 0 0z"/>
   <path class="fil0" d="M4.32 14.92c-0.02,1.1 0.19,2.03 0.36,3.03 0.14,-0.04 0.32,-0.16 0.45,-0.24 0.4,-0.23 0.92,-0.52 1.34,-0.71 1.57,-0.7 3.55,-1.22 5.27,-1.58 0.35,-0.07 0.81,-0.15 1.13,-0.24 0.05,-0.32 0.07,-0.65 0.06,-0.99 -0.99,-0.3 -3.44,-0.21 -4.51,-0.06 -1.21,0.17 -2.97,0.42 -4.1,0.78l-0 0z"/>
   <path class="fil0" d="M12.86 15.84c-1.22,-0.02 -3.28,0.6 -4.43,1.01 -0.77,0.28 -2.95,1.24 -3.55,1.85 0.01,0.28 0.34,1.06 0.45,1.3 0.12,0.26 0.31,0.61 0.48,0.84 0.07,0.09 0.14,0.17 0.19,0.25 0.16,-0.03 1.39,-0.95 1.6,-1.1 0.96,-0.7 2.18,-1.54 3.25,-2.08 0.75,-0.38 1.08,-0.52 1.83,-0.84l0.17 -1.23 -0 0z"/>
   <path class="fil0" d="M32.74 15.9c-0.37,-0.04 -1.66,0.25 -2.06,0.34 -1.23,0.27 -2.49,0.73 -3.65,1.18 -0.57,0.22 -1.15,0.49 -1.71,0.68l0.01 3.25c0.1,-0.04 0.33,-0.24 0.42,-0.32 0.9,-0.69 1.98,-1.47 2.94,-2.05 1.09,-0.66 2.44,-1.48 3.84,-1.87l0.2 -1.22 -0 0z"/>
   <path class="fil0" d="M25.33 17.37c0.23,-0.05 0.65,-0.23 0.89,-0.32 0.28,-0.11 0.58,-0.22 0.88,-0.33 1.27,-0.46 2.33,-0.8 3.67,-1.11 0.67,-0.16 1.35,-0.26 2.02,-0.4 0.02,-0.11 0.07,-0.93 -0.06,-1.03 -0.16,-0.12 -1.44,-0.18 -1.69,-0.19 -1.31,-0.02 -4.39,0.09 -5.55,0.48 -0.19,0.06 -0.13,0.13 -0.13,0.61 -0,0.7 -0.04,1.64 -0.02,2.29l-0 0z"/>
   <path class="fil0" d="M6.68 21.72c0.12,0.23 0.48,0.5 0.78,0.61 0.36,0.14 0.79,0.19 1.22,0.15 1.6,-0.14 2.49,-1.02 3.13,-2.39 0.22,-0.46 0.62,-1.54 0.69,-2.03 -0.98,0.08 -3.55,1.97 -4.47,2.63 -0.06,0.05 -1.27,0.93 -1.35,1.03l-0 0z"/>
   <path class="fil0" d="M25.61 22.37c1.84,0.15 3.28,0.06 4.55,-0.85 0.87,-0.62 2.01,-2.27 2.11,-3.4 -0.55,0.1 -1.47,0.59 -1.91,0.84 -0.58,0.33 -1.14,0.68 -1.67,1.05 -0.28,0.19 -2.92,2.1 -3.07,2.37l-0 0z"/>
   <path class="fil0" d="M3.79 31.63c-0.05,-0.43 -0.02,-1.09 0.08,-1.49 0.15,-0.54 0.2,-0.74 0.65,-0.95 1.62,-0.76 1.84,3.46 0.64,4.06 -0.51,0.25 -0.86,-0.04 -1.04,-0.37 -0.19,-0.35 -0.29,-0.8 -0.34,-1.26zm2.86 -0.16c0.1,-1.33 -0.4,-2.84 -1.54,-3 -0.33,-0.05 -0.71,0.05 -0.96,0.18 -0.82,0.41 -1.08,1.38 -1.11,2.31 -0.03,1.11 0.3,2.85 1.57,3 1.41,0.17 1.95,-1.21 2.04,-2.49l-0 -0z"/>
   <path class="fil0" d="M12.7 31.45c-0.05,-0.91 0.18,-2.1 0.89,-2.33 0.93,-0.3 1.25,1.07 1.29,1.86 0.04,0.9 -0.15,2.14 -0.89,2.34 -0.91,0.24 -1.24,-1.08 -1.28,-1.87l0 -0zm-0.72 0.14c0.1,1.23 0.77,2.65 2.16,2.34 0.6,-0.14 0.96,-0.57 1.17,-1.11 0.23,-0.59 0.33,-1.27 0.27,-1.99 -0.1,-1.24 -0.73,-2.66 -2.15,-2.33 -1.08,0.26 -1.56,1.73 -1.45,3.08l-0 0z"/>
   <path class="fil0" d="M18.15 33.25c-0.08,-0.51 -0.03,-1.45 -0.03,-2.01 0,-0.68 -0,-1.37 -0,-2.05 0.71,-0 1.12,0.06 1.45,0.49 0.29,0.37 0.38,0.97 0.38,1.54 -0,1.36 -0.37,2.07 -1.8,2.03l0 0zm-0.71 0.55c2.03,0.13 3.2,-0.14 3.19,-2.56 -0.01,-2.27 -0.91,-2.76 -3.15,-2.63 -0.05,0.15 -0.04,4.65 -0.04,5.19z"/>
   <path class="fil0" d="M34.11 29.19c0.31,-0.03 0.79,-0.03 1.05,0.09 0.29,0.13 0.38,0.38 0.37,0.79 -0.01,0.39 -0.13,0.63 -0.4,0.76 -0.23,0.11 -0.75,0.17 -1.03,0.11l0.01 -1.76zm1.25 2.21c0.06,-0.05 0.18,-0.11 0.26,-0.17 0.65,-0.45 0.77,-1.32 0.42,-2.02 -0.18,-0.36 -0.48,-0.54 -0.99,-0.61 -0.21,-0.03 -1.42,-0.05 -1.57,-0l-0.05 5.22 0.67 -0 0.01 -2.31c0.13,-0.02 0.31,-0 0.43,0.02 0.37,0.08 0.32,0.43 0.51,0.91 0.17,0.43 0.39,0.91 0.5,1.38l0.74 -0 -0.93 -2.42 0 -0z"/>
   <path class="fil0" d="M7.56 32.91c-0.14,0.15 -0.24,0.24 -0.33,0.46 0.14,0.22 0.52,0.51 0.91,0.59 1.22,0.25 2.39,-1.12 1.54,-2.36 -0.44,-0.64 -1.41,-0.75 -1.62,-1.4 -0.15,-0.47 0.11,-0.9 0.4,-1.04 0.45,-0.23 0.77,0.1 1.09,0.23 0.16,-0.18 0.28,-0.24 0.36,-0.58 -0.38,-0.14 -0.63,-0.31 -1.14,-0.32 -1.49,-0.03 -1.79,1.72 -0.98,2.53 0.48,0.48 1.45,0.6 1.47,1.46 0.02,0.89 -0.59,0.98 -1.22,0.68 -0.15,-0.07 -0.38,-0.24 -0.48,-0.27l0 0z"/>
   <path class="fil0" d="M30.28 33.82l2.31 -0.01 -0.01 -0.51c-0,-0.01 -0,-0.01 -0.01,-0.02l-1.59 -0.05c-0.01,-0.3 -0.05,-1.66 -0.02,-1.83l1.44 -0.02 -0 -0.53 -1.4 -0.02c-0.06,-0.21 -0.05,-1.35 -0.04,-1.64l1.54 -0.02 -0.01 -0.49c-0,-0.01 -0,-0.01 -0,-0.02l-0.02 -0.05c-0.1,-0.05 -1.88,-0.04 -2.13,-0.02l-0.05 5.23 0 -0z"/>
   <path class="fil0" d="M18.05 13.34l0.02 1.32c0.22,0.02 1.84,0.02 2.07,0 0.06,-0.7 0.03,-1.4 0.03,-2.1l-2.12 -0 0 0.78 0 -0z"/>
   <path class="fil0" d="M2.44 33.82c0.07,0 0.14,0 0.21,0 0.03,0 0.09,0 0.12,-0 0.01,-0 0.01,-0 0.02,-0l0.04 -0.01c0,-0.01 0.01,-0 0.03,-0.01l0.02 -0.55 -1.47 -0.07c-0,-1.51 0.02,-3.09 -0.01,-4.59l-0.62 0.01 -0.04 5.23 1.71 -0.01 -0 -0z"/>
   <path class="fil0" d="M16.13 30.46c0.63,0 0.53,0.09 0.52,-0.59l-0 -1.16c-0,-0.13 -0.03,-0.1 -0.18,-0.11 -0.1,-0 -0.2,-0.01 -0.3,-0l-0.05 1.86 0 0z"/>
  </g>
 </g>
</svg>
