<?xml version="1.0" encoding="UTF-8"?>
<!DOCTYPE svg PUBLIC "-//W3C//DTD SVG 1.1//EN" "http://www.w3.org/Graphics/SVG/1.1/DTD/svg11.dtd">
<!-- Creator: CorelDRAW 2021 (64-Bit) -->
<svg xmlns="http://www.w3.org/2000/svg" xml:space="preserve" width="30.0466mm" height="4.843mm" version="1.1" style="shape-rendering:geometricPrecision; text-rendering:geometricPrecision; image-rendering:optimizeQuality; fill-rule:evenodd; clip-rule:evenodd"
viewBox="0 0 190.87 30.76"
 xmlns:xlink="http://www.w3.org/1999/xlink"
 xmlns:xodm="http://www.corel.com/coreldraw/odm/2003">
 <defs>
  <style type="text/css">
   <![CDATA[
    .fil0 {fill:white}
   ]]>
  </style>
 </defs>
 <g id="Capa_x0020_1">
  <metadata id="CorelCorpID_0Corel-Layer"/>
  <g id="_2937077515136">
   <path class="fil0" d="M89.54 18.37c-1.22,-1.07 -5.2,-0.77 -7.62,-0.73l-2.57 0.73c0.78,2.85 1.51,0.47 3.31,2.91 4.29,10.23 -17.17,11.83 -16.56,-6.96 0.36,-11.03 9.45,-14.71 15.57,-11.33 3.29,1.82 2.98,3.76 3.38,5.17 0.34,1.18 -0.12,0.36 0.43,1.16 1.49,-0.61 0.61,0.59 1.5,-1.6 4.46,-10.94 -27.24,-12.33 -25.29,9.65 1.25,14.03 19.09,16.01 23.83,10.62 2.14,-2.44 -0.27,-5.2 2.25,-7.83 1.56,-1.63 0.74,0.09 1.76,-1.79z"/>
   <path class="fil0" d="M91.67 14.93c3.03,-0.11 1.12,-1.41 4.15,-1.32 1.42,5.14 -6.03,9.35 -3.38,15.95 6.29,1.39 8.35,-7.73 11.93,-8.35 0.68,3.51 -2.06,5.42 -0.71,8.32 3.49,0.41 6.18,-1.96 6.68,-4.76 -2.99,0.53 -1.49,1.31 -4.03,1.61 -0.81,-6.59 6.21,-11.24 3.37,-15.98 -2.83,-0.14 -3.04,1.14 -4.09,3.35 -1.6,3.33 -6.6,12.53 -10.21,12.41 -1.33,-5.64 5.75,-9.1 3.85,-15.46 -3.51,-1.14 -6.94,1.2 -7.56,4.23z"/>
   <path class="fil0" d="M3.72 11.79l-0.04 4.66c0.09,15.94 -2.51,10 -3.68,13.89 0.64,0.32 17.72,0.63 18.99,0.26 2.2,-1.56 1.87,-3.86 1.73,-6.9 -2.72,1.51 -1.92,7.13 -11.16,4.52 -2.41,-0.68 -2.42,-2.32 -2.47,-5.32 -0.07,-3.82 -0.38,-12.2 0.2,-15.49 1.04,-5.95 3.77,-2.32 3.53,-6.11 -1.95,-0.28 -8.8,-0.37 -10.08,0.38 0.77,1.92 -0.15,0.15 1.41,1.71 2.23,2.23 1.5,3.54 1.58,8.4z"/>
   <path class="fil0" d="M35.74 14.18c2.42,6.96 -4.52,16.39 -8.5,12.56 -2.47,-2.37 1.29,-14.75 8.5,-12.56zm-3.41 -3.01c-10.8,2.49 -12.43,22.56 -0.97,19.05 8.08,-2.47 13,-21.82 0.97,-19.05z"/>
   <path class="fil0" d="M173.1 14.42c0.03,3.88 -5.43,4.94 -5.8,2.43 -0.32,-2.19 3.24,-5.72 5.8,-2.43zm-7.25 11.86c-1.45,-2.19 -1.53,-4.02 -0.04,-6.24 4.25,-0.6 5.28,0.69 8.63,-2.03 2.3,-1.87 2.92,-5.54 -0.17,-7.18 -5.88,-3.12 -11.16,4.03 -12.2,8.51 -1.64,7 2.11,13.34 9.12,9.55 1.33,-0.72 6.16,-5.52 2.83,-5.1 -2.09,0.26 -2.87,3.95 -8.17,2.5z"/>
   <path class="fil0" d="M115.37 12.82c1.77,0.99 0.61,-0.38 2.38,1.01 0.4,5.49 -7.19,15.91 -1.03,15.96 2.64,-2.57 3.11,-13.02 9.14,-16.08 1.97,1.03 0.42,0.8 2.52,1.76 1.57,-0.96 2.61,-3.04 1.29,-4.41 -2.87,-3.36 -7.31,4.08 -9.36,5.35 -1.38,-2.51 1.13,-3.96 -0.51,-5.64 -1.75,-1.79 -3.92,0.47 -4.42,2.04z"/>
   <path class="fil0" d="M49.61 26.73c-4.09,1.47 -4.25,-1.53 -6.58,-1.54 -2.65,8.91 15.25,5.76 9.54,-2.08 -1.18,-1.61 -5.66,-4.35 -5.44,-6.78 0.15,-1.77 1.63,-2.78 3.36,-2.26 2.33,0.71 0.93,1.69 3.84,2.14 2.46,-5.68 -5.83,-7.28 -8.38,-2.24 -1.35,2.66 -0.78,5.18 0.59,7.09 1.5,2.1 3.97,2.45 3.08,5.66z"/>
   <path class="fil0" d="M179.08 24.61c-1.33,7.18 9.45,6.56 10.55,1.54 1.4,-6.41 -9.79,-6.91 -5.11,-12.66 3.4,-0.68 3.56,1.39 5.93,2.23 2.87,-7.61 -10,-7.44 -9.04,1.55 0.39,3.62 3.99,4.6 4.53,6.83 1.27,5.2 -5.61,0.45 -6.86,0.5z"/>
   <path class="fil0" d="M146.42 24.3c-0.57,3.71 0.17,4.93 3.8,5.45 3.52,0.5 6.18,-0.92 6.72,-3.5 1.21,-5.79 -10.24,-8.45 -4.98,-12.65 3.62,-1.38 3.61,2.18 5.77,1.86 0.79,-1.55 0.61,-1.55 0.27,-3.57 -6.37,-4.44 -11.23,2.19 -8.69,7.25 1.05,2.08 4.34,3.56 4.13,5.8 -0.37,3.89 -6.07,-0.34 -7.03,-0.64z"/>
   <path class="fil0" d="M133.64 14.94l2.22 1.31c-0.49,3.96 -5.13,9.71 -2.4,13.23 2.95,1.12 6.5,-1.67 6.93,-3.95 -2.58,-0.03 -5.47,2.65 -2.48,-6.21 0.91,-2.7 3.66,-6.86 3.35,-8.77 -3.11,-0.71 -6.6,2.97 -7.62,4.4z"/>
  </g>
 </g>
</svg>
