<?xml version="1.0" encoding="UTF-8"?>
<!DOCTYPE svg PUBLIC "-//W3C//DTD SVG 1.1//EN" "http://www.w3.org/Graphics/SVG/1.1/DTD/svg11.dtd">
<!-- Creator: CorelDRAW 2021 (64-Bit) -->
<svg xmlns="http://www.w3.org/2000/svg" xml:space="preserve" width="38.3737mm" height="8.7539mm" version="1.1" style="shape-rendering:geometricPrecision; text-rendering:geometricPrecision; image-rendering:optimizeQuality; fill-rule:evenodd; clip-rule:evenodd"
viewBox="0 0 497.56 113.5"
 xmlns:xlink="http://www.w3.org/1999/xlink"
 xmlns:xodm="http://www.corel.com/coreldraw/odm/2003">
 <defs>
  <style type="text/css">
   <![CDATA[
    .fil0 {fill:white}
   ]]>
  </style>
 </defs>
 <g id="Capa_x0020_1">
  <metadata id="CorelCorpID_0Corel-Layer"/>
  <g id="_2360699027888">
   <path class="fil0" d="M76.56 71.93l0.4 0.27c6.09,0 11.73,2.89 15.41,6.23 2.02,1.83 3.66,3.85 5.12,6.41 1.07,1.88 3.25,6.18 3.44,8.87l0.21 0.44c0.24,1.65 0.43,2.7 0.68,4.5 0.24,1.75 0.29,2.63 1.28,3.72l0.27 0.26 1.08 0.09 0.4 0.27c1.76,0 3.52,0 5.28,0 2.09,0 3.41,0.34 5.13,0.36 3.92,0.07 7.09,0.34 10.83,0.34 6.56,0 14.66,0.71 21.38,0.71 7.54,0 14.28,0.4 21.66,0.36 2.13,-0.01 3.08,0.37 5.13,0.36 1.8,-0.01 3.61,0 5.42,0 3.61,-0.01 6.92,0.36 10.82,0.36 2.14,0 14.49,0.4 15.94,-0.38 3.32,-1.82 2.37,-10.39 14.37,-17.31 6.42,-3.7 19.71,-4.48 25.78,4.5 1.41,2.08 3.45,6.26 3.99,9.3l0.21 0.36c0.7,2.61 1.6,4.48 4.12,4.61 9.3,0.51 8.23,-0.57 12.17,-9.24 4.54,-9.96 9.09,-11.71 18.42,-11.65l7.57 -0.36c20.75,0 41.5,0 62.25,0 10.48,0 20.09,0.35 30.59,0.35 10.38,0 20.75,0 31.13,0l54.14 0.36c2.9,0 4.74,-0.36 7.58,-0.36 0.27,-1.51 0.51,-4.4 -0.11,-5.87 -0.49,-1.18 -3.12,-1.17 -4.21,-1.22l-31.02 0.16c-2.62,0.52 -16.6,0.21 -20.42,0.21 -3.53,0 -6.31,0.36 -10.02,0.36l-92.91 0.36 -0.47 0.27c-3.7,0.46 -8.86,0.09 -12.72,0.09 -4.24,0 -8.48,0 -12.71,0 -9.7,0 -16.46,-1 -23.01,3.54l-0.27 0.36c-3.94,2.73 -7.24,5.96 -8.89,11.38 -0.39,1.26 -0.48,1.47 -1.01,2.58 -0.51,1.12 -0.75,1.43 -1.2,2.32l-0.27 0.36c-1.93,1.69 -2.96,0.91 -4.05,-1.42 -0.58,-1.24 -1.89,-4.84 -2.17,-6.37l-0.21 -0.36c-0.62,-2.3 -2.35,-5.2 -3.7,-6.58 -5.58,-5.66 -13.3,-6.96 -21.26,-6.14 -6.18,0.63 -14.42,4.09 -18.62,9.62 -0.89,1.17 -1.26,1.63 -2.04,3 -3.24,5.66 -1.77,7.94 -6.95,7.9 -2.52,-0.02 -6.26,0.29 -8.63,-0.06 -7.08,-1.04 -21.65,0.33 -25.68,-0.39 -2.5,-0.44 -5.74,0.09 -8.43,-0.31 -5.19,-0.76 -11.68,0.3 -17.09,-0.39l-0.47 -0.27 -25.55 -0.66c-3.04,-0.44 -5.57,0.09 -8.35,-0.76 -1.43,-8 -1.71,-13.6 -7.37,-20.44 -4.18,-5.07 -10.43,-8.42 -16.23,-9.23 -12.5,-1.75 -18.72,1.76 -28.01,7.85 -2.1,1.37 -5.73,3.45 -6.86,6.25 1.66,-0.18 4.9,-2.41 6.46,-3.23 5.12,-2.72 7.37,-4.74 13.61,-5.92 2.35,-0.44 6,-1 8.62,-0.67l-0.02 0z"/>
   <path class="fil0" d="M191.86 0.25c-2.51,0.32 -4.49,0.19 -6.88,0.65 -2.02,0.39 -4.66,0.5 -6.79,0.5l-0.4 0.27c-4.23,0.53 -7.21,0.56 -12,1.4 -2.09,0.37 -3.91,0.69 -5.68,1.06l-5.54 1.16 -0.34 0.27c-7.56,1.19 -19.62,7.56 -26.33,11.32 -3.85,2.15 -7.84,5.26 -11.31,7.88 -7.17,5.39 -14.16,11.92 -20.79,18.47l-5.09 4.67c-2.27,1.66 -4.07,1.82 -7.05,2.46l-30.86 5.2 -0.34 0.27c-2.49,0.32 -6.42,1.73 -8.12,2.92l-0.27 0.36c-2.61,2.29 -3.51,5.87 -4.51,10.39 -0.49,2.25 -0.93,4.24 -1.41,6.29l-1.66 5.97 -0.27 0.36c-2.5,6.2 -2.61,-1.78 -5.78,13.33 -1.53,7.27 1.03,6.85 9.84,6.85 17.49,0 8.73,-0.97 14.68,-8.77 8.54,-11.22 18.9,-13.46 19.69,-16.36 -5.53,0 -15.5,5.97 -19.8,10.57 -1.29,1.38 -2.53,2.73 -3.59,4.5 -4.78,8.06 -5.17,6.3 -16.13,5.11 0.13,-7.37 2.51,-7.59 3.98,-8.6 2.94,-2.03 3.98,-8.68 4.92,-12.69 0.32,-1.35 0.7,-2.37 0.92,-3.85l0.21 -0.36c0.52,-2.94 1.82,-6.27 3.39,-7.95 1.17,-1.26 1.48,-1.34 3.29,-1.72 1.26,-0.26 2.65,-0.6 4.28,-0.6l0.4 -0.27c5.31,-0.67 32.97,-5.89 36.58,-7.47 1.91,-0.84 2.93,-2 4.46,-3.38 8.67,-7.84 20.76,-20.1 29.7,-25.94 1.78,-1.17 8.36,-5.3 9.93,-5.78l0.27 -0.27c4.61,-2.12 7.03,-3.8 12.34,-5.54 4.55,-1.5 9.06,-2.86 13.93,-3.73 7.3,-1.3 25.91,-4.08 31.11,-2.49 0.75,4.22 0.69,6.02 1.19,10.12 0.22,1.73 0.48,2.07 0.7,3.33l0.54 0c1.47,-8.22 0.86,-5.74 1.71,-13.69 0.53,-5.01 -0.12,-6.23 -2.24,-6.48l-4.48 0 -0.4 0.27 -0.03 -0.02z"/>
   <path class="fil0" d="M221.62 50.45l-3.39 0 0 -15.93c4.99,0 10.5,0.05 10.5,7.43 0,5.44 -2.19,8.5 -7.1,8.5l-0.01 0zm-12.96 -15.93c2.49,0.06 3.71,0.83 3.71,3.89 0,3.76 0.53,28.06 -0.62,29.39 -0.8,0.43 -1.88,0.71 -3.09,0.71l0 2.12c3.72,0 4.69,-0.36 6.48,-0.39l6.79 0.39 0 -2.12c-3.08,0 -3.71,-0.72 -3.71,-4.25l0 -11.68c14.68,0 7.88,6.27 10.39,14.98 1.44,5.02 10.75,5.35 10.9,-2.95 -1.74,0.04 -1.07,-0.29 -1.69,1.25 -0.61,1.5 -0.46,1.58 -2.02,1.58 -3.49,0 0.01,-10.53 -5.17,-14.24 -0.8,-0.57 -1.1,-0.78 -2.17,-1.06 -1.26,-0.33 -1.55,0.08 -2.23,-0.99 4.22,0 8.33,-3.4 8.33,-8.14 0,-3.56 -0.13,-6.39 -3.32,-8.58 -4.5,-3.09 -16.28,-2.04 -22.6,-2.04l0 2.12 0.02 0z"/>
   <path class="fil0" d="M418.54 50.45l-3.39 0 0 -15.93c4.99,0 10.5,0.05 10.5,7.43 0,5.44 -2.19,8.5 -7.1,8.5l-0.01 0zm-12.96 -15.93c2.48,0.06 3.71,0.83 3.71,3.89 0,3.76 0.53,28.06 -0.62,29.39 -0.8,0.43 -1.88,0.71 -3.08,0.71l0 2.12c3.72,0 4.69,-0.36 6.48,-0.39l6.79 0.39 0 -2.12c-3.08,0 -3.71,-0.72 -3.71,-4.25l0 -11.68c14.68,0 7.89,6.27 10.39,14.98 1.44,5.02 10.74,5.35 10.9,-2.95 -1.73,0.04 -1.06,-0.29 -1.69,1.25 -0.61,1.5 -0.46,1.58 -2.02,1.58 -1.66,0 -1.76,-2.66 -1.86,-4.58 -0.69,-13.19 -6.23,-9.39 -7.71,-11.69 4.22,0 8.33,-3.4 8.33,-8.14 0,-3.56 -0.13,-6.39 -3.32,-8.58 -4.49,-3.09 -16.27,-2.04 -22.6,-2.04l0 2.12 0.02 -0.01z"/>
   <path class="fil0" d="M374.72 51.16c0,-7.18 2.08,-17.7 9.57,-17.7 14.04,0 13.2,35.4 0.62,35.4 -7.57,0 -10.18,-8.84 -10.18,-17.7l-0.01 0.01zm-6.49 -0.71c0,6.53 0.87,10.56 4.25,14.95 3.35,4.38 7.61,5.58 13.04,5.58 8.4,0 15.44,-8.78 15.44,-18.4 0,-8.39 -1.76,-15.33 -8.65,-19.45 -9.06,-5.42 -24.06,0.65 -24.06,17.33l-0.01 -0.01z"/>
   <path class="fil0" d="M271.62 34.52c3.54,0 4.32,0.34 4.32,4.25l0 24.43c0,3.94 -0.51,5.31 -4.01,5.31l0 2.12c3.3,0 3.54,-0.33 4.95,-0.36l5.23 0.36 0 -2.12c-5.45,0 -4.32,-3.01 -4.32,-12.74 0,-6.02 0,-12.04 0,-18.05 0.84,0.71 17.77,27.28 19.8,30.39 1.31,2.01 1.24,2.88 4.28,2.88l0 -31.15c0,-1.89 0.32,-3.1 0.62,-4.6 1.06,-0.28 1.84,-0.68 3.09,-0.71l0 -2.12c-4.94,0 -1.8,0.53 -7.12,0.02 -0.84,-0.08 -1.9,-0.02 -2.76,-0.02l0 2.12c5.05,0 4.32,2.82 4.32,10.26 0,5.08 0,10.14 0,15.22l-17.27 -26.21c-1.72,-2.67 -3.52,-0.96 -6.18,-1.03 -1.06,-0.03 -1.21,-0.26 -2.19,-0.34 -0.84,-0.08 -1.9,-0.02 -2.76,-0.02l0 2.12 -0 0.01z"/>
   <path class="fil0" d="M491.07 32.4l-21.61 0 0 2.12c2.99,0 3.71,0.86 3.71,4.25l0 25.49c0,3.43 -0.68,4.25 -3.71,4.25l0 2.12 27.47 0c0,-3.81 0.62,-7.59 0.62,-11.33l-1.55 0c-0.22,11.19 -7.25,9.21 -16.98,9.21l0 -16.99c2.42,0 6.01,-0.43 7.11,1.75 0.45,0.91 0.92,3.81 0.92,5.32l1.55 0 0 -15.22 -1.55 0c-0.13,6.82 -2.48,6.01 -8.02,6.01l0 -14.86c8.58,0 14.82,-1.56 14.82,8.14l1.85 0c-0.02,-1.22 -0.22,-1.38 -0.3,-2.49 -0.06,-0.91 0,-1.91 0,-2.83 -0.02,-2.05 -0.33,-2.93 -0.33,-5.29 -1.76,0 -2.14,0.36 -4.01,0.36l0 0z"/>
   <path class="fil0" d="M351.87 51.51l-3.09 0 0 -16.99 2.46 0c5.46,0 7.72,2.59 7.72,8.85 0,5.22 -2.55,8.14 -7.1,8.14zm-12.66 -16.99c2.94,0.08 3.71,0.78 3.71,4.25 0,3.72 0.53,27.71 -0.62,29.03 -0.79,0.43 -1.88,0.71 -3.09,0.71l0 2.12 13.89 0 0 -2.12c-5.69,0 -4.32,-1.35 -4.32,-15.22 1.97,1.08 16.36,1.93 16.36,-9.56 0,-3.67 -0.12,-7.02 -3.6,-9.34 -4.47,-2.97 -16.2,-2 -22.34,-2l0 2.12 0 0.01z"/>
   <path class="fil0" d="M310.82 41.61c0,6.82 2.07,9.17 7.89,11.84 3.88,1.78 9.39,2.75 9.39,8.69 0,9.59 -15.44,9.91 -15.44,-5.31l-1.85 0 0 12.74 1.55 0c0.1,-1.38 0.28,-0.93 0.31,-2.47 1.28,0.78 2.22,1.82 3.61,2.58 5.16,2.82 17.38,2.29 17.38,-10.72 0,-12.19 -17.29,-9.05 -17.29,-18.76 0,-8.49 11.84,-9.55 13.9,0.34 0.67,3.21 0.03,3.14 1.84,3.19 0.61,-1.46 0,-3.51 0,-6.01 0,-2.36 0.31,-3.07 0.31,-5.31 -1.64,0 -1.73,0.01 -1.85,1.77 -2.7,-0.83 -2.42,-2.83 -9.57,-2.83 -5.45,0 -10.18,4.2 -10.18,10.26l0.02 -0.01z"/>
   <path class="fil0" d="M253.1 41.25l0.62 0c0.12,1.63 1.36,5.22 1.81,6.77 0.62,2.15 1.46,4.53 1.89,6.68l-8.33 0c0.24,-1.16 0.57,-2.18 0.93,-3.18 0.39,-1.12 0.63,-2.13 1.06,-3.39 0.47,-1.39 1.94,-5.64 2.03,-6.87l-0.01 -0.01zm-13.28 27.26l0 2.12 8.64 0 0 -2.12c-5.69,-0.54 -1.34,-5.09 0,-11.68l9.88 0c0.38,5.35 5.76,11.52 -0.62,11.68l0 2.12c5.57,0 3.92,-0.55 9.58,-0.02 1.11,0.11 2.54,0.02 3.69,0.02l0 -2.12c-3.45,-0.09 -3.54,-2.84 -4.98,-7.39l-9.23 -29.07 -2.78 0c-0.36,1.76 -0.89,3 -1.43,4.73l-9.36 28.91c-0.67,1.97 -1.05,2.76 -3.41,2.82l0.02 0z"/>
   <path class="fil0" d="M435.21 42.66l1.55 0c0.64,-8.84 5.09,-8.14 11.11,-8.14 0,4.14 0.55,31.93 -0.62,33.28 -1.03,0.57 -2.14,0.71 -3.71,0.71l0 2.12 14.51 0 0 -2.12c-3.54,0 -4.32,-0.34 -4.32,-4.25l0 -29.74c2.9,0 7.27,-0.38 9.18,1.87 0.83,0.99 1.81,4.53 1.94,6.27l1.55 0c0,-1.82 -0.19,-3.34 -0.4,-5.2 -0.12,-1.09 -0.5,-3.82 -0.52,-5.06l-29.33 0c-0.02,1.23 -0.4,3.96 -0.52,5.06 -0.21,1.86 -0.4,3.38 -0.4,5.2l-0.01 -0z"/>
   <path class="fil0" d="M174.4 42.66l1.55 0c0.64,-8.84 5.09,-8.14 11.11,-8.14 0,4.14 0.55,31.93 -0.62,33.28 -1.03,0.57 -2.14,0.71 -3.71,0.71l0 2.12c1.21,0 2.51,0.05 3.72,0.01 3.5,-0.12 1.45,-0.76 6.82,-0.06 1.17,0.15 2.75,0.05 3.97,0.05l0 -2.12c-3.54,0 -4.32,-0.34 -4.32,-4.25l0 -29.74c2.9,0 7.27,-0.38 9.18,1.87 0.83,0.99 1.81,4.53 1.94,6.27l1.55 0c0,-3.61 -0.88,-7.53 -0.93,-10.26l-29.33 0c-0.05,2.74 -0.93,6.66 -0.93,10.26l-0.01 -0z"/>
   <path class="fil0" d="M388.91 92.22l0 0.71c0.96,0.26 0.9,0.45 1.85,0.71 0,3.64 -1.05,14.55 -3.32,17.07 -1.06,1.17 -0.92,0.04 -1.3,1.69 2.04,1.12 5.6,0.58 7.71,0.29 -0.2,-2.74 -2.49,0.39 -2.48,-7.02 0.01,-2.92 0.92,-7.88 0.95,-9.21 1.04,0.88 5.38,12.76 6.71,15.31 0.5,0.97 0.6,1.37 1.62,1.69 1.36,-1.14 3.18,-5.89 4.12,-8.02 0.97,-2.23 2.72,-6.75 4.22,-7.91 0.67,3.31 0.93,9.93 0.93,13.81 -1.46,0.14 -1.32,0.27 -1.85,1.42 1.44,0 2.89,0.01 4.33,0.01 1.86,0 2.24,-0.36 4,-0.36 -1.63,-2.54 -2.14,1.67 -3.04,-6.79 -0.46,-4.41 -0.67,-6.27 -0.67,-10.91 0,-1.21 1.15,-1.32 2.16,-1.42l0 -1.07 -6.17 0c-1.48,3.21 -5.46,14.44 -7.41,15.93 -0.4,-2.01 -4.25,-9.85 -5.45,-12.86 -1.44,-3.6 -0.22,-3.42 -5.35,-3.42 -0.48,0 -1.17,0.19 -1.55,0.35l0.01 0.01z"/>
   <path class="fil0" d="M330.27 110.63l0.31 0.36c0.67,1.14 1.24,1.98 2.78,2.12 0,-5 -0.28,-11.21 0.46,-15.57l0.16 -0.3c0.1,-5.12 2.27,-2.59 2.47,-5.37 -1.64,-0.9 -5.2,-0.36 -7.41,-0.36 0.07,3.5 1.73,0.05 2.46,6.02 0.36,2.87 0.32,5.53 0.32,8.84 -2.7,-2.07 -9.87,-13.01 -11.36,-14.23 -1.58,-1.3 -4.86,-1.2 -6.55,-0.28 0.64,1.01 1.25,1.09 2.47,1.42 0.09,4.75 0.77,10.95 -0.73,15.45 -0.87,2.61 -1.6,1.37 -2.05,3.31 1.64,0.9 5.2,0.36 7.41,0.36 -0.34,-4.78 -2.78,4.03 -2.78,-16.99 1.42,0.87 3.26,3.9 4.55,5.39l5.93 7.7c0.56,0.84 1.05,1.29 1.55,2.13l-0.01 0.01z"/>
   <path class="fil0" d="M352.49 100.37c-0.44,0 -0.3,0.11 -0.3,-0.44l-0.24 -0.98c-0.82,-9.75 4.34,-5.52 5.22,-3.95 1.39,2.44 0.65,8.61 -4.68,5.37zm-6.17 12.12l0.39 0.27c2.58,0 5.54,0.21 7.64,-0.36 -0.28,-1.19 -0.13,-0.76 -1.01,-1.33 -0.51,-0.33 -0.99,-0.5 -1.47,-0.8l0.3 -7.79c1.2,0.93 3.56,5.32 4.72,6.97 0.84,1.19 1.39,2.37 2.66,2.97 1.06,0.49 3.89,0.56 4.96,-0.03 -0.43,-1.87 -1.19,-0.37 -4.4,-4.51 -0.85,-1.09 -3.04,-4.35 -3.32,-5.75 0.75,-0.23 1.83,-1.24 2.47,-1.76 1.08,-0.87 1.22,-1.13 1.84,-2.49l0.31 -0.35c1,-4.97 -1.21,-5.42 -5.24,-5.68 -2.23,-0.14 -5.09,-0.5 -7.73,-0.34 -1.38,0.08 -1.12,0.33 -2.46,0.36 0.91,3.91 2.46,-3.6 2.46,9.56 0,2.07 0.14,4.24 -0.08,6.28 -0.28,2.68 0.25,3.38 -2.39,3.63 0,1.7 0.06,0.64 0.31,1.15l0.02 0.01z"/>
   <path class="fil0" d="M427.19 111.34c-4.68,0 -3.71,-1.34 -3.71,-8.85 3.89,0 7.1,0.19 7.1,5.67 0,2.17 -1.47,3.18 -3.4,3.18l0.01 0zm-0.62 -10.26l-3.08 0 0 -7.08c1.31,-0.13 4.04,-1.12 5.5,0.78 1.05,1.36 2.23,6.31 -2.42,6.31l0 -0.01zm-6.79 -7.08c0,1.76 0.3,1.96 0.33,3.88 0.03,1.82 -0.09,3.08 -0.24,4.36 -0.28,2.35 -0.09,6.23 -0.09,8.75 -1.34,0.74 -2,-0.13 -2.16,2.12 3.61,0 7.95,0.41 10.92,-0.57 2.94,-0.98 5.75,-3.15 5.75,-7.21 0,-3.62 -3.11,-2.36 -4.32,-4.25 2.28,-0.7 7.9,-8.9 -2.78,-8.85 -3.18,0.01 -6.38,0 -9.57,0 0.29,1.23 1.03,1.47 2.16,1.77l-0 0z"/>
   <path class="fil0" d="M439.53 101.08c0,-3.84 3.12,-7.08 6.49,-7.08l1.85 0c3.79,0 8.02,5.3 8.02,9.56 0,2.25 0.06,4.6 -2.1,6.44 -5.13,4.37 -14.26,-0.05 -14.26,-8.92l0 0zm-3.39 2.83c0,3.55 1.29,5.09 3.01,6.82 4.23,4.29 18.09,5.01 20.25,-8.14 1.34,-8.17 -10.43,-15.06 -19.43,-7.38 -1.79,1.53 -3.83,5.33 -3.83,8.7z"/>
   <path class="fil0" d="M383.97 95.05l0.3 -0.35c1.02,-1.74 1.36,-0.42 1.85,-2.83 -2.06,0 -4.54,-0.15 -6.54,-0.03 -3.4,0.21 0.24,1.46 0.86,3.35 0.94,2.86 1.19,11.19 0.04,13.93 -1.39,3.3 -7.79,3.42 -9.79,0.79 -1.65,-2.17 -1.53,-9.89 -1.16,-14.16l0.24 -0.53c0.02,-1.03 0.15,-1.13 0.31,-1.95 1.57,0 1.73,0.34 1.85,-1.42 -1.76,0 -2.16,-0.37 -4.01,-0.37 -1.9,0 -2.39,0.37 -4.32,0.37l0 1.06c0.74,0.2 1.55,0.37 2.16,0.71 1.57,7.72 -3.58,19.55 8.02,19.48 3.21,-0.02 7.73,0.01 8.73,-4.86 0.4,-1.94 0.53,-4.24 0.52,-6.83 -0.01,-2.83 0.5,-4.21 0.94,-6.36l-0.01 0z"/>
   <path class="fil0" d="M298.17 101.08l-0.31 -0.36c-10.97,-6.65 -2.66,-9.82 0.1,-7.19 2.3,2.2 0.18,3.65 3.3,3.65l0 -4.96c-1.35,-1.04 -2.7,-1.74 -5.17,-1.34 -3.89,0.62 -11.36,4.96 -2.92,10.97 1.46,1.04 2.87,1.72 4.27,2.9 3.95,3.31 0.02,7.96 -4.41,5.77 -2.09,-1.03 -2.06,-2.33 -2.57,-4.84l-1.23 0c-0.4,1.99 -0.3,3.58 -0.3,6.01 7.37,4.06 19.63,-4.33 9.26,-10.62l-0.01 0z"/>
   <path class="fil0" d="M306.43 106.02l-0.24 0.62 0 3.63c-1.34,0.74 -2,-0.13 -2.16,2.12 2.26,0 6.74,0.52 8.33,-0.36 -0.52,-2.23 -1.72,-0.17 -2.36,-2.6 -0.48,-1.84 0.03,-13.77 0.2,-16.16 1.47,-0.39 1.82,0.03 2.16,-1.42 -1.59,-0.88 -6.08,-0.36 -8.33,-0.36l0 1.06c1.07,0.29 1.69,0.82 2.46,1.42l-0.08 12.04 0.01 0z"/>
   <path class="fil0" d="M352.49 100.37l-0.3 -0.44c0,0.55 -0.14,0.44 0.3,0.44z"/>
   <polygon class="fil0" points="161.89,3.73 161.43,3.99 "/>
   <polygon class="fil0" points="134.96,7.62 134.57,7.88 "/>
   <polygon class="fil0" points="115.44,20.81 115.13,21.07 "/>
   <polygon class="fil0" points="18.91,57.88 18.52,58.16 "/>
   <polygon class="fil0" points="9.26,61.08 8.95,61.43 "/>
   <polygon class="fil0" points="23.16,63.64 22.69,63.91 "/>
   <polygon class="fil0" points="177.94,2.31 177.48,2.57 "/>
   <polygon class="fil0" points="369.78,95.23 369.54,95.76 "/>
   <polygon class="fil0" points="74,96.47 73.77,96.03 "/>
   <polygon class="fil0" points="333.97,97.24 333.82,97.53 "/>
   <polygon class="fil0" points="361.44,97.53 361.13,97.88 "/>
   <polygon class="fil0" points="352.18,99.92 351.95,98.95 "/>
   <polygon class="fil0" points="298.17,101.08 297.86,100.72 "/>
   <polygon class="fil0" points="119.15,101.34 118.6,101.08 "/>
   <polygon class="fil0" points="254.95,102.49 254.64,102.84 "/>
   <polygon class="fil0" points="247.55,95.05 247.31,94.7 "/>
   <polygon class="fil0" points="267.91,85.85 267.61,86.2 "/>
   <polygon class="fil0" points="76.55,104.97 76.24,104.7 "/>
   <polygon class="fil0" points="78.25,105.33 77.78,105.05 "/>
   <polygon class="fil0" points="306.43,106.02 306.19,106.65 "/>
   <polygon class="fil0" points="0.31,84.08 -0,84.44 "/>
   <polygon class="fil0" points="330.58,110.98 330.27,110.63 "/>
   <polygon class="fil0" points="384.28,94.7 383.97,95.05 "/>
   <polygon class="fil0" points="323.71,81.95 323.16,82.22 "/>
   <polygon class="fil0" points="346.7,112.76 346.32,112.49 "/>
   <polygon class="fil0" points="46.46,74.52 45.99,74.25 "/>
   <polygon class="fil0" points="10.18,74.17 9.96,74.52 "/>
   <polygon class="fil0" points="244.69,104.26 244.46,103.91 "/>
  </g>
 </g>
</svg>
