<?xml version="1.0" encoding="UTF-8"?>
<!DOCTYPE svg PUBLIC "-//W3C//DTD SVG 1.1//EN" "http://www.w3.org/Graphics/SVG/1.1/DTD/svg11.dtd">
<!-- Creator: CorelDRAW 2021 (64-Bit) -->
<svg xmlns="http://www.w3.org/2000/svg" xml:space="preserve" width="27.067mm" height="13.9931mm" version="1.1" style="shape-rendering:geometricPrecision; text-rendering:geometricPrecision; image-rendering:optimizeQuality; fill-rule:evenodd; clip-rule:evenodd"
viewBox="0 0 200.34 103.57"
 xmlns:xlink="http://www.w3.org/1999/xlink"
 xmlns:xodm="http://www.corel.com/coreldraw/odm/2003">
 <defs>
  <style type="text/css">
   <![CDATA[
    .fil0 {fill:white}
   ]]>
  </style>
 </defs>
 <g id="Capa_x0020_1">
  <metadata id="CorelCorpID_0Corel-Layer"/>
  <g id="_2937094558400">
   <path class="fil0" d="M95.15 6.61c18.19,-0.77 45.39,2.61 63.53,5.71 4.95,0.85 9.86,1.74 14.77,2.68 3.55,0.68 10.92,2.09 13.97,3.37 2.16,0.9 3.82,2.34 4.85,3.82 1.54,2.23 1.58,3.97 1.56,7.09l-0.01 43.46c0,2.92 0.29,5.25 -0.94,7.71 -1.79,3.58 -5.93,5.33 -10.98,6.37 -21.41,4.41 -55.28,9.74 -76.5,10.21 -28.46,0.63 -58.03,-4.28 -85.68,-9.92 -4.48,-0.91 -9.06,-1.91 -11.63,-5.71 -1.48,-2.2 -1.55,-4.06 -1.53,-7.14 0.08,-14.42 0,-29.02 0.01,-43.46 0,-2.68 -0.23,-5.56 0.95,-7.72 1.91,-3.52 6.03,-5.3 11.04,-6.3 24.53,-4.91 51.38,-9.1 76.6,-10.17l-0 0zm1.66 -6.54c-23.1,0.76 -45.74,4.13 -67.81,8.1 -5.14,0.92 -10.84,1.83 -15.71,3.25 -5.05,1.48 -8.94,4.32 -11.11,7.86 -2.82,4.63 -2.11,10.88 -2.11,16.83l0 38.04c-0,5.01 0.25,7.3 2.93,11.24 0.48,0.71 1.63,2 2.24,2.52 3.91,3.35 7.2,4.25 13.37,5.59 5.26,1.15 10.61,2.18 15.96,3.12 22.14,3.89 45.89,7.24 69.08,6.92 22.19,-0.3 53.6,-5.22 75.71,-9.6 2.61,-0.52 5.37,-0.96 7.79,-1.75 7.73,-2.51 12.85,-7.41 13.12,-15.22 0.11,-3.12 0.01,-6.4 0.01,-9.53l-0 -38.04c0,-2.89 -0.14,-5.77 -1.2,-8.18 -1.1,-2.49 -2.28,-3.77 -4.01,-5.53 -1.27,-1.29 -4.11,-2.9 -5.83,-3.6 -2.3,-0.94 -4.97,-1.45 -7.56,-1.99 -16.48,-3.44 -32.09,-6.06 -49.04,-7.95 -11.54,-1.28 -24.11,-2.46 -35.85,-2.08l-0 -0z"/>
   <path class="fil0" d="M64.64 51.31c-0.05,-2.9 -0.4,-10.48 0.25,-12.89 0.92,-3.4 7.55,-1.68 9.37,-0.09 2.18,1.89 2.36,7.61 0.51,10.29 -2.09,3.03 -5.68,3.09 -10.12,2.69zm54.47 17.16c2.36,-1.9 1.98,-4.82 0.26,-6.22 -2.06,-1.68 -5.25,-1.02 -6.54,0.7 -1.17,1.56 -0.62,2.39 -1.62,3.05 -0.81,0.53 -2.59,0.79 -3.69,0.94 -8.22,1.15 -15.61,-0.63 -22.56,-4.43 -0.94,-0.52 -2.04,-1.2 -2.85,-1.81l-3.16 -2.58c-0.9,-0.9 -1.94,-1.84 -2.86,-2.89 -0.36,-0.41 -0.69,-0.74 -1,-1.19 0.42,-0.22 1.05,-0.36 1.52,-0.53 10.79,-3.99 8.89,-14.72 4.28,-17.81 -5.45,-3.65 -13.52,-2.88 -20.58,-2.82 -2.35,0.02 -5.5,-0.15 -7.76,0.06l-0.05 4.02 4.18 -0.14c-0.22,5.61 -0.25,10.93 -0.19,16.55 0.03,2.78 0.06,5.58 -0,8.35 -0.08,3.21 -0.71,4.24 -3.98,4.33l-0 3.47 16.68 -0.02 0.01 -3.99 -4.74 0.09c-0.01,-1.62 0.17,-3.4 0.19,-5.08 0.02,-1.73 -0.01,-3.47 0.01,-5.2 0.8,-0 1.6,-0 2.39,-0.01 1.28,-0.01 1.07,-0.16 1.73,0.55l2.22 2.43c1.85,1.84 2.72,2.61 4.98,4.24 4.2,3.02 7.13,4.54 12.21,6.32 4.73,1.66 10.24,2.7 15.71,2.81 4.71,0.09 12.24,-0.77 15.23,-3.18l0 -0z"/>
   <path class="fil0" d="M134.78 52.37c-0.23,-2.13 -0.05,-4.45 -0.04,-6.6 0.02,-5.51 -1.23,-9.46 4.25,-9.27 2.08,0.07 4.04,0.77 5.06,1.84 2.24,2.33 2.66,7.32 0.89,10.66 -1.73,3.28 -5.59,3.69 -10.16,3.38l-0 0zm-12.1 -19.45l-0.09 4.02 4.16 -0.14c0.1,0.95 -0.11,2.91 -0.14,3.98 -0.13,4.1 -0.09,8.36 -0.07,12.46 0.02,2.78 0.07,5.57 0.04,8.34 -0.03,3.28 -0.66,4.33 -3.98,4.44l-0 3.47 16.69 -0 0.01 -3.98c-1.34,-0.24 -3.36,0.02 -4.75,0.08 0.09,-1.54 0.2,-3.01 0.2,-4.56 0,-1.58 -0.1,-3.19 0.03,-4.76 5.95,0.11 11.4,-0.47 15.44,-3.42 3.36,-2.45 6.1,-7.7 3.53,-13.5 -1.85,-4.18 -6.58,-5.97 -12.4,-6.43 -2.69,-0.21 -15.69,-0.15 -18.66,-0.02l0 0z"/>
   <path class="fil0" d="M160.56 54.83c0.01,-0.45 2.85,-8.48 3.42,-10.21 0.23,-0.71 0.82,-2.82 1.12,-3.29 0.44,1.11 0.71,2.33 1.1,3.46l3.55 10.06 -9.19 -0.03 -0 0zm10.63 3.81c0.48,0.78 1.42,3.34 1.65,4.33 0.71,3.07 -1.71,2.88 -2.57,3.14l0.02 3.35 15.1 0.05 0.01 -4.02 -3.27 0.11c-0.28,-2.74 -2.06,-6.37 -3.07,-8.73 -1.19,-2.77 -2.31,-5.51 -3.49,-8.32l-5.28 -12.49c-0.13,-0.3 -1.56,-4.01 -1.8,-4.08l-3.58 -0c-0.75,0.44 -1.58,3.4 -1.99,4.44l-5.3 13.55c-1.19,3.08 -2.38,6.06 -3.57,9.11 -0.58,1.48 -1.09,3.17 -1.88,4.41 -0.42,0.67 -0.9,1.23 -1.5,1.64 -0.89,0.62 -1.28,0.47 -2.35,0.79l0 3.57 12.01 -0 0 -4.16 -3.87 0.08c0.2,-0.96 0.96,-2.34 1.35,-3.31 0.44,-1.1 0.75,-2.27 1.26,-3.3l12.11 -0.16 0 0z"/>
   <path class="fil0" d="M15 44.72l3.71 0.01c0.24,-2.71 0.61,-5.43 2.27,-6.64 0.89,-0.65 1.68,-1.11 3.02,-1.42 0.8,-0.18 3.51,-0.53 4.08,-0.06 0.32,0.34 0.15,21.67 0.11,24.99 -0.04,3.32 -0.64,4.28 -3.97,4.45l-0.01 3.46 16.41 0.01 0.01 -4.03 -4.46 0.11c0.04,-2.33 0.26,-4.63 0.25,-7.03 -0.01,-7.38 -0.17,-14.69 -0.06,-22.12 4.44,-0.08 7.55,0.01 8.98,4.37 0.4,1.21 0.56,2.5 0.59,3.85l3.72 0.08 -0.33 -11.74c-0.88,-0.21 -14.83,-0.08 -16.97,-0.08 -5.69,0 -11.37,-0.01 -17.06,-0.01l-0.3 11.81 0 0z"/>
   <path class="fil0" d="M102.24 36.06c6.05,-0.54 8.66,4.92 8.96,10.63 0.32,6.04 -1.57,11.9 -7.32,12.24 -9.01,0.54 -10.96,-12.95 -7.55,-18.98 1.15,-2.04 2.74,-3.61 5.91,-3.89zm-15.33 12.85c0.75,9 7.68,14.42 17.5,13.71 2.33,-0.17 4.43,-0.69 6.28,-1.6 2.4,-1.17 4.84,-3.39 6.19,-5.52 1.65,-2.6 2.57,-6.2 2.28,-9.41 -1.42,-15.52 -21.09,-17.11 -28.29,-8.8 -2.83,3.27 -4.33,7.01 -3.95,11.61l0 0z"/>
  </g>
 </g>
</svg>
