<?xml version="1.0" encoding="UTF-8"?>
<!DOCTYPE svg PUBLIC "-//W3C//DTD SVG 1.1//EN" "http://www.w3.org/Graphics/SVG/1.1/DTD/svg11.dtd">
<!-- Creator: CorelDRAW 2021 (64-Bit) -->
<svg xmlns="http://www.w3.org/2000/svg" xml:space="preserve" width="26.0119mm" height="15.2645mm" version="1.1" style="shape-rendering:geometricPrecision; text-rendering:geometricPrecision; image-rendering:optimizeQuality; fill-rule:evenodd; clip-rule:evenodd"
viewBox="0 0 224.15 131.54"
 xmlns:xlink="http://www.w3.org/1999/xlink"
 xmlns:xodm="http://www.corel.com/coreldraw/odm/2003">
 <defs>
  <style type="text/css">
   <![CDATA[
    .fil0 {fill:white}
   ]]>
  </style>
 </defs>
 <g id="Capa_x0020_1">
  <metadata id="CorelCorpID_0Corel-Layer"/>
  <g id="_2936962186704">
   <path class="fil0" d="M200.49 66.55l16.87 0.04 -0.01 59.08 -17.01 -0.13 0.14 -58.99zm-6.43 60.42c0.92,6.13 11.28,4.3 20.76,4.33 4.31,0.02 7.89,0.14 8.73,-3.88l0.16 -37.42c0,-23.98 3.35,-29.16 -8.4,-29.1 -8.34,0.04 -19.84,-1.66 -21.1,3.73 -0.54,2.34 -0.46,60.25 -0.15,62.34z"/>
   <path class="fil0" d="M76.09 66.55l15.75 0.11 -0.17 25.46c-1.99,0.13 -4,0.09 -6,0.07 -1.78,-0.02 -4.56,-0.37 -5.28,0.56 -0.92,2.2 4.83,16.47 5.81,19.38 1.52,4.53 4.63,15.28 6.68,19.13l6.38 0.04c-0.29,-4.77 -10.76,-28.48 -11.35,-33.76 13,1.03 10.16,-2.5 10.28,-27.72 0.04,-8.93 -1.62,-8.94 -10.1,-8.93 -5.42,0.01 -13.29,-0.46 -18.52,0.12l0.06 70.23 6.33 -0.15 0.16 -64.56z"/>
   <path class="fil0" d="M162.26 66.57l15.39 0.17 0.17 15.57 6.23 -0.07c0.44,-4.62 1.13,-17.52 -1.55,-19.95 -2.83,-2.56 -15.17,-1.43 -20.04,-1.4 -8.62,0.06 -6.61,7.01 -6.61,14.71l0 42.73c0,9.17 -1.77,13.04 8.08,12.99 6.11,-0.03 17.23,1.15 19.43,-2.24 1.55,-2.4 0.82,-16.41 0.82,-20.56l-6.55 0.37 -0.02 16.79c-3.51,-0 -12.57,0.47 -15.4,-0.32l0.07 -58.79z"/>
   <path class="fil0" d="M67.45 25.66c-0.02,3.8 0.16,3.8 3.78,3.52 1.9,-0.15 4.8,-0.26 6.74,-0.61 0.89,-1.56 5.28,-14.18 5.19,-15.35 -0.11,-1.4 -1.1,-1.76 -0.4,-3.43 1.96,-4.64 9.88,2.07 1.64,4.05l-5.01 14.76c4.24,-0.13 14.55,-0.15 17.51,-1.3 0.99,-8.62 -0.37,-13.4 -0.45,-21.83 -0.04,-4.8 -0.07,-4.87 -5.04,-4.93l-19.23 -0.51c-5.32,-0.24 -3.91,1.19 -4.13,6.08 -0.29,6.41 -0.57,13.21 -0.61,19.55z"/>
   <path class="fil0" d="M14.91 116.88l-8.78 -55.95 -6.13 0.11c-0.05,3.57 2.23,13.33 2.9,17.49l6.14 35.64c3.31,19.79 1.1,17.4 8.92,17.07 1,-2.55 12.09,-68.89 11.91,-70.35l-5.83 0.14c-1.86,8.47 -7.57,53.18 -9.13,55.85z"/>
   <path class="fil0" d="M44.06 66.57l16.41 -0.02 -0.04 -5.59 -22.8 0.2 0.1 70.03c3.05,0.31 20.83,0.44 23.18,-0.14l-0.07 -5.31 -16.88 -0.26 0.23 -27.07 14.77 -0.07 -0.01 -5.65 -14.96 -0.1 0.08 -26.01z"/>
   <path class="fil0" d="M40.47 30.01l6.27 0.41c0.45,-3.41 -1.35,-10.6 -0.54,-12.56 0.49,-1.18 2.81,-2.71 3.7,-3.47 2.46,-2.11 1.16,-1.98 2.47,-4.7 5.95,-1.55 5.67,4.43 2.49,4.83 -2.54,0.32 -2.07,-1.11 -4.21,0.61 -1.6,1.29 -1.63,1.75 -3.44,2.82l0.96 12.3 14.45 -0.03c0.96,-3.25 1.24,-20.33 1.54,-26.18 0.27,-5.37 -0.65,-3.87 -13.08,-3.43 -11.59,0.41 -13.33,-0.84 -13.16,3.41l2.54 26z"/>
   <path class="fil0" d="M96.31 32.38c-1.98,-1.12 -15.82,0.39 -19.26,0.63 -10.7,0.74 -11.56,-1.12 -10.44,9.77 2.42,0.42 16.37,2.37 18.26,1.38 2.17,-1.13 1.15,-2.23 4.71,-0.8 0.86,2.12 0.53,5.5 -2.75,4.66 -2.93,-0.75 0.2,-1.99 -5.67,-2.51 -4.58,-0.41 -10.37,-1.43 -14.53,-1.4 -0.27,2.36 -0.59,8.97 0.31,10.83 2.33,0.91 28.31,1.3 30.44,0.24 0.37,-2.59 -0.29,-21.12 -1.06,-22.8z"/>
   <polygon class="fil0" points="103.95,66.51 114.91,66.64 115.03,131.27 121.26,131.31 121.36,66.58 132.09,66.29 131.95,60.92 103.97,60.97 "/>
   <polygon class="fil0" points="138.74,131.27 145.03,131.08 144.9,60.94 138.69,61.03 "/>
   <path class="fil0" d="M43.19 57.13c5.8,0.29 5.8,-1.67 8.69,-4.27 1.54,-1.38 5.6,-4.42 6.19,-6.39l-8.26 0.01c-1.3,1.96 -6.43,8.99 -6.63,10.66z"/>
  </g>
 </g>
</svg>
