<?xml version="1.0" encoding="UTF-8"?>
<!DOCTYPE svg PUBLIC "-//W3C//DTD SVG 1.1//EN" "http://www.w3.org/Graphics/SVG/1.1/DTD/svg11.dtd">
<!-- Creator: CorelDRAW 2021 (64-Bit) -->
<svg xmlns="http://www.w3.org/2000/svg" xml:space="preserve" width="15.8042mm" height="17.071mm" version="1.1" style="shape-rendering:geometricPrecision; text-rendering:geometricPrecision; image-rendering:optimizeQuality; fill-rule:evenodd; clip-rule:evenodd"
viewBox="0 0 51.1 55.2"
 xmlns:xlink="http://www.w3.org/1999/xlink"
 xmlns:xodm="http://www.corel.com/coreldraw/odm/2003">
 <defs>
  <style type="text/css">
   <![CDATA[
    .fil0 {fill:white}
   ]]>
  </style>
 </defs>
 <g id="Capa_x0020_1">
  <metadata id="CorelCorpID_0Corel-Layer"/>
  <g id="_2936962170192">
   <path class="fil0" d="M20.31 0.88l-0.05 -0.08c-0.08,0.06 -0.1,0.09 -0.27,0.17 -0.05,0.03 -0.2,0.08 -0.25,0.1 -0.2,0.06 -0.33,0.09 -0.61,0.09l-0.11 -0.07c-0.11,0.11 -0.05,0.08 -0.21,0.2l-2.77 1.02c-0.68,0.09 -0.12,0.15 -0.66,0.22 -0.27,0.37 -0.73,0.54 -1.15,0.67l-0.12 0 -0.08 0.26 -0.4 0.06c-0.28,0.08 -0.53,0.34 -0.83,0.51 -0.19,0.15 -0.24,0.21 -0.45,0.33 -0.3,0.17 -0.19,0.1 -0.48,0.21 -0.11,0.13 -0.54,0.37 -0.64,0.53 -0.18,0.29 0.05,0.08 -0.31,0.38 -0.11,0.09 -0.19,0.12 -0.34,0.24 -0.35,0.28 -0.31,0.43 -0.78,0.47 -0.13,0.12 -0.25,0.18 -0.35,0.36 -0.11,0.16 -0.06,0.14 -0.2,0.27 -0.17,0.15 0.17,0.07 -0.3,0.14l0.02 -0.06c-0.23,0.53 -0.55,0.66 -0.93,1.04 -0.7,0.71 -0.55,0.81 -1.01,0.85 -0.08,0.24 0.02,0.04 -0.1,0.25 -0.19,0.32 -0.67,0.83 -0.97,0.97l-0.06 0.2 -1.16 1.74c-0.12,0.14 -0.1,0.09 -0.24,0.2 -1.01,1.2 -2.32,4.33 -2.83,5.67 -0.77,1.99 -0.53,1.81 -0.93,3.37 -0.15,0.57 -0.35,1.04 -0.42,1.77 -0.1,1.01 0.01,1.47 -0.34,1.75l0 5.1c0.35,0.28 0.25,0.86 0.34,1.85 0.1,1.03 1.33,5.28 1.29,5.4 0.36,0.15 0.19,0.02 0.37,0.28 0.01,0.01 0.1,0.32 0.1,0.35 0.3,0.82 1.8,3.48 1.83,3.95l0.53 0.66c0.1,0.19 0.01,0 0.13,0.29 0.1,0.17 0.37,0.55 0.52,0.8 0.2,0.14 0.08,0.02 0.25,0.18 0.12,0.12 0.04,0.01 0.16,0.2 0.15,0.23 0.12,0.19 0.21,0.49 0.11,0.12 0.48,0.48 0.55,0.75 0.36,0.17 0.49,0.34 0.62,0.72l-0.06 -0.06c0.52,0.15 0.69,0.59 1.05,0.95 0.29,0.29 0.65,0.48 0.8,0.94 0.46,0.04 0.34,0.07 0.66,0.38 0.34,0.33 0.32,0.19 0.48,0.65 0.21,0.09 0.4,0.27 0.55,0.42 0.33,0.09 0.4,0.04 0.52,0.4l0.36 0.25c0.51,0.11 0.59,0.29 0.94,0.53 0.34,0.23 0.74,0.33 0.73,0.66 0.3,0.03 0.32,0.05 0.53,0.17 0.46,0.26 0.2,-0.04 0.38,0.42 0.26,0.11 0.94,0.53 1.16,0.6 0.46,0.11 0.76,0.29 1.23,0.51 0.28,0.13 0.34,0.17 0.53,0.25 0.52,0.21 0.33,-0.07 0.53,0.39 0.31,0 1.43,0.47 1.88,0.6 0.81,0.25 1.05,0.44 1.91,0.59 1.28,0.23 1.69,0.46 3.27,0.58 0.16,0.01 0.44,0.01 0.57,0.03 0.52,0.07 0.35,-0.09 0.45,0.22l4.6 0c0.04,-0.57 0.61,-0.07 2.13,-0.47 0.35,-0.09 0.73,-0.13 1.16,-0.19 0.47,-0.06 0.53,-0.16 1.04,-0.26 0.44,0.02 2.96,-0.85 3.39,-1.04l0.46 -0.35c0.18,-0.08 0.3,-0.1 0.5,-0.19 0.45,-0.2 0.67,-0.42 1.1,-0.41l0.29 -0.29c0.36,-0.22 0.92,-0.54 1.33,-0.61l1.3 -0.88c0.01,-0.03 0.03,-0.03 0.04,-0.05 0.09,-0.36 0.25,-0.44 0.59,-0.68 0.55,-0.39 1.4,-0.95 1.77,-1.52 -0.53,0.15 -0.42,0.21 -0.84,0.34l-0.27 -0.01c-0.29,0.21 -1.81,1.1 -2.18,1.1 -0.15,0.33 -0.1,0.36 -0.51,0.28 -0.25,0.32 -0.3,0.27 -0.73,0.45 -1.99,0.83 -4.7,1.79 -6.75,1.92 -0.9,0.05 -1.26,0.23 -2.15,0.26 -1.07,0.03 -3.89,0.1 -4.81,-0.14 -0.63,-0.17 -1.58,0.02 -2.15,-0.49l-0.42 0.03c-0.32,-0.03 -2.31,-0.49 -2.64,-0.69 -0.26,-0.15 -0.17,-0.1 -0.33,-0.29 -0.45,0.09 -1.15,-0.39 -1.55,-0.41 -0.23,-0.02 -0.14,0.1 -0.45,-0.11 -0.31,-0.21 0.02,0.06 -0.18,-0.29 -0.38,0.01 -0.79,-0.35 -1.19,-0.52 -0.42,-0.18 -0.86,-0.34 -1.14,-0.6 -0.3,-0.09 -0.36,-0.09 -0.6,-0.24 -0.03,-0.02 -0.18,-0.14 -0.19,-0.14 -0.14,-0.12 -0.09,-0.09 -0.2,-0.23l0.04 0.05c-0.37,-0.11 -0.15,-0.02 -0.43,-0.16l-0.69 -0.47c-0.39,-0.28 -0.67,-0.38 -0.91,-0.81 -0.33,-0.09 -0.71,-0.51 -0.81,-0.63 -0.33,-0.16 -0.01,0.05 -0.36,-0.19 -0.38,-0.27 -1.14,-0.89 -1.25,-1.3 -0.31,-0.06 -0.09,0.05 -0.34,-0.13l-0.66 -0.73c-0.16,-0.19 -0.27,-0.3 -0.44,-0.49l-0.42 -0.61c-0.63,-0.7 -2.94,-4 -3.23,-5.05 -0.36,-0.15 -0.06,0.11 -0.31,-0.25 -0.04,-0.06 -0.1,-0.24 -0.14,-0.34 -0.16,-0.37 -0.18,-0.2 -0.19,-0.71 -0.07,-0.33 -0.52,-1.29 -0.69,-1.75 -0.55,-1.55 -1.23,-4.74 -1.27,-6.38 -0.05,-2.17 -0.07,-5.1 0.46,-7.19 0.13,-0.5 0.45,-1.4 0.42,-1.9 0.03,-0.51 0.46,-2.07 0.86,-2.27 0.02,-0.24 0.53,-1.34 0.68,-1.63 0.15,-0.3 0.68,-1.34 0.71,-1.52 0.05,-0.29 -0.01,-0.23 0.13,-0.43 0.18,-0.26 -0.02,-0.03 0.27,-0.18l0.14 -0.22c0.07,-0.41 0.28,-0.67 0.49,-1.01 0.1,-0.17 0.15,-0.26 0.27,-0.42 0.35,-0.47 -0,-0.18 0.4,-0.3 0.09,-0.44 0.11,-0.42 0.44,-0.57 0.07,-0.35 0.01,-0.04 0.23,-0.41l0.16 -0.27c0,-0.2 -0.05,-0.16 0.15,-0.1 0.04,-0.29 0.12,-0.55 0.54,-0.61 0.16,-0.32 0.69,-0.81 0.89,-1.01l0.22 -0.34c0.27,-0.33 0.14,-0 0.25,-0.35 0.19,-0.39 0.35,-0.45 0.64,-0.72 0.28,-0.26 0.36,-0.52 0.74,-0.5 0.14,-0.04 0.07,-0.02 0.25,-0.12 0.2,-0.11 0.01,-0.02 0.15,-0.11 0.17,-0.41 0.32,-0.51 0.72,-0.62l0.36 -0.25c0.21,-0.35 0.13,-0.3 0.59,-0.47l0.44 -0.25c0.18,-0.24 -0.04,-0.04 0.27,-0.31 0.06,-0.05 0.19,-0.12 0.28,-0.18 0.26,-0.17 0.23,-0.2 0.63,-0.28l0.08 0.07c0.13,-0.42 0.4,-0.43 0.77,-0.63 0.14,-0.08 0.64,-0.34 0.74,-0.42 0.29,-0.31 0.66,-0.46 1.05,-0.52 0.34,-0.07 0.09,-0.1 0.61,-0.19 0.44,-0.12 0.14,-0.14 0.7,-0.25 0.24,-0.17 0.92,-0.53 1.39,-0.5 0.48,-0.57 2.24,-0.88 2.89,-0.88l0.28 -0.02c0.28,-0.29 -0.26,0.01 0.36,-0.29 -1.01,-0.47 -4.05,0.58 -5.07,0.52l-0 0z"/>
   <path class="fil0" d="M23.03 5.56c-1.98,3.34 -1.53,7.95 -0.58,11.69 0.09,0.36 0.13,0.2 0.24,0.52 0.23,0.14 0.39,0.13 0.24,0.48l0.65 1.41c0.25,0.16 -0.01,-0.25 0.25,0.23 0.17,0.31 0.04,0.03 0.07,0.36 0.06,0.43 0.2,0.16 0.21,0.61 0.44,0.17 0.04,-0.15 0.41,0.32 0.01,0.02 0.13,0.21 0.17,0.28 0.18,0.27 0.28,0.34 0.39,0.76 0.27,0.19 0.46,0.58 0.67,0.88 0.4,0.29 1.43,1.49 1.57,1.85l0.15 0.22c0.34,0.16 0.07,-0.03 0.37,0.22 0.07,0.06 0.14,0.16 0.22,0.25 0.09,0.1 0.13,0.14 0.21,0.25 0.11,0.15 0.04,0.07 0.12,0.23 0.37,0.11 0.63,0.38 0.68,0.8 0.31,0.19 0.29,0.29 0.43,0.63 0.26,0.18 1.36,1.76 1.46,2.15 0.38,0.15 0.22,-0.02 0.43,0.41 0.06,0.13 0.15,0.34 0.21,0.47 0.15,0.33 0.43,0.75 0.28,1.1 0.56,0.76 0.6,2.34 0.59,3.47 -0,1.01 -0.13,1.8 -0.31,2.75 -0.08,0.45 -0.18,0.48 -0.35,0.62l-0.22 1.01c-0.11,0.68 -1.26,3.13 -1.69,3.37 0.09,0.33 -0.13,0.6 -0.58,1.15l-0.84 0.92c-0.11,0.12 -0.19,0.2 -0.28,0.29 -0.02,0.03 -0.09,0.1 -0.12,0.12 -0.02,0.02 -0.04,0.05 -0.06,0.08l-0.13 0.18c0.56,-0.1 0.64,-0.06 0.85,-0.41l0.36 0.06c0.24,-0.05 0.1,-0.01 0.37,-0.14 0.3,-0.14 0.17,-0.09 0.37,-0.21 0.18,-0.11 0.52,-0.3 0.66,-0.41 0.19,-0.37 0.4,-0.53 0.82,-0.65 0.34,-0.15 0.76,-0.67 1.08,-0.78l0.05 -0.31 0.18 -0.1c0.24,-0.47 0.78,-1.01 1.26,-1.28l0.27 -0.13c0.14,-0.44 0.65,-1.12 1.04,-1.38l0.12 -0.27c0.13,-0.36 -0.02,-0.09 0.21,-0.48 0.36,-0.61 0.36,-0.63 0.68,-0.82l-0.04 -0.07c0.16,-0.42 0.39,-0.77 0.58,-1.14 0.08,-0.16 0.16,-0.33 0.25,-0.54 0.08,-0.19 0.04,-0.17 0.17,-0.32 0.2,-0.24 -0.08,-0.03 0.27,-0.2 0.01,-0.35 0.43,-1.21 0.52,-1.55l0.12 -0.31c0,-0.25 -0.07,-0.2 0.17,-0.2 0.01,-0.6 0.23,-0.28 0.18,-0.9 0.06,-0.81 0.3,-0.9 0.32,-0.99 0.01,-0.05 0.05,-0.06 0.07,-0.09l0.96 -6.14c0.1,-1.12 0.11,-2.27 0.09,-3.49 -0.01,-0.88 -0.31,-2.47 -0.19,-3.19 -0.08,-0.1 -0.09,-0.06 -0.18,-0.26l-0.16 -0.86c-0.04,-0.42 -0.05,-0.78 -0.13,-1.2 -0.14,-0.74 -0.36,-1.59 -0.45,-2.31l0.05 -0.33c-0.59,-0.46 -0.24,-1.01 -0.78,-2.01l-0.18 0.39c-0,0.01 -0.06,0.26 -0.06,0.29 -0.13,0.69 -0.23,3.3 -1.06,4.03l0.03 -0.11c-0.19,1 -1.6,3.04 -2.68,3.45 -0.27,0.13 -0.16,0.18 -0.5,0.23 -0.28,0.41 -0.39,0.4 -0.91,0.36 -0.06,0.15 0.24,0.19 -0.55,0.28 -0.22,0.02 -0.49,0.04 -0.71,0.04 -1.06,-0.01 -2.61,-0.38 -3.13,-1.34 -0.39,-0.19 -0.59,-0.53 -0.87,-0.76 -0.36,-0.15 -0.07,0.07 -0.29,-0.17 -0.21,-0.23 0,0.12 -0.13,-0.33 -0.28,-0.29 -1.04,-1.34 -1.3,-1.83 -0.4,-0.75 -0.7,-1.42 -1,-2.13 -0.42,-0.28 -0.18,-0.04 -0.35,-0.48 -0.03,-0.07 -0.06,-0.18 -0.09,-0.25 -0.25,-0.64 -0.14,-0.64 -0.27,-1.18 -0.51,-2.18 -0.64,-3.22 -0.47,-5.63 0.03,-0.47 -0.09,-0.87 0.31,-0.97l-0.09 -0.36 0.04 -1.11c-0.85,1.02 -0.04,0.65 -0.75,0.93l0 0z"/>
   <path class="fil0" d="M28.76 13.92l0.05 0.06c-0.04,0.29 0.01,0.28 -0.14,0.55 -0.31,0.56 0.05,-0.02 -0.27,0.29 -0.05,0.45 -0.23,0.61 -0.21,1.42 0.01,0.38 0.21,1.2 0.34,1.52 0.25,0.62 1.15,1.74 1.66,1.83 0.49,0.07 2.56,0.97 3.83,-0.87 0.22,-0.32 0.1,-0.31 0.5,-0.44l0.24 -0.81 0.02 -2.02c-0.18,-0.15 -0,0.25 -0.27,-0.33 -0.08,-0.17 -0.05,-0.17 -0.11,-0.34 -0.19,-0.5 -0.26,-0.23 -0.31,-0.82 -0.01,-0.02 -0.11,-0.25 -0.15,-0.33 -0.34,-0.12 -0.6,-0.22 -0.66,-0.63 -0.19,-0.02 -0.08,0.02 -0.14,-0.06 -1.07,-0.28 -2,-0.94 -3.56,0.3 -0.46,0.36 -0.26,0.42 -0.81,0.69z"/>
   <path class="fil0" d="M43.02 31.17c0.04,0.49 -0.45,1.8 -0.44,2.39 0.01,0.65 -0.44,1.73 -0.71,2.29 -0.23,0.48 -0.6,1.67 -1.09,1.92l0.06 -0.03c-0.02,0.44 -0.45,0.91 -0.68,1.28 -0.25,0.4 -0.45,0.84 -0.91,1.06l-0 -0.01c-0.13,0.39 -0.28,0.57 -0.66,0.97l-0.35 0.23c-0.04,0.34 0.07,0.12 -0.17,0.4 -0.06,0.07 -0.21,0.2 -0.3,0.29 -0.2,0.2 -0.39,0.45 -0.78,0.59 -0.08,0.14 -0,0.07 -0.16,0.21 -0.23,0.2 -0.24,0.16 -0.42,0.25l-1.12 0.8c-0.12,0.19 -0.04,0.1 -0.18,0.25 -0.06,0.06 -0.13,0.12 -0.19,0.16 -0.22,0.16 -0.29,0.17 -0.55,0.26 -0.21,0.16 -1.78,1.15 -2.27,1.21 -0.13,0.33 -0.9,0.56 -1.26,0.58 -0.41,0.07 -0.28,0.21 -0.81,0.25 -0.22,0.22 0.24,0.15 -0.22,0.21l1.22 0c0.45,-0.01 1.15,-0.38 1.54,-0.38 0.34,-0.32 2.32,-1.14 2.68,-1.23l-0.01 0.07c0.3,-0.4 1.66,-1.19 1.91,-1.29 0.2,-0.16 0.7,-0.48 0.78,-0.71 0.37,-0.57 1.65,-1.5 2.6,-2.88 0.09,-0.13 -0,-0.06 0.14,-0.2 0.24,-0.23 0.01,-0.07 0.35,-0.23l0.02 0c0.08,-0.33 0.1,-0.35 0.23,-0.58 0.04,-0.08 0.08,-0.15 0.14,-0.21 0.21,-0.21 -0.06,0 0.26,-0.18l1.3 -2.65c0.33,-0.81 0.72,-2.21 0.9,-3.03 0.74,-3.32 -0.17,-6.65 -0.16,-7.04 -0.48,-0.59 -0.2,-0.74 -0.59,-1.06 0.03,2.17 0.36,3.05 0.08,5.44l-0.2 0.6 0 0z"/>
   <path class="fil0" d="M21.85 1.54c-0.47,-0.03 -1.16,0.33 -1.39,0.5 -0.18,0.4 -0,0.17 -0.43,0.47 -0.1,0.07 -0.18,0.13 -0.28,0.19 -0.26,0.14 0.06,-0.01 -0.31,0.13 -1.46,0.85 -2.33,2.18 -2.91,2.52 -0.05,0.11 -0,0.04 -0.1,0.19l-1.01 1.42c-0.27,0.41 -0.88,1.34 -1.03,1.75 -0.07,0.54 -0.79,2.06 -1.05,3.29 -0.13,0.61 -0.02,0.9 -0.4,1.16l0.08 0.46c0.07,1.49 -0.17,3.84 0.42,5.07 0.03,-0.93 -0.04,-1.85 -0.02,-2.79 0.01,-0.46 0.04,-0.93 0.08,-1.4 0.05,-0.56 0.06,-0.84 0.34,-1.2 -0.03,-0.54 0.39,-1.82 0.57,-2.25 0.14,-0.33 0.74,-1.77 0.8,-1.99 0.14,-0.41 0.29,-0.63 0.51,-0.98 0.1,-0.16 0.15,-0.28 0.26,-0.44 0.28,-0.41 0.05,-0.15 0.31,-0.26 0.11,-0.73 1.26,-1.71 1.28,-1.78 0.01,-0.05 0.06,-0.04 0.09,-0.06 0.76,-1.04 2.65,-2.53 3.93,-3.29 0.25,-0.15 0.41,-0.27 0.71,-0.45l0.92 -0.38c-0.25,-0.33 -0.67,0.18 -1.36,0.14l-0 -0z"/>
   <path class="fil0" d="M24.7 51.98c0.57,0.52 1.52,0.32 2.15,0.49 0.91,0.24 3.73,0.18 4.81,0.14 0.89,-0.03 1.25,-0.2 2.15,-0.26 2.05,-0.12 4.76,-1.09 6.75,-1.92 0.43,-0.18 0.48,-0.13 0.73,-0.45 -0.46,-0.02 -1.26,0.41 -1.81,0.63l-1.35 0.48c-4.18,1.45 -6.95,1.3 -11.23,1.15 -0.88,-0.03 -1.16,-0.27 -2.2,-0.28l0 -0z"/>
   <path class="fil0" d="M48.06 25.98c0.04,-0.5 0.21,-0.77 0.75,-0.84 -0.02,1.37 0.09,0.91 0.21,1.38l-0.55 -0 -0.41 -0.54 -0 0zm2.51 0c-0.64,1.34 -2.11,-0.45 -0.98,-1 0.71,-0.34 1.24,0.45 0.98,1zm-2.56 0.69c0.85,0.44 1.63,0.22 2.46,-0.03 0.5,-0.19 0.92,-0.81 0.37,-1.62 -0.65,-0.95 -1.32,-0.44 -1.93,0.04 -0.17,-0.16 -0.23,-0.29 -0.59,-0.16 -0.05,0.02 -0.46,0.37 -0.51,0.43 -0.55,0.71 -0.05,0.89 0.2,1.35l0 -0z"/>
   <path class="fil0" d="M19.49 20.19zm0 0zm0 0c0.1,-0.07 0.07,0.02 0.19,-0.16 0.45,-0.64 -0.31,-1.58 -1.02,-1.52 -1.49,0.12 -1.14,2.66 0.47,2.08 0.39,-0.14 0.32,-0.32 0.35,-0.4l0 0z"/>
   <path class="fil0" d="M24.67 29.5c0.01,0 2.02,0.81 1.8,-0.98 -0.04,-0.32 -0.06,-0.26 -0.18,-0.43l-0.26 -0.41 -0.06 0.06c-0.67,-0.02 -1.14,-0.02 -1.45,0.55 -0.12,0.68 0.09,0.72 0.14,1.2z"/>
   <path class="fil0" d="M20.74 22.94c-0.03,0.01 -0.07,-0.01 -0.08,0.03l-0.27 0.1c-0.33,0.08 -0.16,0.12 -0.53,0.01 -0.61,-0.19 -0.59,-0.61 -0.61,-0.67 -0.11,-1.84 1.59,-1.37 1.63,-0.71 0.59,0.28 0.12,0.8 -0.14,1.25l-0 0zm0 0l-20.74 -22.94 20.74 22.94z"/>
   <path class="fil0" d="M21.11 23.77c-0.19,0.53 -0.32,0.95 0.2,1.31 0.63,0.43 0.73,-0.02 1.34,-0.1 0.4,-0.44 0.23,-1.05 -0.15,-1.53 -0.63,-0.07 -1.28,-0.21 -1.39,0.31l0 0z"/>
   <path class="fil0" d="M24.2 27.36c0.31,-0.2 0.05,-0.17 0.54,-0.4l-0.06 -0.86c-0.51,-0.19 -0.93,-0.96 -1.61,-0.23 -0.61,0.65 -0.16,1.15 0.16,1.54l0.97 -0.05z"/>
   <path class="fil0" d="M26.07 30.58c-0.1,0.66 -0.13,0.35 -0.03,1.04l0.27 0.16c1.42,0.96 2.05,-0.99 1.06,-1.5 -0.55,-0.28 -0.89,0.09 -1.3,0.3l0 -0z"/>
   <path class="fil0" d="M49.87 21.11c-0.13,0.38 -0.36,0.74 -0.73,0.78 -0.38,0.05 -0.31,-0.01 -0.49,-0.15 -1.06,-0.81 0.63,-2.03 1.22,-0.63l0 0zm-1.06 -1.06c-0.58,0.3 -1.04,0.38 -0.86,1.38 0.28,1.49 2.77,0.97 2.26,-0.62 -0.09,-0.28 -0.3,-0.51 -0.56,-0.67 -0.39,-0.24 -0.42,-0.31 -0.85,-0.09l0 0z"/>
   <path class="fil0" d="M46.13 14.85c0.55,-0.06 0.74,-0.13 1.04,0.27 0.28,0.37 0.28,0.5 -0.01,0.84 -0.61,0.73 -1.23,-0.01 -1.39,-0.13 0.01,-0.66 0.1,-0.52 0.36,-0.98l0 -0zm0.37 2.14c0.52,-0.27 1.32,-0.84 1.23,-1.56 -0.11,-0.91 -1.2,-1.25 -1.69,-1 -0.34,0.37 -0.85,0.71 -0.64,1.42 0.12,0.4 0.49,0.64 0.74,0.86 0.21,0.19 0.08,0.17 0.36,0.29l0 0z"/>
   <path class="fil0" d="M13.01 13.61l-0.17 0.53c-0.02,0.14 -0.02,0.43 -0.03,0.59 -0.07,1.61 0.2,2.51 0.23,3.62 0.2,0.34 0.32,0.87 0.41,1.24 0.16,0.68 0.08,0.27 0.35,0.83 0.04,0.08 0.08,0.23 0.12,0.31 0.1,-0.17 0.15,0.01 0.06,-0.39 -0.05,-0.23 -0.09,-0.08 -0.15,-0.42 -0.05,-0.28 -0.07,-0.95 -0.11,-1.29 -0.07,-0.86 -0.15,-1.67 -0.13,-2.63 0.02,-0.97 0.27,-1.82 0.25,-2.72 -0.28,0.36 -0.29,0.64 -0.34,1.2 -0.04,0.46 -0.07,0.93 -0.08,1.4 -0.02,0.94 0.04,1.85 0.02,2.79 -0.6,-1.23 -0.36,-3.57 -0.42,-5.07l0 0z"/>
   <path class="fil0" d="M43.02 31.17l0.2 -0.6c0.28,-2.39 -0.05,-3.27 -0.08,-5.44 0.39,0.33 0.11,0.47 0.59,1.06 0,-0.56 -0.44,-2.09 -0.9,-2.57 -0.17,-0.17 -0.03,-0.1 -0.25,-0.21 0.01,1.06 0.44,2.28 0.48,3.6 0.04,1.39 -0.09,2.83 -0.04,4.15l0 0z"/>
   <path class="fil0" d="M50.06 28.37l0.37 0.16c0.14,0.27 0.21,0.43 0.14,0.81 -0.08,0.5 -0.09,0.33 -0.53,0.41l0.02 -1.38 -0 0zm-0.36 0l-0.1 1.42c-0.46,-0.23 -0.43,-0.47 -0.42,-1.05l0.52 -0.37 0 -0zm0.36 0c-0.39,-0.14 -0.14,0.16 -0.16,0.38 -0,0.03 0.01,0.42 0.01,0.48 0.01,0.48 0.06,0.46 0.21,0.82l-0.39 -0.02c0.04,-0.49 -0.02,-0.93 0.11,-1.38l-0.31 -0.55c0.51,-0.04 0.32,-0.1 0.76,0.08 -0.03,0.02 -0.07,0.03 -0.09,0.08 -0.01,0.05 -0.13,0.09 -0.16,0.11l0 0zm0.07 1.68l0.48 0.02c0.25,-0.45 0.45,-0.39 0.32,-1.32 -0.06,-0.43 -0.28,-0.71 -0.72,-0.78 -1.68,-0.27 -1.97,1.87 -0.63,2.15 0.22,0.05 -0.38,0.02 0.19,0.03l0.27 -0.06c0.01,-0.03 0.06,-0.02 0.08,-0.04l-0 0z"/>
   <path class="fil0" d="M19.24 22.4l0.79 0.6c0.81,-0.19 0.93,-0.49 0.84,-1.31 -0.05,-0.66 -1.75,-1.13 -1.63,0.71z"/>
   <path class="fil0" d="M36.75 16.93c0.83,-0.74 0.93,-3.34 1.06,-4.03 0.01,-0.03 0.06,-0.27 0.06,-0.29l0.18 -0.39c0.54,1 0.19,1.56 0.78,2.01l-0.65 -2.75c-0.18,-0.52 -0.23,-0.61 -0.47,-0.69 -0.14,0.47 -0.06,1.1 -0.07,1.61 -0.02,0.75 -0.44,3.04 -0.65,3.67 -0.14,0.42 -0.17,0.2 -0.22,0.85l-0 0z"/>
   <path class="fil0" d="M50.85 23.72c-1.01,-0.23 -1.81,0.74 -1.93,-0.41 0.43,-0.53 0.88,-0.38 1.55,-0.45l0.06 -0.53c-0.21,-0.01 -1.19,0.15 -1.44,0.22l-0.49 0.3c-0.76,1.08 0.83,2.04 1.99,1.16 0.26,-0.19 0.08,0.05 0.25,-0.3z"/>
   <path class="fil0" d="M7.95 35.07c0.11,0.43 0.16,0.85 -0.41,0.8 -0.49,-0.04 -0.43,-0.4 -0.27,-0.75 0.34,-0.18 0.22,-0.16 0.68,-0.05l0 -0zm-1.31 0.65c0.39,1.1 2.16,0.81 1.83,-0.56 -0.31,-1.29 -2.22,-0.54 -1.83,0.56z"/>
   <path class="fil0" d="M27.08 33.24l-0.01 1.14 -0.1 0c0.45,0.18 0.57,0.4 1.21,0.26 0.14,-0.2 0.27,-0.39 0.42,-0.49 0.07,-1.03 -0.29,-1.15 -1.29,-1.08l-0.23 0.17 -0 0z"/>
   <path class="fil0" d="M48.83 18.79l0.36 0.1c-0.08,0.39 -0.04,0.25 -0.26,0.34l-0.11 -0.45 0 0zm0.12 -0.15c-0.04,-0.2 -0.1,-0.21 -0.04,-0.43 0.08,-0.26 -0.01,-0.08 0.16,-0.21 0.12,-0.09 1.23,-0.63 0.79,0.67 -0.52,0.14 -0.4,0.13 -0.91,-0.03l-0 0zm-0.72 -0.66l0.47 -0.04 0.13 0.85 -0.22 -0 0.07 0.45c-0.56,0.13 -0.86,0.15 -1.01,0.62 -0.01,0.02 -0.01,0.06 -0.01,0.09l1.43 -0.56c0.61,-0.45 1.94,-0.08 0.9,-2.09l-1.54 0.52c-0.25,0.16 -0.13,0.08 -0.21,0.15l-0 0z"/>
   <path class="fil0" d="M41.92 11.89c0.53,-0.1 0.17,0.06 0.51,-0.19 0.31,-0.23 0.49,-0.87 1.14,-0.91 0.3,1.13 -0.48,1.08 -0.75,1.86 0.61,0.3 1.83,-1.2 1.19,-1.91 -0.31,-0.34 -0.73,-0.48 -1.23,-0.08 -0.39,0.31 -0.8,0.64 -0.86,1.24l-0 0z"/>
   <path class="fil0" d="M40.8 10.96c-0.04,-0.87 0.31,0.34 0.85,-0.33 -1.01,0.08 -1.41,-0.43 -0.71,-1.3l0.91 -0.03c0.39,0.96 0.28,0.41 0.02,1.37 0.28,-0.2 0.21,0.24 0.23,-0.21l0 0.24c0.3,-0.21 0.04,0.12 0.34,-0.27 0.11,-0.15 0.11,-0.11 0.13,-0.35 0.04,-0.34 -0.07,-0.51 -0.21,-0.71 -0.37,-0.51 -0.75,-0.58 -1.59,-0.46 -0.76,0.76 -0.92,1.32 0.04,2.04l-0 0z"/>
   <path class="fil0" d="M24.71 14.61c0,-0.46 -0.44,-1.37 -0.53,-1.97 -0.2,-1.43 -0.51,-2.47 -0.5,-4.18 0,-0.86 0.21,-1.59 0.15,-2.36 -0.39,0.1 -0.28,0.5 -0.31,0.97 -0.16,2.41 -0.04,3.45 0.47,5.63 0.13,0.54 0.02,0.54 0.27,1.18 0.03,0.07 0.06,0.17 0.09,0.25 0.17,0.44 -0.06,0.2 0.36,0.48l-0 -0z"/>
   <path class="fil0" d="M39.13 9.7c0.78,-0.19 0.39,-0.67 1.47,-1.34l0.73 -0.41c0.29,-0.2 0.24,-0.11 0.35,-0.45 -0.61,-0.05 -0.9,0.32 -1.37,0.52 -0.03,-0.77 0.14,-1.15 -0.25,-1.59 -0.42,0.76 0.28,1.02 -0.64,2.48 -0.21,0.33 -0.32,0.37 -0.28,0.8l-0 0z"/>
   <path class="fil0" d="M20.31 0.88c1.01,0.05 4.06,-0.99 5.07,-0.52 -0.62,0.3 -0.08,-0 -0.36,0.29 0.78,-0.02 0.56,-0.27 1.3,-0.25 0.1,-0.06 0.29,-0.14 0.34,-0.18 0.25,-0.17 0.01,0.08 0.2,-0.22l-3.6 0c-0.05,0.31 -0.4,0.24 -0.76,0.26 -1.02,0.06 -0.58,0.14 -1.51,0.28 -0.54,0.08 -0.48,-0.01 -0.68,0.34l-0 0z"/>
   <path class="fil0" d="M43.93 13.84c0.95,-0.04 1.24,-1.23 1.82,-0.56 0.41,0.47 -0.27,0.74 -0.6,1.01 -0.43,0.35 -0.18,-0.11 -0.33,0.52 0.69,-0.08 2.09,-1.04 1.27,-1.87 -0.69,-0.7 -1.95,0.25 -2.16,0.9z"/>
   <path class="fil0" d="M45.95 47.25l-0.89 0.7c-0.39,0.25 -0.66,0.39 -0.81,0.66 0.43,-0.13 0.31,-0.19 0.84,-0.34 -0.37,0.58 -1.22,1.13 -1.77,1.52 -0.33,0.24 -0.49,0.32 -0.59,0.68 0.86,-0.34 1.04,-0.81 1.79,-1.19 0.15,-0.27 0.03,-0.09 0.2,-0.29 0.18,-0.21 -0.23,0.13 0.18,-0.13 0.42,-0.2 0.02,-0.13 0.39,-0.22l0.39 -0.5c0.03,-0.03 0.23,-0.22 0.25,-0.23 0.24,-0.17 -0.08,0.02 0.32,-0.16l-0.07 -0.09c0.07,-0.54 -0.21,0.4 0.04,-0.22l0.16 -0.23c0.01,-0.04 0.05,-0.04 0.07,-0.06l-0.39 0.05 -0.13 0.06z"/>
   <path class="fil0" d="M31.83 38.51c0.16,-0.15 0.26,-0.18 0.35,-0.62 0.18,-0.95 0.31,-1.75 0.31,-2.75 0,-1.13 -0.04,-2.71 -0.59,-3.47 -0.19,0.55 -0.01,0.41 0.1,0.77 0.59,2 -0.17,5.98 -0.16,6.08l0 0z"/>
   <path class="fil0" d="M6.78 20.41l-0.01 0.02 0.31 0.19c-0.1,0.14 -0.2,0.27 -0.35,0.42l-0.45 0.04 -0.38 0.44c0.33,0.15 0.39,0.05 0.71,-0.09 0.31,-0.14 0.41,-0.2 0.76,-0.24l0.31 0.29c-0,-0.68 0.13,-0.23 -0.2,-0.58 -0.04,-0.7 -0.04,-0.16 0.17,-0.38l0.67 0.2c0,-0.6 0.05,-0.25 -0.32,-0.61 -0.64,0.09 -0.5,-0.07 -1,-0.17l-0.61 0.01c0.07,0.31 -0.03,0.08 0.18,0.31 0.02,0.02 0.17,0.11 0.2,0.14l-0 0z"/>
   <path class="fil0" d="M33.38 6.83l0.65 0.32c-0.54,0.07 -0.45,0.18 -0.89,-0.07 -0.22,-0.57 -0.04,-0.45 -0.01,-1.02 -0.26,0.3 -0.21,0.78 -0.11,1.16 0.37,0.1 0.61,0.13 0.93,0.22 0.36,0.11 0.67,0.1 1.08,0.09 0.21,-0.74 0.55,-1.46 0.51,-2.01 -0.62,-0.04 -0.47,0.11 -0.6,0.61 -0.07,0.24 -0.24,0.82 -0.38,1.04 -0.62,-0.23 -0.28,-0.21 -1.18,-0.35z"/>
   <path class="fil0" d="M19.14 2.48c-0.11,0.1 -0.01,0.04 -0.22,0.19 -0,0 -0.21,0.13 -0.21,0.13 -0.28,0.15 -0.32,0.13 -0.62,0.2 -0.1,0.08 -0.6,0.34 -0.74,0.42 -0.37,0.2 -0.64,0.21 -0.77,0.63 0.89,-0.32 1.11,-0.69 1.91,-0.85l-0.13 0.16c-0.01,0.02 -0.05,0.05 -0.06,0.07l-0.85 0.78c-0.07,0.07 -0.14,0.15 -0.23,0.24 -0.02,0.02 -0.04,0.04 -0.06,0.06 -0.47,0.46 -0.45,0.31 -0.62,0.84 0.58,-0.34 1.45,-1.67 2.91,-2.52 0.16,-0.29 0.12,-0.17 0.18,-0.27 0.12,-0.19 -0.01,0.1 0.15,-0.27 -0.52,0.09 -0.28,0.12 -0.61,0.19l0 -0z"/>
   <path class="fil0" d="M27.38 36.1l0 1.06c0.67,0.22 0.77,0.19 1.22,-0.15 0.09,-0.58 -0.1,-0.7 -0.25,-1.11l-0.84 -0.02 -0.14 0.22 0 0z"/>
   <path class="fil0" d="M21.33 48.86l-0.46 -0.01 0.24 -0.37 -0.58 0.03c-0.3,-0.28 -0.54,-0.46 -0.14,-0.88 0.35,-0.38 0.56,-0.08 0.89,0.08l0.25 -0.06 0.04 0.41c0.26,-0.23 0.22,-0.19 0.25,-0.52 -0.02,-0.02 -0.06,-0.04 -0.08,-0.05l-0.97 -0.42c-0.5,-0.03 -0.72,0.32 -0.95,0.52 -0.15,1.38 0.53,1.1 1.3,1.47 0.22,-0.15 0.07,0.21 0.22,-0.22l-0 0z"/>
   <path class="fil0" d="M27.52 45.55l-0.36 0.42c-0.17,0.18 -0.03,-0.01 -0.18,0.23 0.63,-0.01 1.08,-0.35 1.66,-0.51 0.2,-0.08 0.07,0.01 0.23,-0.11 0.28,-0.23 0.13,-0.13 0.25,-0.29l-0.36 -0.06c-0.21,0.35 -0.29,0.32 -0.85,0.41l0.13 -0.18c0.02,-0.02 0.04,-0.05 0.06,-0.08 0.02,-0.03 0.09,-0.1 0.12,-0.12 0.09,-0.1 0.17,-0.17 0.28,-0.29l0.84 -0.92c0.45,-0.55 0.68,-0.82 0.58,-1.15 -0.62,0.53 -1.09,1.65 -2.4,2.65l0 -0z"/>
   <path class="fil0" d="M5.38 25.2c0.42,-0.01 1.29,0.14 1.57,-0.15 0.15,-0.43 0.17,-0.6 0.1,-1.09 -0.06,-0.41 -1.21,-0.4 -1.53,-0.19 0.31,0.37 1.61,0.12 1.09,0.92 -0.4,0.45 -1.54,-0.19 -1.24,0.5l0 -0z"/>
   <path class="fil0" d="M28.18 49.87l-0.43 0.1 0.14 -0.33c-0.47,0.16 -0.23,0.2 -0.64,0.28 -0.18,-0.12 -0.32,-0.24 -0.47,-0.4 0.02,-0.31 0.07,-0.41 0.15,-0.64l-0.04 -0.17 1.25 0c-0.13,-0.19 0.01,-0.2 -0.66,-0.21 -0.26,-0 -0.44,0.01 -0.7,0.04 -0.76,0.39 -0.49,2.13 0.91,1.68 0.38,-0.12 0.49,0.15 0.48,-0.35l-0 0z"/>
   <path class="fil0" d="M36.45 8c-0.31,-0.51 -0.45,-0 -0.53,-0.69 -0.06,-0.49 0.15,-0.58 0.34,-0.85 0.58,-0.08 0.4,0.1 0.81,-0.19 -0.2,-0.26 0.15,-0.17 -0.42,-0.25 -0.72,-0.1 -1.64,0.69 -1.05,1.74 0.26,0.46 0.5,0.5 0.85,0.25l0 0z"/>
   <path class="fil0" d="M33.13 6.06c-0.03,0.57 -0.21,0.45 0.01,1.02 0.44,0.25 0.35,0.14 0.89,0.07l-0.65 -0.32c0.01,-0.61 0.6,-2.09 0.58,-2.31 -0.08,-0.83 0.04,-0.14 -0.22,-0.44l-0.12 0.21c-0.35,0.86 -0.33,1.18 -0.5,1.77l-0 0z"/>
   <path class="fil0" d="M26.07 30.58c0.41,-0.22 0.75,-0.59 1.3,-0.3 0.99,0.52 0.36,2.46 -1.06,1.5l-0.27 -0.16c0.34,1.29 2.05,0.54 2.12,-0.43 0.08,-1.25 -1.96,-1.73 -2.08,-0.6l0 0z"/>
   <path class="fil0" d="M14.43 44.83c0.34,-0.15 -0.02,0.17 0.36,-0.4 0.01,-0.02 0.04,-0.06 0.06,-0.09 0.1,0.14 0.27,-0.14 0.13,0.3 -0.18,0.55 0.54,-0.25 -0.19,0.15 -0.02,0.01 -0.07,0.01 -0.11,0.02 0.53,0.18 0.34,0.26 0.91,0.34l-0.12 -0.39c-0.32,-0.26 -0.13,0.1 -0.22,-0.51 0.47,0 0.29,-0.06 0.68,0.13 0.38,0.18 -0.26,0.07 0.49,0.22 -0.02,-0.46 -0.03,-0.56 -0.43,-0.74 -0.38,-0.18 -0.69,-0.18 -1.05,0.09 -0.02,0.02 -0.04,0.04 -0.06,0.05l-0.16 0.18c-0.2,0.26 -0.24,0.36 -0.29,0.65z"/>
   <path class="fil0" d="M12.02 42.35c-0.63,1.17 -0.13,0.72 0.42,1.57 0.38,0.08 0.05,-0.28 0.04,-0.26l-0.4 -0.36c0.67,0.3 0.5,0.3 1.14,-0.03 -0.13,0.45 0.06,0.01 -0.23,0.48 0.45,-0.18 0.76,-0.49 0.83,-0.97 -0.94,0.04 -0.27,0.56 -1.49,0.53l0.09 -0.73c0.23,-0.37 0.11,-0.05 0.23,-0.48l-0.41 0.13 -0.21 0.12 0 -0z"/>
   <path class="fil0" d="M16.95 47.31c0,0 0.61,0.28 0.63,0.29 0.3,0.09 0.35,0 0.61,-0.17 0.05,-0.4 0.05,-0.74 -0.31,-0.83 -0.27,-0.17 -0.21,-0.07 -0.29,-0.32l0.18 -0.06c0.03,-0.01 0.17,-0 0.21,-0.01 0.43,-0.07 0.16,0.06 0.38,-0.19l-0.94 -0.03 -0.24 0.16c0.13,0.73 -0.06,0.16 0.27,0.53 0.41,0.45 0.15,-0.02 0.32,0.5 -0.67,-0.13 -0.25,-0.26 -0.85,-0.31l0.03 0.45 0 0z"/>
   <path class="fil0" d="M3.93 41.63c-0.02,-0.46 -1.53,-3.12 -1.83,-3.95 -0.01,-0.02 -0.1,-0.34 -0.1,-0.35 -0.18,-0.27 -0.01,-0.13 -0.37,-0.28 0.13,0.45 1.7,4.29 2.29,4.58l0 -0z"/>
   <path class="fil0" d="M18.03 16.21l-0.45 0c-0.02,0.03 -0.05,0.04 -0.06,0.09 -0.03,0.15 -0.34,0.2 -0.27,0.75 0.11,0.88 1.81,0.7 0.78,-0.84z"/>
   <path class="fil0" d="M7.92 36.83c-0.46,0.97 0.07,0.75 0.15,1.64l0.09 -0.19c-0.01,-0.24 0.04,-0.05 -0.08,-0.33l0.28 0.09c-0.02,-0.03 -0.06,-0.11 -0.07,-0.09l-0.16 -0.28c-0.08,-0.26 -0.03,-0.29 -0.01,-0.55 0.66,-0.15 1.1,-0.09 0.94,0.64l0.27 -0.44c0.24,0.55 0.23,0.2 0.05,0.75 0.3,0 0.2,-0.41 0.21,-0.6 -0.15,-0.27 -0.31,-0.67 -0.58,-0.78 -0.33,-0.14 -0.89,-0.11 -1.1,0.15l-0 0z"/>
   <path class="fil0" d="M30.18 19.59c0.28,0.38 0.46,0.42 1.12,0.52 1.32,0.19 2.79,-0.55 3.21,-1.83 -0.4,0.13 -0.28,0.13 -0.5,0.44 -1.27,1.83 -3.34,0.93 -3.83,0.87z"/>
   <path class="fil0" d="M5.38 25.2c-0.3,-0.7 0.85,-0.05 1.24,-0.5 0.52,-0.81 -0.78,-0.55 -1.09,-0.92 0.31,-0.21 1.47,-0.23 1.53,0.19 0.07,0.49 0.04,0.66 -0.1,1.09 0.49,-0.31 0.33,-0.76 0.28,-1.34 -0.32,-0.15 -1.39,-0.42 -1.8,-0.28 -0.15,0.46 -0.13,0.13 -0.02,0.58 0.86,0.28 1.13,-0.24 1.11,0.74 -0.67,-0.02 -1.04,-0.23 -1.42,0.19 0.12,0.44 -0,0.14 0.28,0.27l0 0z"/>
   <path class="fil0" d="M10.13 41.39c0,-0.55 0.09,-0.12 0.39,-0.25 0.04,-0.02 0.15,-0.03 0.19,-0.04 0.28,-0.13 0.1,0.04 0.24,-0.19l-0.74 0.05c-0.21,-0.41 -0.09,-0.53 0,-0.8l0.19 -0.07c0.03,-0.02 0.16,-0.04 0.2,-0.07 0.39,-0.27 0.13,0.06 0.3,-0.46 -0.57,0.03 -0.21,-0.07 -0.71,0.16 -0.8,0.26 -0.87,1.28 -0.06,1.68l0 -0z"/>
   <path class="fil0" d="M26.81 39.2c-0.07,0.24 -0.09,0.14 -0.02,0.44l0.13 0.31c0.01,-0.02 0.04,0.07 0.05,0.1 0.17,0.06 0.63,0.08 0.86,0.04l-0.06 -0.16c0.14,-0.4 0.25,-0.84 -0.12,-1 -0.3,-0.13 -0.56,0.15 -0.84,0.27l-0 0z"/>
   <path class="fil0" d="M6.55 26.38l-0.01 0.69c-0.45,-0.21 -0.37,-0.15 -0.47,-0.7l0.48 0zm-0.41 1.1l-0.02 -0.3 0.55 0.02c0.01,-0.18 0.05,-0.23 0.03,-0.43 -0.05,-0.39 -0.09,-0.33 -0.15,-0.4 -0.41,-0.37 -0.84,0.4 -1.09,-0.31 -0.03,0.02 -0.14,-0.01 -0.27,0.21 -0.13,0.22 -0.11,0.74 -0.08,0.84 0.17,0.5 -0.07,0.17 0.34,0.26l0.14 -0.92c0.12,0.18 0.11,0.23 0.18,0.44 0.05,0.15 0.03,0.14 0.09,0.26 0.17,0.31 0,0.11 0.28,0.32z"/>
   <path class="fil0" d="M32.68 20.86c-0.48,-0.06 -0.71,0.12 -1.25,0.1 -0.27,-0.01 -0.87,-0.13 -1.2,-0.2 -0.83,-0.17 -1.26,-0.65 -1.94,-0.93 0.52,0.96 2.07,1.33 3.13,1.34 0.22,0 0.49,-0.01 0.71,-0.04 0.79,-0.09 0.49,-0.13 0.55,-0.28l0 -0z"/>
   <path class="fil0" d="M22.5 25.2c-0.46,0.2 -0.87,0.29 -1.29,-0.03 -0.38,-0.29 -0.54,-0.61 -0.46,-1.18 0.16,-0.15 0.23,-0.14 0.35,-0.21 0.11,-0.52 0.76,-0.38 1.39,-0.31l-0.27 -0.27c-0.19,-0.11 0.06,-0.06 -0.3,-0.1 -0.27,-0.03 -0.5,0.06 -0.72,0.19 -1.92,1.15 0.82,3.3 1.29,1.92l-0 0z"/>
   <path class="fil0" d="M28.76 13.92c0.55,-0.27 0.35,-0.33 0.81,-0.69 1.56,-1.24 2.49,-0.58 3.56,-0.3 -0.25,-0.38 -0.66,-0.52 -1.12,-0.59 -0.45,-0.08 -1.06,-0.06 -1.49,0.08 -0.63,0.2 -1.51,0.82 -1.76,1.51z"/>
   <path class="fil0" d="M29.99 55.2l1.37 0c0.25,-0.25 0.19,-0.17 0.76,-0.22l1.61 -0.3c0.67,-0.09 0.5,-0.26 0.59,-0.39 -0.51,0.1 -0.57,0.19 -1.04,0.26 -0.43,0.06 -0.81,0.1 -1.16,0.19 -1.52,0.39 -2.09,-0.1 -2.13,0.47z"/>
   <path class="fil0" d="M39.69 19.19c0.04,-0.84 -0.2,-1.6 -0.29,-2.5 -0.05,-0.46 -0.13,-0.64 -0.21,-1.03 -0.04,-0.18 -0.04,-0.43 -0.07,-0.59 -0.15,-0.68 -0.13,-0.36 -0.36,-0.51 0.09,0.72 0.32,1.57 0.45,2.31 0.08,0.42 0.09,0.78 0.13,1.2l0.16 0.86c0.09,0.2 0.1,0.16 0.18,0.26z"/>
   <path class="fil0" d="M12.93 13.15c0.38,-0.26 0.27,-0.55 0.4,-1.16 0.26,-1.23 0.98,-2.75 1.05,-3.29 -0.22,0.17 -0.08,-0.02 -0.25,0.22l-0.29 0.73c-0.36,0.9 -0.93,2.62 -0.9,3.5z"/>
   <path class="fil0" d="M40.79 37.76c0.49,-0.25 0.86,-1.43 1.09,-1.92 0.27,-0.56 0.71,-1.64 0.71,-2.29 -0.02,0.03 -0.05,0.07 -0.07,0.09 -0.02,0.02 -0.05,0.06 -0.06,0.09l-0.2 0.4c-0.46,1.37 -1.41,3.4 -1.47,3.62l0 0z"/>
   <path class="fil0" d="M5.43 30.5c0.4,0.27 0.94,-0.15 2.31,-0.15 0.07,-0.69 -0.14,-0.51 -0.44,-0.28 -0.78,-0.12 -1.73,-0.27 -1.87,0.43z"/>
   <path class="fil0" d="M22.92 27.14c0.13,0.21 0.14,0.34 0.5,0.43 0.1,0.03 0.25,0.04 0.35,0.02 0.72,-0.13 0.23,-0.08 0.42,-0.24l-0.97 0.05c-0.32,-0.4 -0.77,-0.89 -0.16,-1.54 0.68,-0.72 1.09,0.04 1.61,0.23 -0.43,-1.12 -1.88,-0.89 -2.09,0.12 -0.05,0.24 -0.05,0.46 0.02,0.7 0.15,0.46 0.19,0.27 0.3,0.23l0 -0z"/>
   <path class="fil0" d="M34.09 20.27c1.09,-0.41 2.49,-2.46 2.68,-3.45 -0.44,0.2 -0.06,-0.08 -0.29,0.19 -0.13,0.16 -0.53,1.37 -1.61,2.44 -0.3,0.3 -0.58,0.35 -0.79,0.82z"/>
   <path class="fil0" d="M6.33 28.77c-0.32,-0.19 -0.14,0.25 -0.31,-0.24l0.17 -0.38c-0.53,0.44 -0.09,0.53 -0.64,0.95 -0.02,-0.18 -0,-0.41 -0.02,-0.56 -0.04,-0.41 0.05,-0.08 -0.09,-0.36 -0.49,0.1 -0.54,0.78 0,1.35l0.55 -0.01 0.33 -0.74 0 -0z"/>
   <path class="fil0" d="M37.93 43.18c0.55,-0.17 0.67,-0.39 1.03,-0.74 0.31,-0.3 0.52,-0.52 0.74,-0.77 0.32,-0.36 1.1,-1.2 1.33,-1.79 -0.34,0.16 -0.11,-0 -0.35,0.23 -0.14,0.14 -0.05,0.06 -0.14,0.2 -0.95,1.38 -2.24,2.31 -2.6,2.88l-0 0z"/>
   <path class="fil0" d="M25.3 49.97c0.33,-0.11 0.43,0 0.57,-0.47 0.06,-0.18 0.06,-0.46 0.05,-0.68 -0.06,-1.23 -0.05,-0.41 0.29,-1.07 -0.6,-0.03 -0.65,0.26 -0.71,0.83 -0.06,0.58 -0.18,0.85 -0.21,1.38z"/>
   <path class="fil0" d="M6.96 31.66c0.08,0.17 0.09,0.21 0.15,0.5l-0.27 0.14c-0.14,0.22 0.12,0.06 -0.23,0.27 -0.48,-0.02 -0.07,0.09 -0.51,-0.14l-0.29 0.16 0.38 0.39c0.57,0.03 0.77,0 1.1,-0.41 0.08,-0.18 0.13,-0.31 0.24,-0.57l-0.51 -0.67 -0.07 0.33z"/>
   <path class="fil0" d="M7.47 37.92c-0,0.39 -0.05,0.15 -0.17,0.29 -0.19,-0.4 -0.19,-0.31 0,-0.67 0.01,0.01 0.17,-0.15 0.17,0.38l0 -0zm1.11 0.59c-0.04,0.02 -0.08,0.04 -0.12,0.05 -0.52,0.19 -0.72,0.36 -0.98,-0.35 0.29,0.12 0.27,0.12 0.59,0.24 -0.09,-0.88 -0.61,-0.67 -0.15,-1.64 -0.44,0.26 -0.31,0.7 -0.25,1.19l-0.24 -0.74c-1.19,0.18 0.32,2.47 1.16,1.25l0 0z"/>
   <path class="fil0" d="M13.72 18.64c0.03,0.34 0.05,1.01 0.11,1.29 0.06,0.33 0.1,0.19 0.15,0.42 0.08,0.4 0.03,0.22 -0.06,0.39 -0.03,-0.08 -0.08,-0.24 -0.12,-0.31 -0.27,-0.56 -0.19,-0.16 -0.35,-0.83 -0.09,-0.37 -0.21,-0.9 -0.41,-1.24 -0.04,0.65 0.37,1.66 0.6,2.22 0.19,0.48 -0.02,0.38 0.39,0.55 0.42,-0.63 0,-0.94 -0.09,-1.75 -0.07,-0.63 0.03,-0.44 -0.22,-0.73l-0 -0z"/>
   <path class="fil0" d="M9.07 37.75c-0.39,0.32 -0.18,0.24 -0.71,0.29l-0.28 -0.09c0.12,0.27 0.07,0.09 0.08,0.33l-0.09 0.19c-0.31,-0.12 -0.29,-0.11 -0.59,-0.24 0.25,0.71 0.46,0.54 0.98,0.35 0.04,-0.02 0.08,-0.04 0.12,-0.05 0.16,-0.06 0.36,-0.16 0.43,-0.19 0.17,-0.17 -0.17,-0.04 0.37,-0.27 0.18,-0.55 0.19,-0.2 -0.05,-0.75l-0.27 0.44z"/>
   <path class="fil0" d="M6.64 33.46l-0.29 0.38c-0.15,0.28 -0.1,0.23 0.04,0.49 0.34,-0.16 0.23,-0.07 0.34,-0.47l0.34 -0.02c0.34,-0.02 1.04,-0.24 1.28,-0.45 -0.06,-0.06 0.21,-0.59 -0.93,-0.03 -0.3,0.15 -0.4,0.12 -0.77,0.1l0 -0z"/>
   <path class="fil0" d="M27.38 36.1c-0.12,0.1 -0.14,0.01 -0.3,0.24 -0.02,0.8 0.4,1.52 1.27,1.17 0.25,-0.1 0.45,-0.42 0.48,-0.75 0.01,-0.15 -0.01,-0.43 -0.07,-0.56 -0.14,-0.28 -0.17,-0.21 -0.41,-0.3 0.15,0.41 0.34,0.53 0.25,1.11 -0.45,0.34 -0.55,0.37 -1.22,0.15l-0 -1.06 0 -0z"/>
   <path class="fil0" d="M22.39 48.43c-0,0.58 -0.19,0.7 0.22,1.04 0.04,-0.03 0.11,-0.1 0.11,-0.08l0.07 -0.33 -0.02 -0.69 0.5 -0.24 -0.37 -0.67c-0.01,-0.04 -0.04,-0.04 -0.07,-0.06l-0.35 0.5c-0.11,0.27 -0.1,0.17 -0.1,0.53l0 0z"/>
   <path class="fil0" d="M43.41 13.29c0.45,0 1.47,-0.84 1.69,-1.34 -0.41,-0.22 -0.67,0.11 -1,0.39 -0.25,0.22 -0.7,0.52 -0.69,0.95z"/>
   <path class="fil0" d="M24.67 29.5l0.12 0.3c0.42,0.12 0.87,0.21 1.28,0.02 0.86,-0.41 0.93,-1.99 -0.04,-2.13l0.26 0.41c0.12,0.17 0.14,0.1 0.18,0.43 0.22,1.79 -1.79,0.98 -1.8,0.98z"/>
   <path class="fil0" d="M9.41 39.04c0.44,-0.14 0.29,-0.2 0.67,-0.29 -0,0.03 -0,0.05 -0.01,0.09l-0.2 0.25c-0.02,0.02 -0.05,0.03 -0.08,0.04l-0.75 0.49c-0.22,-0.23 -0.08,0.03 -0.12,-0.36 -0.22,0.23 -0.21,-0.34 -0.18,0.29 0.49,0.32 0.8,-0.04 1.17,-0.29 1.35,-0.89 0.34,-0.18 1.06,-0.52 -0.06,-0.7 -0.45,-0.39 -0.77,-0.23l-0.52 0.19c-0.26,0.14 -0.19,0.13 -0.29,0.34l0 0z"/>
   <path class="fil0" d="M12.84 44.08c-0.84,0.41 -1.26,0.06 -1.51,-0.63 0.42,0.05 0.42,0.24 0.55,0.4 0.02,0.02 0.05,0.06 0.07,0.08l0.5 -0.02c-0.55,-0.84 -1.05,-0.4 -0.42,-1.57 -0.39,0.31 -0.39,0.39 -0.39,0.9 -0.42,-0.01 -0.18,-0.09 -0.46,0.12 0.05,0.73 1.02,1.66 1.67,0.7l-0 -0z"/>
   <path class="fil0" d="M48.79 30.5c0.04,0.05 0.02,0.21 0.59,0.38 0.22,0.07 0.46,0.09 0.72,0.13 0.29,0.34 -0.01,0.18 0.35,0.47 0.04,-0.05 0.29,0.11 0.14,-0.48 -0.04,-0.16 -0.12,-0.14 -0.25,-0.38 -0.35,-0.06 -0.58,-0.02 -0.85,-0.1 -0.43,-0.14 0.04,-0.1 -0.34,-0.14 -0.64,-0.07 -0.2,0.01 -0.36,0.12l0 0z"/>
   <path class="fil0" d="M21.85 1.54c0.69,0.03 1.11,-0.47 1.36,-0.14 0.52,-0.33 0.95,-0.39 1.27,-0.55 0.2,-0.1 0.13,-0.07 0.26,-0.18 -0.64,-0 -2.41,0.31 -2.89,0.88l0 0z"/>
   <path class="fil0" d="M23.76 48.87l0.09 0.9c0.54,-0.17 0.24,-0.09 0.39,-0.7 0.07,-0.27 0.19,-0.52 0.54,-0.44 0.13,-0.29 0.06,-0.07 0.09,-0.34l-0.64 -0.14c-0.37,0.38 -0.21,0.34 -0.48,0.71l0 -0z"/>
   <path class="fil0" d="M29.92 42.9c0.43,-0.24 1.59,-2.69 1.69,-3.37 -0.28,0.18 -0.2,0.01 -0.36,0.44 -0.53,1.47 -0.76,1.53 -1.24,2.47l-0.1 0.46 0 0z"/>
   <path class="fil0" d="M31.04 46.71l-1.22 0c0.46,-0.05 0,0.01 0.22,-0.21 -0.52,0.02 -0.35,-0.03 -0.76,0.16l-0.61 0.3c0.12,0.08 0.06,0.1 0.31,0.17 0.05,0.01 0.3,0.02 0.36,0.02 0.34,-0.01 1.42,-0.24 1.7,-0.44l-0 0z"/>
   <path class="fil0" d="M50.94 27.35c-0.43,-0.1 -1.39,-0.28 -1.81,0.02 0.25,0.36 0.08,0.21 0.64,0.32 0.46,0.09 0.57,0.15 1.02,0.07l0.15 -0.41 0 0z"/>
   <path class="fil0" d="M17.72 14.59c0.09,-0.52 0.14,-0.39 -0.03,-0.9l-0.77 -0 0 -0.09 -0.11 0.66 0.27 0.31 0.64 0.02 0 0z"/>
   <path class="fil0" d="M12.84 44.08c0.16,-0.16 0.16,-0.06 0.15,-0.34 0.29,-0.47 0.1,-0.03 0.23,-0.48 -0.64,0.33 -0.48,0.34 -1.14,0.03l0.4 0.36c0.01,-0.02 0.34,0.35 -0.04,0.26l-0.5 0.02c-0.02,-0.03 -0.05,-0.06 -0.07,-0.08 -0.13,-0.16 -0.13,-0.35 -0.55,-0.4 0.26,0.7 0.67,1.04 1.51,0.63l-0 0z"/>
   <path class="fil0" d="M16.96 16.62c0.26,1.85 1.94,1.14 1.59,-0.04l-0.08 -0.27c-0.03,-0.01 -0.07,-0.01 -0.09,-0.02 -0.03,-0.01 -0.08,-0.02 -0.1,-0.02 -0.03,-0.01 -0.2,-0.05 -0.24,-0.07 1.03,1.54 -0.67,1.72 -0.78,0.84 -0.07,-0.54 0.24,-0.59 0.27,-0.75 0.01,-0.05 0.04,-0.06 0.06,-0.09 -0.49,0.18 -0.27,0.15 -0.62,0.41l0 0z"/>
   <path class="fil0" d="M7.48 20.92c0.33,0.24 0.63,0.6 0.55,1.14 -0.2,-0.11 -0.23,-0.09 -0.36,-0.21l0.08 0.38c0.88,-0.02 0.23,-0.86 0.07,-1.39 0.49,0.11 0.32,0.16 0.8,-0.04l0.01 -0.53c-0.47,-0.22 -0.22,-0.15 -0.62,-0.14 0.38,0.36 0.32,0.01 0.32,0.61l-0.67 -0.2c-0.21,0.23 -0.22,-0.32 -0.17,0.38l0 0z"/>
   <path class="fil0" d="M16.96 16.62c-0.35,0.19 0.03,1.48 0.99,1.33 0.66,-0.11 1.3,-1.27 0.52,-1.63l0.08 0.27c0.34,1.18 -1.33,1.89 -1.59,0.04l0 0z"/>
   <path class="fil0" d="M26.97 40.04c-0.02,-0.03 -0.05,-0.12 -0.05,-0.1l-0.13 -0.31c-0.07,-0.3 -0.04,-0.2 0.02,-0.44 0.17,-0.3 0.09,-0.19 0.32,-0.42l0.58 -0.03c0.27,0.29 0.84,0.8 0.06,1.18l0.06 0.16 0.37 -0.16c0.21,-0.78 -0.03,-1.39 -0.83,-1.35 -0.89,0.04 -1.18,1.38 -0.4,1.47l0 -0z"/>
   <path class="fil0" d="M24.28 52.01c-0.24,-0.35 0.23,-0.04 -0.3,-0.3l-1.06 -0.25c-0.54,-0.15 -1.14,-0.36 -1.62,-0.43 0.17,0.19 0.08,0.14 0.33,0.29 0.33,0.2 2.33,0.66 2.64,0.69l0 -0z"/>
   <path class="fil0" d="M5.88 22.8c0.29,0.2 0.82,0.32 1.19,0.37 0.65,0.08 1,0.38 1.01,-0.32l-1.07 -0.36c0.11,0.21 0.11,0.16 0.13,0.48l-1.27 -0.17 0 0z"/>
   <path class="fil0" d="M24.67 29.5c-0.05,-0.48 -0.26,-0.52 -0.14,-1.2 0.31,-0.57 0.77,-0.57 1.45,-0.55 -0,-0 -0.02,-0.59 -1.02,-0.14 -0.74,0.33 -0.99,1.54 -0.28,1.9z"/>
   <path class="fil0" d="M18.79 48.23c0.27,-0.18 0.37,-0.32 0.5,-0.69 0.16,-0.46 0.25,-0.5 0.28,-1.01 -0.52,0.23 -0.15,-0.08 -0.48,0.4 -0.26,0.38 -0.54,0.89 -0.29,1.29l0 -0z"/>
   <path class="fil0" d="M5.88 22.8l1.27 0.17c-0.03,-0.32 -0.03,-0.28 -0.13,-0.48l-1.29 -0.22c-0.02,0.47 -0.12,0.41 0.16,0.54z"/>
   <path class="fil0" d="M23.43 4.54c-0,0.23 -0.28,0.57 -0.39,1.02 0.71,-0.28 -0.1,0.09 0.75,-0.93l-0.04 1.11c0.19,0 0.16,0.05 0.12,-0.13l0.3 -1.57c-0.51,0.14 -0.12,0.1 -0.74,0.51l-0 -0z"/>
   <path class="fil0" d="M16.05 2.32l2.77 -1.02c0.16,-0.11 0.1,-0.09 0.21,-0.2 -0.53,-0.02 -1.23,0.33 -1.65,0.5 -0.25,0.1 -0.56,0.24 -0.74,0.3 -0.5,0.18 -0.52,-0.04 -0.59,0.42z"/>
   <path class="fil0" d="M28.64 45.69c-0.58,0.16 -1.03,0.5 -1.66,0.51 0.16,-0.23 0.02,-0.05 0.18,-0.23l0.36 -0.42c-0.37,0.11 -0.33,0.1 -0.63,0.36 -0.3,0.26 -0.28,0.26 -0.35,0.6 0.53,0.08 1.78,-0.38 2.11,-0.82l0 0z"/>
   <path class="fil0" d="M10.9 40.94l0.05 -0.03c-0.14,0.23 0.04,0.06 -0.24,0.19 -0.03,0.02 -0.15,0.03 -0.19,0.04 -0.3,0.12 -0.39,-0.31 -0.39,0.25l0.42 0.23c0.39,-0.25 1.13,-0.58 1,-1.13l-0.34 -0.06c-0.02,0.08 -0.04,0.22 -0.09,0.3 -0.17,0.3 0.08,-0.02 -0.22,0.21l0 0z"/>
   <path class="fil0" d="M5.81 32.58l-0.08 -0.92c0.31,-0.3 0.72,-0.8 1.29,-0.33l0.51 0.67c-0.11,0.26 -0.17,0.39 -0.24,0.57 1.29,-0.98 -1.72,-2.79 -1.72,-0.32 0.15,0.85 -0.01,0.18 0.25,0.34l-0 0z"/>
   <path class="fil0" d="M25.94 42.49l0.74 -0.05c0.26,-0.41 0.21,-0.32 0.03,-0.74 -0.79,-0.1 -0.77,0.09 -0.77,0.8z"/>
   <path class="fil0" d="M32.58 46.34c0.47,-0.01 2.19,-0.74 2.4,-0.89 0.28,-0.2 0.11,0.04 0.28,-0.33 -0.36,0.09 -2.34,0.91 -2.68,1.23l0 0z"/>
   <path class="fil0" d="M7.05 8.79c0.45,-0.04 0.31,-0.14 1.01,-0.85 0.38,-0.38 0.69,-0.51 0.93,-1.04 -0.52,0.2 -1.7,1.36 -1.93,1.89z"/>
   <path class="fil0" d="M26.09 41.54c0.36,-0.18 0.12,-0.12 0.34,-0.04 0.25,0.08 0.13,0.04 0.27,0.2 0.17,0.42 0.23,0.34 -0.03,0.74l-0.74 0.05c0.01,0.04 -0.2,0.18 0.29,0.31 0.41,0.11 0.55,-0.2 0.85,-0.47l-0.04 -0.58c-0.61,-0.48 -0.33,-0.41 -0.86,-0.44l-0.09 0.23z"/>
   <path class="fil0" d="M6.55 26.38c0.05,0.07 0.1,0.01 0.15,0.4 0.02,0.19 -0.01,0.24 -0.03,0.43 0.2,-0.12 0.07,-0.03 0.21,-0.19 0.07,-0.64 -0.05,-0.63 -0.35,-1.05 -0.36,-0.02 -0.85,-0.13 -1.07,0.1 0.25,0.7 0.68,-0.07 1.09,0.31z"/>
   <path class="fil0" d="M27.31 33.07c1,-0.07 1.36,0.05 1.29,1.08 -0.15,0.1 -0.28,0.29 -0.42,0.49 0.36,-0.15 0.06,-0.01 0.28,-0.15 0.28,-0.17 0.02,-0.05 0.34,-0.21 -0.01,-0.25 0.17,-1.52 -0.97,-1.49 -0.47,0.01 -0.48,0.22 -0.52,0.27l0 -0z"/>
   <path class="fil0" d="M8.69 47.56c-0.15,-0.46 -0.51,-0.65 -0.8,-0.94 -0.35,-0.35 -0.52,-0.8 -1.05,-0.95 0.34,0.75 0.71,0.86 1.36,1.56 0.24,0.26 0.08,0.24 0.49,0.33l0 0z"/>
   <path class="fil0" d="M17.42 45.78l0 0.2 0.94 0.03c-0.23,0.25 0.05,0.12 -0.38,0.19 -0.04,0.01 -0.18,0 -0.21,0.01l-0.18 0.06c0.08,0.25 0.03,0.15 0.29,0.32 0.04,-0.34 -0.13,-0.18 0.09,-0.25l0.72 0.18c-0.07,-0.6 -0.33,-0.74 -0.95,-0.9l-0.31 0.15 -0 -0z"/>
   <path class="fil0" d="M5.81 32.58l0.29 -0.16c-0.22,-0.38 -0.13,-0.45 -0.03,-0.85 0.38,-0.1 0.67,-0.21 0.88,0.09l0.07 -0.33c-0.57,-0.46 -0.98,0.03 -1.29,0.33l0.08 0.92z"/>
   <path class="fil0" d="M26.94 48.88c0.74,-0.1 0.83,-0.13 0.95,0.76l-0.14 0.33 0.43 -0.1 -0.03 -1.16 -1.25 0 0.04 0.17 0 0z"/>
   <path class="fil0" d="M16.53 45.38l-0.55 0.8c-0.09,0.7 -0.04,0.12 0.14,0.37 0.26,-0.1 0.31,-0.07 0.66,-0.81l0.08 -0.5c-0.04,0.02 -0.32,0.13 -0.33,0.14z"/>
   <path class="fil0" d="M48.54 18.37c-0.02,-0.03 -0.06,-0.06 -0.07,-0.08l-0.23 -0.31c-0.47,0.26 -0.32,0.09 -0.68,0.21 -0.29,0.09 -0.42,0.2 -0.45,0.58 0.42,0.02 0.84,-0.34 1.43,-0.39z"/>
   <path class="fil0" d="M11.4 44.96c-0.16,-0.42 -0.56,-0.66 -0.84,-1.03 -0.24,-0.32 -0.16,-0.19 -0.44,-0.47 -0.3,-0.3 -0.2,-0.3 -0.58,-0.46l0.42 0.61c0.17,0.19 0.28,0.3 0.44,0.49l0.66 0.73c0.25,0.18 0.03,0.07 0.34,0.13l0 0z"/>
   <path class="fil0" d="M16.89 10.85c0.12,-0.01 0.28,-0.04 0.38,0 0.32,0.13 0.07,-0.05 0.21,0.19 0.1,0.04 0.21,-0.23 0.17,0.3 -0.06,0.75 -0.71,0.22 -0.88,0.08l0.07 -0.4c0.01,-0.02 0.02,-0.07 0.02,-0.09 0.01,-0.02 0.02,-0.06 0.02,-0.09zm0 0l-0.26 0.74c0.67,0.47 0.63,0.48 1.02,0.13 0.31,-0.27 0.3,-0.58 0.02,-0.87 -0.25,-0.26 -0.54,-0.39 -0.78,-0.01l-0 0z"/>
   <path class="fil0" d="M6.33 28.77l-0.07 -0.03c0.18,-0.62 0.05,-0.18 0.23,-0.34l0.2 0.84c0,-0 0.52,-0.06 0.05,-1.01 -0.01,-0.03 -0.04,-0.07 -0.06,-0.1 -0.19,-0.13 0.2,-0.1 -0.28,-0.09 -0.47,0.01 -0.16,0.01 -0.2,0.1l-0.17 0.38c0.17,0.49 -0.02,0.05 0.31,0.24l-0 0z"/>
   <path class="fil0" d="M36.18 38.26c0.47,-0.12 0.55,-0.6 0.75,-0.99 0.2,-0.4 0.42,-0.78 0.53,-1.22 -0.35,0.17 -0.07,-0.04 -0.27,0.2 -0.12,0.15 -0.09,0.13 -0.17,0.32 -0.09,0.22 -0.17,0.38 -0.25,0.54 -0.19,0.37 -0.43,0.72 -0.58,1.14l-0 0z"/>
   <path class="fil0" d="M17.3 53.18c-0.19,-0.46 -0.01,-0.19 -0.53,-0.39 -0.2,-0.08 -0.26,-0.12 -0.53,-0.25 -0.47,-0.22 -0.77,-0.4 -1.23,-0.51 0.22,0.4 0.32,0.31 1.05,0.68 0.35,0.18 0.81,0.39 1.24,0.48l-0 0z"/>
   <path class="fil0" d="M39.26 40.07c0.46,-0.22 0.67,-0.67 0.91,-1.06 0.23,-0.37 0.66,-0.84 0.68,-1.28 -0.2,0.15 -0.1,0.02 -0.3,0.28l-1.29 2.07 -0 0z"/>
   <path class="fil0" d="M4.6 19.44c0.4,-0.13 0.3,-0.59 0.47,-1.03 0.14,-0.38 0.37,-0.82 0.38,-1.24 -0.4,0.21 -0.83,1.76 -0.86,2.27z"/>
   <path class="fil0" d="M34.75 17.47c0.23,-0.18 0.1,0.21 0.28,-0.46 0.04,-0.16 0.04,-0.36 0.04,-0.53 0,-0.15 -0,-0.45 -0.02,-0.6 -0.1,-0.68 -0.13,-0.38 -0.27,-0.43l-0.02 2.02 0 0z"/>
   <path class="fil0" d="M19.24 22.4c0.02,0.07 -0,0.48 0.61,0.67 0.37,0.12 0.2,0.08 0.53,-0.01l0.27 -0.1c0.01,-0.03 0.05,-0.02 0.08,-0.03 0.26,-0.45 0.72,-0.97 0.14,-1.25 0.09,0.82 -0.03,1.12 -0.84,1.31l-0.79 -0.6 0 -0z"/>
   <path class="fil0" d="M10.21 40.15c0.3,-0.11 0.18,-0.07 0.46,-0.09l0.27 0.29 -0.05 0.59c0.3,-0.23 0.06,0.09 0.22,-0.21 0.05,-0.09 0.07,-0.22 0.09,-0.3l0.34 0.06c-0.13,-0.24 -0.29,-0.54 -0.5,-0.74 -0.16,-0.15 -0.11,-0.18 -0.39,-0.21 -0.42,-0.04 -0.35,0 -0.47,0.17 0.5,-0.23 0.14,-0.13 0.71,-0.16 -0.17,0.52 0.09,0.19 -0.3,0.46 -0.03,0.02 -0.17,0.05 -0.2,0.07l-0.19 0.07 -0 0z"/>
   <path class="fil0" d="M15.85 48.52c-0.18,-0.37 -0.63,-0.58 -0.95,-0.81 -0.27,-0.19 -0.69,-0.53 -1.08,-0.63 0.24,0.43 0.52,0.53 0.91,0.81l0.69 0.47c0.28,0.14 0.06,0.05 0.43,0.16z"/>
   <path class="fil0" d="M41.86 10.67l-0.22 -0.04c-0.54,0.67 -0.89,-0.54 -0.85,0.33 0.14,0.04 0.28,0.06 0.42,0.12 0.41,0.17 -0.11,0.04 0.41,0.19 0.34,-0.15 0.44,-0.23 0.46,-0.57l-0 -0.24c-0.02,0.45 0.05,0.02 -0.23,0.21l0 0z"/>
   <path class="fil0" d="M28.18 34.64c-0.64,0.14 -0.76,-0.08 -1.21,-0.26 0.12,0.42 0,0.33 0.43,0.51 0.19,0.08 0.3,0.12 0.54,0.11 0.43,-0.04 0.73,-0.4 0.86,-0.71 -0.32,0.16 -0.06,0.04 -0.34,0.21 -0.22,0.13 0.08,-0 -0.28,0.15l0 0z"/>
   <path class="fil0" d="M27.33 24.94c-0.13,-0.36 -1.16,-1.56 -1.57,-1.85 0.19,0.79 0.9,0.98 1.14,1.72 0.03,0.02 0.15,0.05 0.17,0.05l0.25 0.07 -0 0z"/>
   <path class="fil0" d="M46.08 47.19l0.39 -0.05c-0.02,0.02 -0.06,0.02 -0.07,0.06l-0.16 0.23c-0.25,0.62 0.03,-0.32 -0.04,0.22 0.31,-0.16 0.23,-0.1 0.5,-0.38 0.15,-0.16 0.21,-0.17 0.29,-0.39l0.16 -0.38 -0.41 0.06c-0.24,0.3 -0.35,0.2 -0.66,0.62l-0 0z"/>
   <path class="fil0" d="M13.01 46.45c-0.17,-0.44 -0.41,-0.51 -0.76,-0.84 -0.58,-0.54 -0.3,-0.58 -0.85,-0.65 0.12,0.41 0.87,1.03 1.25,1.3 0.35,0.24 0.03,0.04 0.36,0.19l-0 -0z"/>
   <path class="fil0" d="M25.04 44.19l-0.06 0.5c-0,0 0.07,0.3 -0.28,-0.01 -0.12,-0.1 -0.08,-0.21 -0.1,-0.36l0.44 -0.12 0 -0zm0 0c-0.08,-0.09 0.29,-0.44 -0.65,0.05l0.06 0.55c0.75,0.29 0.84,0.15 0.91,-0.58 -0.15,-0.13 -0.03,-0.01 -0.32,-0.02z"/>
   <path class="fil0" d="M17.72 14.59c0,-0 0.27,0.12 0.36,-0.34 0.06,-0.33 -0.17,-0.77 -0.57,-0.84 -0.66,-0.11 -0.49,0.12 -0.59,0.28l0.77 0c0.17,0.52 0.13,0.38 0.03,0.9z"/>
   <path class="fil0" d="M16.95 47.31l-0.03 -0.45c0.61,0.04 0.18,0.17 0.85,0.31 -0.17,-0.52 0.09,-0.05 -0.32,-0.5 -0.33,-0.36 -0.13,0.2 -0.27,-0.53l0.24 -0.16 0 -0.2 -0.34 0.26c-0.04,0.5 -0.13,0.38 0.24,0.64 -0.36,0.01 -0.5,-0.07 -0.72,0.33l0.35 0.31 0 -0z"/>
   <path class="fil0" d="M35.24 45.18c0.49,-0.06 1.76,-0.81 1.91,-1.29 -0.25,0.09 -1.61,0.89 -1.91,1.29z"/>
   <path class="fil0" d="M31.89 31.66c0.15,-0.36 -0.13,-0.77 -0.28,-1.1 -0.06,-0.14 -0.15,-0.34 -0.21,-0.47 -0.21,-0.43 -0.05,-0.26 -0.43,-0.41 0.11,0.35 0.31,0.73 0.46,1.04 0.18,0.4 0.18,0.59 0.46,0.95l0 0z"/>
   <path class="fil0" d="M16.53 45.38c0.01,-0 0.29,-0.11 0.33,-0.14l-0.08 0.5c0.46,-0.32 0.05,0.03 0.27,-0.38 0.22,-0.4 0.69,-0.7 0,-0.89 -0.32,0.34 -0.08,0.18 -0.22,0.45 -0.1,0.2 -0.13,0.12 -0.3,0.46l0 0z"/>
   <path class="fil0" d="M24.2 27.36c-0.19,0.16 0.29,0.11 -0.42,0.24 -0.1,0.02 -0.25,0 -0.35,-0.02 -0.36,-0.1 -0.37,-0.22 -0.5,-0.43 -0.1,0.27 -0.21,-0.35 -0.06,0.33 0.34,0.15 0.58,0.4 1.12,0.29 0.14,-0.03 0.37,-0.18 0.48,-0.27 0.44,-0.36 0.24,-0 0.28,-0.53 -0.49,0.23 -0.22,0.21 -0.54,0.4l-0 0z"/>
   <path class="fil0" d="M22.5 25.2c0.26,-0.06 0.02,0.05 0.14,-0.21 -0.61,0.08 -0.71,0.53 -1.34,0.1 -0.52,-0.36 -0.39,-0.78 -0.2,-1.31 -0.12,0.08 -0.19,0.07 -0.35,0.21 -0.09,0.58 0.08,0.89 0.46,1.18 0.42,0.32 0.83,0.24 1.29,0.03z"/>
   <path class="fil0" d="M37.72 53.25c0.49,-0.05 1.74,-0.51 2.06,-0.95 -0.43,-0.01 -0.65,0.21 -1.1,0.41 -0.2,0.09 -0.32,0.11 -0.5,0.19l-0.46 0.35 0 -0z"/>
   <path class="fil0" d="M16.29 7.36c0.38,-0.12 0.06,0.13 0.38,-0.33 0.13,-0.19 0.2,-0.29 0.33,-0.47 0.27,-0.36 0.54,-0.58 0.67,-1.05 -0.03,0.02 -0.07,0.01 -0.09,0.06 -0.02,0.07 -1.17,1.05 -1.28,1.78l0 0z"/>
   <path class="fil0" d="M7.39 13.18c0.39,-0.29 1,-1.26 1.16,-1.73 -0.4,0.12 -0.05,-0.18 -0.4,0.3 -0.12,0.16 -0.16,0.26 -0.27,0.42 -0.22,0.35 -0.43,0.6 -0.49,1.01z"/>
   <path class="fil0" d="M4.52 12.15c0.14,-0.11 0.12,-0.06 0.24,-0.2l1.16 -1.74c-0.54,0.28 -1.29,1.34 -1.39,1.94z"/>
   <path class="fil0" d="M50.12 30.05c-0.15,-0.36 -0.2,-0.34 -0.21,-0.82 -0,-0.06 -0.02,-0.45 -0.01,-0.48 0.02,-0.22 -0.23,-0.53 0.16,-0.38 0.03,-0.02 0.15,-0.06 0.16,-0.11 0.01,-0.05 0.05,-0.06 0.09,-0.08 -0.44,-0.18 -0.25,-0.13 -0.76,-0.08l0.31 0.55c-0.14,0.45 -0.07,0.89 -0.11,1.38l0.39 0.02 0 -0z"/>
   <path class="fil0" d="M12.93 50.84c0.01,-0.32 -0.39,-0.43 -0.73,-0.66 -0.35,-0.24 -0.43,-0.42 -0.94,-0.53 0.26,0.39 1.22,1.08 1.67,1.19z"/>
   <path class="fil0" d="M7.06 33.85l-0.34 0.02c-0.11,0.4 -0,0.3 -0.34,0.47 -0.14,-0.27 -0.19,-0.21 -0.04,-0.49l0.29 -0.38c-0.29,0.08 -0.35,0.1 -0.48,0.3 -0.37,0.53 0.08,0.71 0.34,0.86l0.56 -0.77 0 0z"/>
   <path class="fil0" d="M21.11 48.48l-0.24 0.37 0.46 0.01c0.14,-0.29 0.25,-0.38 0.23,-0.8l-0.04 -0.41 -0.25 0.06 -0.06 0.65 -0.11 0.12 0 0z"/>
   <path class="fil0" d="M6.26 28.74c0.47,0.23 0.07,0.09 0.29,0.54 0.16,0.33 0.05,0.16 0.29,0.21 0.27,-0.4 0.44,-1.22 -0.16,-1.36 0.02,0.03 0.05,0.07 0.06,0.1 0.47,0.95 -0.04,1.01 -0.05,1.01l-0.2 -0.84c-0.18,0.16 -0.05,-0.28 -0.23,0.34l0 0z"/>
   <path class="fil0" d="M15.2 9.04c0.37,-0.07 0.23,-0.08 0.62,-0.75 0.25,-0.42 0.43,-0.55 0.46,-0.94 -0.26,0.11 -0.03,-0.14 -0.31,0.26 -0.11,0.16 -0.16,0.28 -0.26,0.44 -0.22,0.35 -0.37,0.57 -0.51,0.98l0 0z"/>
   <path class="fil0" d="M22.79 49.06l-0.07 0.33c-0.01,-0.02 -0.08,0.05 -0.11,0.08 -0.41,-0.33 -0.22,-0.45 -0.22,-1.04 -0.57,0.71 -0.22,1.18 0.63,1.27 0.01,-0.29 0.05,-0.16 -0.02,-0.41 -0.1,-0.34 0.07,-0.03 -0.2,-0.24l-0 -0z"/>
   <path class="fil0" d="M23.76 48.87c0.27,-0.37 0.11,-0.33 0.48,-0.71l0.64 0.14c-0.04,0.27 0.04,0.05 -0.09,0.34l0.32 -0.16c-0.16,-0.52 -0.37,-0.5 -0.97,-0.52 -0.3,0.28 -0.39,0.3 -0.38,0.92l0 0z"/>
   <path class="fil0" d="M23.43 4.54c0.61,-0.41 0.22,-0.37 0.74,-0.51l-0.3 1.57 0.55 -2.09c-0.59,0.21 -0.73,0.41 -0.98,1.02l0 0z"/>
   <path class="fil0" d="M5.98 10.01c0.3,-0.14 0.79,-0.65 0.97,-0.97 0.12,-0.21 0.02,-0 0.1,-0.25 -0.48,0.04 -0.2,0.02 -1.02,0.95 -0.22,0 -0.12,-0.03 -0.05,0.27l0 0z"/>
   <path class="fil0" d="M17.48 11.05c-0.01,0.32 0.09,0.34 -0.12,0.45 -0.48,0.25 -0.37,-0.12 -0.39,-0.13 0.14,-0.48 -0.11,-0.36 0.51,-0.32zm0 0c-0.14,-0.25 0.11,-0.06 -0.21,-0.19 -0.1,-0.04 -0.26,-0.02 -0.38,-0 -0.01,0.03 -0.02,0.07 -0.02,0.09 -0,0.02 -0.02,0.06 -0.02,0.09l-0.07 0.4c0.17,0.14 0.82,0.67 0.88,-0.08 0.04,-0.53 -0.06,-0.26 -0.17,-0.3z"/>
   <path class="fil0" d="M11.42 7.8l0.56 -0.33c0.32,-0.33 0.63,-0.45 0.83,-0.9 -0.38,-0.01 -0.46,0.24 -0.74,0.5 -0.3,0.27 -0.46,0.34 -0.64,0.72l-0 0z"/>
   <path class="fil0" d="M26.81 39.2c0.28,-0.12 0.54,-0.4 0.84,-0.27 0.37,0.15 0.26,0.6 0.12,1 0.78,-0.38 0.21,-0.88 -0.06,-1.18l-0.58 0.03c-0.24,0.23 -0.15,0.12 -0.32,0.42l0 0z"/>
   <path class="fil0" d="M32.64 42.68c0.17,-0.08 0.2,-0.06 0.38,-0.13 0.13,-0.19 0.24,-0.29 0.44,-0.51 0.17,-0.18 0.05,0 0.22,-0.24 0.16,-0.22 0.08,-0.11 0.21,-0.4 -0.49,0.26 -1.03,0.8 -1.26,1.28l0 0z"/>
   <path class="fil0" d="M6.1 32.42c0.44,0.23 0.03,0.12 0.51,0.14 0.35,-0.21 0.09,-0.06 0.23,-0.27 -0.49,0.11 -0.17,0.17 -0.6,-0.04 -0.2,-0.36 -0.18,-0.11 -0.01,-0.55 0.3,-0.13 0.45,-0.09 0.73,-0.05 -0.21,-0.3 -0.5,-0.18 -0.88,-0.09 -0.11,0.4 -0.19,0.47 0.03,0.85l0 0z"/>
   <path class="fil0" d="M9.81 6.2c0.47,-0.04 0.44,-0.18 0.78,-0.47 0.15,-0.13 0.23,-0.15 0.34,-0.24 0.36,-0.29 0.13,-0.08 0.31,-0.38 -0.43,0.12 -1,0.53 -1.32,0.91l-0.12 0.18 -0 0z"/>
   <path class="fil0" d="M34.77 15.45c0.03,-0.49 -0.22,-1.18 -0.69,-1.49 0.05,0.6 0.12,0.32 0.31,0.82 0.06,0.16 0.03,0.16 0.11,0.34 0.27,0.58 0.09,0.18 0.27,0.33l0 0z"/>
   <path class="fil0" d="M9.41 39.04l-0.48 0.22c0.04,0.39 -0.1,0.14 0.12,0.36l0.75 -0.49c0.02,-0.01 0.05,-0.03 0.08,-0.04l0.2 -0.25c0.01,-0.04 0.01,-0.06 0.01,-0.09 -0.39,0.1 -0.23,0.15 -0.67,0.29l-0 -0z"/>
   <path class="fil0" d="M34.18 41.28c0.31,-0.19 0.44,-0.4 0.68,-0.64 0.27,-0.28 0.27,-0.27 0.36,-0.74 -0.39,0.26 -0.9,0.94 -1.04,1.38l0 -0z"/>
   <path class="fil0" d="M39.78 52.3c0.32,-0.01 0.99,-0.38 1.28,-0.56l0.34 -0.33c-0.42,0.08 -0.98,0.39 -1.33,0.61l-0.29 0.29 0 -0z"/>
   <path class="fil0" d="M37.22 42.11c-0.11,0.22 -0.07,0.18 -0.23,0.43 0.39,-0.14 0.59,-0.39 0.78,-0.59 0.09,-0.09 0.24,-0.22 0.3,-0.29 0.24,-0.28 0.13,-0.06 0.17,-0.4 -0.45,0.21 -0.64,0.7 -1.03,0.85l0 0z"/>
   <path class="fil0" d="M25.09 22.21c-0.11,-0.42 -0.21,-0.49 -0.39,-0.76 -0.04,-0.07 -0.16,-0.26 -0.17,-0.27 -0.37,-0.47 0.03,-0.15 -0.41,-0.32 0.12,0.4 0.54,1.09 0.97,1.35l0 0z"/>
   <path class="fil0" d="M16.96 16.62c0.36,-0.26 0.13,-0.23 0.62,-0.41l0.45 -0c0.04,0.01 0.21,0.06 0.24,0.06 0.03,0.01 0.08,0.02 0.1,0.02 0.02,0.01 0.06,0.01 0.09,0.02 -0.4,-0.64 -1.32,-0.43 -1.51,0.31l-0 -0z"/>
   <path class="fil0" d="M9.83 48.59c-0.17,-0.46 -0.14,-0.32 -0.48,-0.65 -0.32,-0.31 -0.2,-0.34 -0.66,-0.38 0.1,0.22 -0.07,0.01 0.18,0.28 0.11,0.11 0.19,0.17 0.3,0.28 0.24,0.23 0.3,0.32 0.66,0.48l-0 0z"/>
   <path class="fil0" d="M17.78 14.68c-0.65,0.11 -0.77,0.18 -1.11,-0.41l0.1 -0.6c-0.52,0.31 -0.13,0.94 -0.04,1.03 0.21,0.22 0.68,0.37 1.05,-0.02l0 -0z"/>
   <path class="fil0" d="M14.68 44.81l0.01 0.19c0.37,0.15 0.75,0.43 1.12,0.38 0.03,-0.21 0.11,-0.16 -0.03,-0.39 -0.2,-0.32 -0.08,-0.1 -0.32,-0.23l0.12 0.39c-0.57,-0.09 -0.38,-0.16 -0.91,-0.34l-0 0z"/>
   <path class="fil0" d="M35.33 39.62c0.44,-0.2 0.25,-0.12 0.56,-0.6 0.25,-0.4 0.23,-0.23 0.34,-0.7 -0.32,0.19 -0.32,0.21 -0.68,0.82 -0.23,0.39 -0.09,0.12 -0.21,0.48l-0 0z"/>
   <path class="fil0" d="M47.2 46.16c-0.03,0.03 -0.13,0.13 -0.18,0.17l-0.28 0.24 0.41 -0.06 -0.16 0.38c0.29,-0.2 0.15,0.23 0.28,-0.21l0.19 -0.17 0.23 -0.5c-0.2,0.06 -0.31,0.08 -0.49,0.16l0 0z"/>
   <path class="fil0" d="M43.98 48.6l0.27 0.01c0.16,-0.27 0.42,-0.41 0.81,-0.66l0.89 -0.7 -1.57 0.94c-0.45,0.3 -0.24,0.15 -0.4,0.41l-0 -0z"/>
   <path class="fil0" d="M7.37 21.2c0.14,0.49 0.14,0.3 0.3,0.64 0.13,0.12 0.16,0.1 0.36,0.21 0.08,-0.53 -0.22,-0.9 -0.55,-1.14 0.32,0.34 0.19,-0.1 0.2,0.58l-0.31 -0.29 -0 0z"/>
   <path class="fil0" d="M38.25 41.26l0.35 -0.23c0.38,-0.4 0.54,-0.58 0.66,-0.97 -0.36,0.21 -0.33,0.26 -0.61,0.57 -0.33,0.36 -0.35,0.21 -0.4,0.64z"/>
   <path class="fil0" d="M6.32 37.96c-0.07,-0.34 -0.13,-0.44 -0.25,-0.74 -0.07,-0.17 -0.08,-0.21 -0.16,-0.33 -0.11,-0.17 -0.1,-0.11 -0.22,-0.22 0.01,0.52 0.02,0.34 0.19,0.71 0.04,0.1 0.1,0.28 0.14,0.34 0.25,0.36 -0.05,0.09 0.3,0.25l0 0z"/>
   <path class="fil0" d="M47.2 46.16c0.18,-0.08 0.29,-0.09 0.49,-0.16l-0.23 0.5c0.36,-0.12 0.2,0.04 0.41,-0.38 0.07,-0.13 0.08,-0.19 0.12,-0.42 -0.38,0 -0.56,0.1 -0.79,0.46l0 0z"/>
   <path class="fil0" d="M28.4 26.1c-0.08,-0.16 -0.01,-0.07 -0.12,-0.23 -0.08,-0.11 -0.12,-0.15 -0.21,-0.25 -0.08,-0.09 -0.15,-0.19 -0.22,-0.25 -0.3,-0.25 -0.04,-0.06 -0.38,-0.22 0.05,0.45 0.06,0.25 0.37,0.56 0.35,0.36 0.14,0.3 0.56,0.38l-0 0z"/>
   <path class="fil0" d="M19.76 2.29c-0.15,0.37 -0.03,0.08 -0.15,0.27 -0.06,0.1 -0.01,-0.02 -0.18,0.27 0.37,-0.13 0.05,0.01 0.31,-0.13 0.11,-0.06 0.19,-0.13 0.28,-0.19 0.43,-0.3 0.25,-0.07 0.43,-0.47 -0.56,0.11 -0.26,0.13 -0.7,0.25l0 0z"/>
   <path class="fil0" d="M25.94 42.49c-0,-0.71 -0.02,-0.9 0.77,-0.8 -0.13,-0.15 -0.01,-0.11 -0.27,-0.2 -0.23,-0.08 0.01,-0.14 -0.34,0.04l-0.28 0.15c-0.05,0.28 -0.17,0.67 0.12,0.81l0 0z"/>
   <path class="fil0" d="M11.42 7.8c-0.11,0.34 0.01,0.01 -0.25,0.35l-0.22 0.34c0.43,-0.14 0.28,-0.08 0.59,-0.41 0.05,-0.05 0.23,-0.23 0.24,-0.24 0.18,-0.23 0.09,-0.07 0.2,-0.36l-0.56 0.33 0 0z"/>
   <path class="fil0" d="M17.78 14.68l-0.06 -0.09 -0.64 -0.02 -0.27 -0.31 0.11 -0.66 -0.15 0.06 -0.1 0.6c0.34,0.59 0.45,0.52 1.11,0.41l0 0z"/>
   <path class="fil0" d="M15.31 4.76c0.35,-0.04 0.44,-0.16 0.64,-0.29 0.14,-0.09 0.15,-0.05 0.29,-0.16 0.3,-0.25 0.11,-0.09 0.25,-0.31 -0.4,0.08 -0.37,0.11 -0.63,0.28 -0.09,0.06 -0.22,0.14 -0.28,0.18 -0.31,0.26 -0.09,0.06 -0.27,0.31l-0 -0z"/>
   <path class="fil0" d="M27.07 34.38l0.01 -1.14c-0.32,0.25 -0.05,-0.27 -0.29,0.31l0.04 0.61c0.14,0.26 0.05,0.06 0.24,0.22z"/>
   <path class="fil0" d="M30.85 46.26c0.36,-0.02 1.13,-0.25 1.26,-0.58 -0.49,0.09 -0.93,0.21 -1.26,0.58z"/>
   <path class="fil0" d="M14.69 44.99l-0.01 -0.19c-0.01,0.03 -0.03,0.08 -0.04,0.09l-0.21 -0.07c-0.11,0.05 -0.21,-0.22 -0.36,0.59 0.49,-0.11 0.47,-0.05 0.62,-0.43l0 -0z"/>
   <path class="fil0" d="M14.24 3.21c0.42,-0.13 0.88,-0.3 1.15,-0.67 -0.33,0.04 -0.45,0.12 -0.67,0.23 -0.08,0.04 -0.26,0.11 -0.32,0.16 -0.25,0.22 0.01,-0.14 -0.16,0.28l0 -0z"/>
   <path class="fil0" d="M17.48 11.05c-0.62,-0.04 -0.37,-0.17 -0.51,0.32 0.02,0.01 -0.1,0.38 0.39,0.13 0.22,-0.11 0.12,-0.13 0.12,-0.45z"/>
   <path class="fil0" d="M12.23 42.22l0.41 -0.13c-0.12,0.42 0,0.11 -0.23,0.48 0.31,-0.12 0.16,0.05 0.43,-0.29 0.2,-0.25 0.09,-0.07 0.09,-0.38l-0.5 0c-0.15,0.17 -0.12,0.2 -0.2,0.32l0 0z"/>
   <path class="fil0" d="M48.54 18.37l0.07 0.41 0.22 0 -0.13 -0.85 -0.47 0.04 0.23 0.31c0.02,0.02 0.05,0.06 0.07,0.08l0 -0z"/>
   <path class="fil0" d="M17.57 8.47c-0.02,-0.31 0.32,0.03 0.15,0.06 -0.38,0.08 -0.14,0 -0.15,-0.06zm-0.06 0.28c0.42,0.03 0.06,0.2 0.49,-0.16 -0.15,-0.51 -0.02,-0.27 -0.38,-0.43 -0.28,0.3 -0.33,0.2 -0.12,0.59z"/>
   <path class="fil0" d="M34.38 44.46c0.26,-0.09 0.33,-0.1 0.55,-0.26 0.06,-0.04 0.13,-0.1 0.19,-0.16 0.14,-0.15 0.06,-0.07 0.18,-0.25 -0.24,0.05 -0.42,0.13 -0.57,0.21 -0.53,0.31 -0.27,-0.11 -0.35,0.46l0 0z"/>
   <path class="fil0" d="M11.89 4.58c0.28,-0.11 0.17,-0.04 0.48,-0.21 0.2,-0.12 0.26,-0.17 0.45,-0.33 -0.23,-0.12 0.47,-0.25 -0.34,-0.04 -0.17,0.04 -0.07,0.03 -0.21,0.12 -0.39,0.26 -0.32,0.02 -0.37,0.45z"/>
   <path class="fil0" d="M23.59 19.66l-0.65 -1.41c-0.07,0.52 0.03,0.4 0.21,0.81 0.05,0.12 0.09,0.27 0.14,0.35 0.28,0.47 0.11,0.16 0.31,0.25l0 0z"/>
   <path class="fil0" d="M45.31 48.64c0.27,-0.11 0.32,-0.14 0.56,-0.34 0.32,-0.26 0.27,-0.24 0.4,-0.55 -0.41,0.18 -0.08,-0.01 -0.32,0.16 -0.01,0.01 -0.22,0.2 -0.25,0.23l-0.39 0.5 -0 0z"/>
   <path class="fil0" d="M6.9 45.74c-0.13,-0.39 -0.26,-0.55 -0.62,-0.72 0.04,0.21 0.01,0.29 0.16,0.49 0.31,0.4 -0.08,0.19 0.46,0.23z"/>
   <path class="fil0" d="M6.28 21.1l0.45 -0.04c0.15,-0.16 0.25,-0.28 0.35,-0.42l-0.31 -0.19 -0.32 0.53c-0.03,0.02 -0.06,0.05 -0.08,0.06 -0.02,0.02 -0.06,0.05 -0.09,0.07z"/>
   <path class="fil0" d="M41.05 39.88c0.2,-0.13 0.1,-0.03 0.26,-0.19 0.1,-0.1 0.09,-0.11 0.15,-0.21 0.19,-0.31 0.14,-0.24 0.23,-0.57 -0.33,0.18 -0.06,-0.03 -0.26,0.18 -0.06,0.06 -0.1,0.14 -0.14,0.21 -0.13,0.23 -0.15,0.25 -0.23,0.58l0 -0z"/>
   <path class="fil0" d="M19.14 1.17c0.28,-0 0.41,-0.04 0.61,-0.09 0.05,-0.02 0.2,-0.07 0.25,-0.1 0.17,-0.08 0.19,-0.12 0.27,-0.17 -0.59,-0 -0.77,-0.04 -1.13,0.37l-0 -0z"/>
   <path class="fil0" d="M13.85 51.43c-0.18,-0.46 0.07,-0.16 -0.38,-0.42 -0.21,-0.12 -0.23,-0.13 -0.53,-0.17 0.11,0.19 -0.06,0.03 0.14,0.21 0.13,0.11 0.04,0.04 0.21,0.14 0.25,0.15 0.3,0.16 0.56,0.24l0 -0z"/>
   <path class="fil0" d="M38.44 33.08c0.15,-0.13 0.09,-0.02 0.23,-0.21 0.07,-0.1 0.06,-0.06 0.11,-0.23 0.07,-0.23 0.05,-0.4 0.05,-0.64 -0.02,0.03 -0.06,0.03 -0.07,0.09 -0.02,0.09 -0.26,0.18 -0.32,0.99z"/>
   <path class="fil0" d="M26.31 0.4l0.91 -0.11c0.15,-0.16 0.06,-0.05 0.14,-0.29l-0.51 0c-0.18,0.29 0.05,0.04 -0.2,0.22 -0.06,0.04 -0.25,0.12 -0.34,0.18l-0 -0z"/>
   <path class="fil0" d="M29.51 27.53c-0.14,-0.34 -0.12,-0.43 -0.43,-0.63 -0.03,-0.02 -0.07,-0.05 -0.09,-0.06 -0.02,-0.02 -0.06,-0.05 -0.09,-0.07l-0.21 -0.22c0.08,0.33 0.13,0.35 0.31,0.55 0.32,0.37 0.14,0.25 0.51,0.42l0 0z"/>
   <path class="fil0" d="M16.81 49.09c-0.22,-0.4 -0.56,-0.54 -1,-0.62 0.11,0.14 0.06,0.1 0.2,0.23 0.01,0.01 0.17,0.13 0.19,0.14 0.25,0.15 0.31,0.16 0.6,0.24z"/>
   <path class="fil0" d="M25.04 44.19l-0.44 0.12c0.02,0.16 -0.02,0.26 0.1,0.36 0.35,0.31 0.28,0.01 0.28,0.01l0.06 -0.5 -0 0z"/>
   <path class="fil0" d="M5.73 44.26c-0.09,-0.3 -0.06,-0.26 -0.21,-0.49 -0.12,-0.19 -0.04,-0.09 -0.16,-0.2 -0.16,-0.16 -0.04,-0.04 -0.25,-0.18 0.1,0.47 0.2,0.66 0.62,0.88l-0 0z"/>
   <path class="fil0" d="M30.52 44.53c0.27,-0.09 0.28,-0.06 0.53,-0.26 0.33,-0.27 0.16,-0.13 0.29,-0.39 -0.41,0.12 -0.63,0.28 -0.82,0.65l-0 0z"/>
   <path class="fil0" d="M36.42 43c0.18,-0.09 0.18,-0.05 0.42,-0.25 0.16,-0.13 0.08,-0.06 0.16,-0.21 0.16,-0.25 0.12,-0.21 0.23,-0.43 -0.38,0.28 -0.67,0.52 -0.81,0.89l-0 -0z"/>
   <path class="fil0" d="M28.7 26.56l0.21 0.22c0.02,0.02 0.07,0.05 0.09,0.07 0.02,0.02 0.06,0.04 0.09,0.06 -0.06,-0.43 -0.31,-0.69 -0.68,-0.8 0.12,0.35 0.07,0.18 0.29,0.46l-0 -0z"/>
   <path class="fil0" d="M28.4 14.82c0.32,-0.31 -0.03,0.27 0.27,-0.29 0.15,-0.27 0.1,-0.26 0.14,-0.55 -0.15,0.12 -0.09,-0.09 -0.3,0.27 -0.1,0.18 -0.1,0.31 -0.11,0.57z"/>
   <path class="fil0" d="M13.21 6.35c0.28,-0.1 0.11,0.07 0.45,-0.22 0.25,-0.21 0.17,-0.21 0.27,-0.4 -0.4,0.11 -0.56,0.21 -0.72,0.62z"/>
   <path class="fil0" d="M9.38 38.06c-0.55,0.23 -0.2,0.1 -0.37,0.27 0.49,-0.11 0.55,-0.09 0.79,-0.52 -0.09,-0.26 0.01,-0.17 -0.22,-0.35 -0,0.2 0.09,0.6 -0.21,0.6l0 0z"/>
   <path class="fil0" d="M4.59 42.58c-0.13,-0.29 -0.03,-0.1 -0.13,-0.29l-0.53 -0.66c0.05,0.4 0.25,0.82 0.67,0.95l0 0z"/>
   <path class="fil0" d="M32.68 20.86c0.51,0.05 0.63,0.05 0.91,-0.36 -0.41,0.06 -0.2,-0 -0.54,0.14 -0.05,0.02 -0.11,0.05 -0.16,0.07 -0.15,0.08 -0.2,0.14 -0.21,0.15l0 0z"/>
   <path class="fil0" d="M6.78 20.41c-0.03,-0.03 -0.18,-0.12 -0.2,-0.14 -0.22,-0.22 -0.12,0.01 -0.18,-0.31l0.61 -0.01c-0.02,-0.01 0.03,-0.15 -0.39,-0.15 -0.37,0 -0.21,0.04 -0.34,0.13 0.04,0.44 -0.05,0.31 0.51,0.46l0 -0z"/>
   <path class="fil0" d="M45.14 11.38c0.06,0.11 0.04,0.18 0.17,0.27 0.02,0.01 0.05,0.03 0.07,0.04l0.38 -0.31c-0.28,-0.15 0.19,-0.13 -0.3,-0.12 -0.13,0 -0.31,0.11 -0.33,0.13z"/>
   <path class="fil0" d="M7.31 38.21c0.12,-0.14 0.16,0.1 0.17,-0.29 0.01,-0.53 -0.16,-0.37 -0.17,-0.38 -0.19,0.36 -0.19,0.27 0,0.67l0 0z"/>
   <path class="fil0" d="M18.09 3.01c0.3,-0.07 0.33,-0.06 0.62,-0.2 0.01,-0 0.21,-0.13 0.21,-0.13 0.21,-0.15 0.11,-0.09 0.22,-0.19 -0.39,0.07 -0.77,0.22 -1.05,0.52l0 -0z"/>
   <path class="fil0" d="M33.93 13.62c-0.19,-0.4 -0.23,-0.41 -0.66,-0.63 0.06,0.41 0.31,0.51 0.66,0.63z"/>
   <path class="fil0" d="M35.77 4.99l-0.38 -0.17c-0.17,0.47 0.14,0.75 0.38,0.17z"/>
   <path class="fil0" d="M9.52 10.1c0.23,-0.1 0.1,0.03 0.29,-0.17 0.31,-0.33 -0.25,0.41 0.11,-0.14 0.13,-0.2 0,-0 0.14,-0.29 -0.42,0.06 -0.5,0.32 -0.54,0.61l0 0z"/>
   <path class="fil0" d="M32.64 42.68l-0.18 0.1 -0.05 0.31c0.3,-0.15 0.08,0.04 0.37,-0.22 0.12,-0.1 0.13,-0.15 0.24,-0.32 -0.18,0.06 -0.21,0.05 -0.38,0.13l0 -0z"/>
   <polygon class="fil0" points="6.15,27.48 6.59,27.46 6.67,27.21 6.13,27.18 "/>
   <path class="fil0" d="M36.88 8.52c0.21,-0.13 0.41,-0.06 0.12,-0.46 -0.42,0.12 -0.37,0.13 -0.12,0.46z"/>
   <path class="fil0" d="M8.55 11.45l0.17 -0.07c0.41,-0.33 0.24,-0.37 0.27,-0.5 -0.33,0.15 -0.35,0.13 -0.44,0.57l-0 0z"/>
   <path class="fil0" d="M19.76 50.62c-0.15,-0.25 0.03,-0.1 -0.29,-0.3 -0.08,-0.05 -0.25,-0.08 -0.33,-0.1 0.2,0.35 -0.13,0.08 0.18,0.29 0.31,0.21 0.22,0.09 0.45,0.11l0 0z"/>
   <path class="fil0" d="M23.91 20.25c-0.03,-0.33 0.09,-0.05 -0.07,-0.36 -0.26,-0.49 0,-0.07 -0.25,-0.23 -0.04,0.29 -0.09,0.09 0.03,0.32 0.21,0.4 0.09,0.12 0.29,0.27z"/>
   <path class="fil0" d="M6.85 14.01c0.22,-0.15 0.1,0.03 0.24,-0.18 0.16,-0.23 0.1,-0.13 0.16,-0.44 -0.29,0.15 -0.09,-0.08 -0.27,0.18 -0.14,0.2 -0.08,0.14 -0.13,0.43l-0 0z"/>
   <path class="fil0" d="M19.85 46.3c-0.04,-0.44 0.08,-0.5 -0.39,-0.26 0.17,0.19 -0.32,0.2 0.39,0.26z"/>
   <path class="fil0" d="M14.28 5.48c0.4,-0.11 0.06,0.11 0.34,-0.11 0.23,-0.18 0.12,-0.07 0.25,-0.36 -0.46,0.17 -0.38,0.12 -0.59,0.47z"/>
   <path class="fil0" d="M14.43 44.83l0.21 0.07c0.01,-0.01 0.02,-0.06 0.04,-0.09 0.04,-0.01 0.09,-0.01 0.11,-0.02 0.73,-0.4 0.01,0.4 0.19,-0.15 0.14,-0.43 -0.03,-0.16 -0.13,-0.3 -0.02,0.03 -0.04,0.07 -0.06,0.09 -0.38,0.57 -0.01,0.25 -0.36,0.4l0 -0z"/>
   <path class="fil0" d="M48.83 18.79l0.11 0.45c0.21,-0.1 0.18,0.05 0.26,-0.34l-0.36 -0.1 -0 0z"/>
   <path class="fil0" d="M22.94 18.24c0.15,-0.35 -0.02,-0.34 -0.24,-0.48l0.03 0.44 0.21 0.03z"/>
   <path class="fil0" d="M27.42 19.07c-0.08,-0.4 -0.1,-0.32 -0.41,-0.5 0.13,0.45 -0.09,0.1 0.13,0.33 0.22,0.24 -0.07,0.02 0.29,0.17l0 0z"/>
   <path class="fil0" d="M41.29 49.99c0.41,0.08 0.35,0.05 0.51,-0.28 -0.3,0.05 -0.03,-0.06 -0.34,0.09 -0.18,0.09 -0.1,0.1 -0.17,0.19l-0 0z"/>
   <path class="fil0" d="M37.98 34.5l0.27 -0.06 0.01 -0.46c-0.24,0 -0.17,-0.05 -0.17,0.2l-0.12 0.31 0 -0z"/>
   <path class="fil0" d="M10.9 49.41c-0.12,-0.36 -0.19,-0.31 -0.52,-0.4 0.12,0.17 0.01,0.14 0.19,0.26 0.28,0.19 -0.19,-0 0.33,0.14z"/>
   <path class="fil0" d="M8.96 6.97c0.48,-0.07 0.14,0.01 0.3,-0.14 0.14,-0.13 0.09,-0.11 0.2,-0.27 -0.34,0.11 -0.38,0.04 -0.5,0.41z"/>
   <path class="fil0" d="M13.63 3.53l0.4 -0.06 0.08 -0.26c-0.57,0.06 -0.13,0.01 -0.34,0.13 -0.03,0.02 -0.06,0.11 -0.07,0.08 -0.02,-0.03 -0.04,0.07 -0.06,0.1z"/>
   <path class="fil0" d="M9.22 10.48l0.27 -0.06 0.04 -0.32c-0.2,-0.06 -0.15,-0.1 -0.15,0.1l-0.16 0.27z"/>
   <path class="fil0" d="M44.53 49.28l0.33 -0.14 0.05 -0.28c-0.41,0.26 -0,-0.09 -0.18,0.13 -0.17,0.2 -0.05,0.02 -0.2,0.29l-0 -0z"/>
   <path class="fil0" d="M17.57 8.47c0,0.07 -0.23,0.14 0.15,0.06 0.17,-0.04 -0.17,-0.37 -0.15,-0.06z"/>
   <polygon class="fil0" points="19.49,20.19 -0,0 "/>
  </g>
 </g>
</svg>
